<?xml version="1.0" encoding="UTF-8"?>
<svg width="1440px" height="900px" viewBox="0 0 1440 900" version="1.1" xmlns="http://www.w3.org/2000/svg" xmlns:xlink="http://www.w3.org/1999/xlink">
    <title>break-points-labelled</title>
    <g id="break-points-labelled" stroke="none" stroke-width="1" fill="none" fill-rule="evenodd">
        <rect id="large" stroke="#FED500" stroke-width="4" fill="#FFFFFF" x="47" y="124" width="1267" height="732"></rect>
        <g id="large-content" opacity="0.15" transform="translate(285.000000, 159.000000)" fill-opacity="0.35">
            <circle id="Oval" fill="#040303" cx="20" cy="20" r="20"></circle>
            <rect id="Rectangle" fill="#000000" x="50" y="7" width="104" height="12"></rect>
            <rect id="Rectangle" fill="#000000" x="0" y="268" width="258" height="105"></rect>
            <rect id="Rectangle" fill="#000000" x="533" y="268" width="258" height="105"></rect>
            <rect id="Rectangle" fill="#000000" x="0" y="70" width="415" height="12"></rect>
            <rect id="Rectangle" fill="#000000" x="0" y="90" width="94" height="12"></rect>
            <rect id="Rectangle" fill="#000000" x="50" y="27" width="94" height="7"></rect>
            <rect id="Rectangle" fill="#000000" x="516" y="7" width="78" height="28" rx="14"></rect>
            <rect id="Rectangle" fill="#000000" x="268" y="268" width="258" height="105"></rect>
            <rect id="Rectangle" fill="#000000" x="0" y="153" width="258" height="105"></rect>
            <rect id="Rectangle" fill="#000000" x="533" y="153" width="258" height="105"></rect>
            <rect id="Rectangle" fill="#000000" x="268" y="153" width="258" height="105"></rect>
        </g>
        <rect id="medium" stroke="#FED500" stroke-width="4" fill="#FFFFFF" x="47" y="347" width="950" height="509"></rect>
        <g id="medium-content" opacity="0.15" transform="translate(225.000000, 371.000000)" fill-opacity="0.35">
            <circle id="Oval" fill="#040303" cx="20" cy="20" r="20"></circle>
            <rect id="Rectangle" fill="#000000" x="50" y="7" width="104" height="12"></rect>
            <rect id="Rectangle" fill="#000000" x="0" y="152" width="292" height="105"></rect>
            <rect id="Rectangle" fill="#000000" x="302" y="152" width="292" height="105"></rect>
            <rect id="Rectangle" fill="#000000" x="0" y="287" width="292" height="105"></rect>
            <rect id="Rectangle" fill="#000000" x="302" y="287" width="292" height="105"></rect>
            <rect id="Rectangle" fill="#000000" x="0" y="422" width="594" height="61"></rect>
            <rect id="Rectangle" fill="#000000" x="0" y="70" width="415" height="12"></rect>
            <rect id="Rectangle" fill="#000000" x="0" y="90" width="94" height="12"></rect>
            <rect id="Rectangle" fill="#000000" x="50" y="27" width="94" height="7"></rect>
            <rect id="Rectangle" fill="#000000" x="516" y="7" width="78" height="28" rx="14"></rect>
        </g>
        <rect id="small" stroke="#FED500" stroke-width="4" fill="#FFFFFF" x="47" y="445" width="324" height="411"></rect>
        <g id="small-content" opacity="0.148192224" transform="translate(65.000000, 463.000000)" fill-opacity="0.35">
            <circle id="Oval" fill="#040303" cx="20" cy="20" r="20"></circle>
            <rect id="Rectangle" fill="#000000" x="50" y="7" width="104" height="12"></rect>
            <rect id="Rectangle" fill="#000000" x="0" y="152" width="288" height="105"></rect>
            <rect id="Rectangle" fill="#000000" x="0" y="287" width="288" height="105"></rect>
            <rect id="Rectangle" fill="#000000" x="0" y="70" width="288" height="12"></rect>
            <rect id="Rectangle" fill="#000000" x="0" y="90" width="288" height="12"></rect>
            <rect id="Rectangle" fill="#000000" x="0" y="110" width="196" height="12"></rect>
            <rect id="Rectangle" fill="#000000" x="50" y="27" width="94" height="7"></rect>
            <rect id="Rectangle" fill="#000000" x="210" y="7" width="78" height="28" rx="14"></rect>
        </g>
        <text id="768px" font-family="IBMPlexSans, IBM Plex Sans" font-size="36" font-weight="normal" fill="#000000">
            <tspan x="79.25" y="410">768px</tspan>
        </text>
        <rect id="small" stroke="#FED500" stroke-width="4" x="47" y="445" width="324" height="411"></rect>
        <text id="576px" font-family="IBMPlexSans, IBM Plex Sans" font-size="36" font-weight="normal" fill="#000000">
            <tspan x="79.25" y="508">576px</tspan>
        </text>
        <text id="992px" font-family="IBMPlexSans, IBM Plex Sans" font-size="36" font-weight="normal" fill="#000000">
            <tspan x="79.25" y="187">992px</tspan>
        </text>
    </g>
</svg>