<svg width="1559" height="927" viewBox="0 0 1559 927" fill="none" xmlns="http://www.w3.org/2000/svg">
<rect width="1559" height="927" fill="#F1FFF7"/>
<mask id="mask0_6_843" style="mask-type:luminance" maskUnits="userSpaceOnUse" x="373" y="57" width="247" height="247">
<path d="M598 64H395C386.716 64 380 70.7157 380 79V282C380 290.284 386.716 297 395 297H598C606.284 297 613 290.284 613 282V79C613 70.7157 606.284 64 598 64Z" stroke="#979797" stroke-width="14" stroke-dasharray="10 12"/>
</mask>
<g mask="url(#mask0_6_843)">
<path d="M598 64H395C386.716 64 380 70.7157 380 79V282C380 290.284 386.716 297 395 297H598C606.284 297 613 290.284 613 282V79C613 70.7157 606.284 64 598 64Z" stroke="#979797" stroke-width="14" stroke-dasharray="10 12"/>
</g>
<mask id="mask1_6_843" style="mask-type:luminance" maskUnits="userSpaceOnUse" x="656" y="57" width="247" height="247">
<path d="M881 64H678C669.716 64 663 70.7157 663 79V282C663 290.284 669.716 297 678 297H881C889.284 297 896 290.284 896 282V79C896 70.7157 889.284 64 881 64Z" stroke="#979797" stroke-width="14" stroke-dasharray="10 12"/>
</mask>
<g mask="url(#mask1_6_843)">
<path d="M881 64H678C669.716 64 663 70.7157 663 79V282C663 290.284 669.716 297 678 297H881C889.284 297 896 290.284 896 282V79C896 70.7157 889.284 64 881 64Z" stroke="#979797" stroke-width="14" stroke-dasharray="10 12"/>
</g>
<mask id="mask2_6_843" style="mask-type:luminance" maskUnits="userSpaceOnUse" x="939" y="57" width="247" height="247">
<path d="M1164 64H961C952.716 64 946 70.7157 946 79V282C946 290.284 952.716 297 961 297H1164C1172.28 297 1179 290.284 1179 282V79C1179 70.7157 1172.28 64 1164 64Z" stroke="#979797" stroke-width="14" stroke-dasharray="10 12"/>
</mask>
<g mask="url(#mask2_6_843)">
<path d="M1164 64H961C952.716 64 946 70.7157 946 79V282C946 290.284 952.716 297 961 297H1164C1172.28 297 1179 290.284 1179 282V79C1179 70.7157 1172.28 64 1164 64Z" stroke="#979797" stroke-width="14" stroke-dasharray="10 12"/>
</g>
<mask id="mask3_6_843" style="mask-type:luminance" maskUnits="userSpaceOnUse" x="373" y="340" width="247" height="247">
<path d="M598 347H395C386.716 347 380 353.716 380 362V565C380 573.284 386.716 580 395 580H598C606.284 580 613 573.284 613 565V362C613 353.716 606.284 347 598 347Z" stroke="#979797" stroke-width="14" stroke-dasharray="10 12"/>
</mask>
<g mask="url(#mask3_6_843)">
<path d="M598 347H395C386.716 347 380 353.716 380 362V565C380 573.284 386.716 580 395 580H598C606.284 580 613 573.284 613 565V362C613 353.716 606.284 347 598 347Z" stroke="#979797" stroke-width="14" stroke-dasharray="10 12"/>
</g>
<mask id="mask4_6_843" style="mask-type:luminance" maskUnits="userSpaceOnUse" x="656" y="340" width="247" height="247">
<path d="M881 347H678C669.716 347 663 353.716 663 362V565C663 573.284 669.716 580 678 580H881C889.284 580 896 573.284 896 565V362C896 353.716 889.284 347 881 347Z" stroke="#979797" stroke-width="14" stroke-dasharray="10 12"/>
</mask>
<g mask="url(#mask4_6_843)">
<path d="M881 347H678C669.716 347 663 353.716 663 362V565C663 573.284 669.716 580 678 580H881C889.284 580 896 573.284 896 565V362C896 353.716 889.284 347 881 347Z" stroke="#979797" stroke-width="14" stroke-dasharray="10 12"/>
</g>
<mask id="mask5_6_843" style="mask-type:luminance" maskUnits="userSpaceOnUse" x="373" y="623" width="247" height="247">
<path d="M598 630H395C386.716 630 380 636.716 380 645V848C380 856.284 386.716 863 395 863H598C606.284 863 613 856.284 613 848V645C613 636.716 606.284 630 598 630Z" stroke="#979797" stroke-width="14" stroke-dasharray="10 12"/>
</mask>
<g mask="url(#mask5_6_843)">
<path d="M598 630H395C386.716 630 380 636.716 380 645V848C380 856.284 386.716 863 395 863H598C606.284 863 613 856.284 613 848V645C613 636.716 606.284 630 598 630Z" stroke="#979797" stroke-width="14" stroke-dasharray="10 12"/>
</g>
<mask id="mask6_6_843" style="mask-type:luminance" maskUnits="userSpaceOnUse" x="656" y="623" width="247" height="247">
<path d="M881 630H678C669.716 630 663 636.716 663 645V848C663 856.284 669.716 863 678 863H881C889.284 863 896 856.284 896 848V645C896 636.716 889.284 630 881 630Z" stroke="#979797" stroke-width="14" stroke-dasharray="10 12"/>
</mask>
<g mask="url(#mask6_6_843)">
<path d="M881 630H678C669.716 630 663 636.716 663 645V848C663 856.284 669.716 863 678 863H881C889.284 863 896 856.284 896 848V645C896 636.716 889.284 630 881 630Z" stroke="#979797" stroke-width="14" stroke-dasharray="10 12"/>
</g>
<mask id="mask7_6_843" style="mask-type:luminance" maskUnits="userSpaceOnUse" x="939" y="340" width="247" height="247">
<path d="M1164 347H961C952.716 347 946 353.716 946 362V565C946 573.284 952.716 580 961 580H1164C1172.28 580 1179 573.284 1179 565V362C1179 353.716 1172.28 347 1164 347Z" stroke="#979797" stroke-width="14" stroke-dasharray="10 12"/>
</mask>
<g mask="url(#mask7_6_843)">
<path d="M1164 347H961C952.716 347 946 353.716 946 362V565C946 573.284 952.716 580 961 580H1164C1172.28 580 1179 573.284 1179 565V362C1179 353.716 1172.28 347 1164 347Z" stroke="#979797" stroke-width="14" stroke-dasharray="10 12"/>
</g>
<g opacity="0.347974">
<path fill-rule="evenodd" clip-rule="evenodd" d="M497 709.5C517.711 709.5 534.5 726.289 534.5 747C534.5 767.711 517.711 784.5 497 784.5C476.289 784.5 459.5 767.711 459.5 747C459.5 726.289 476.289 709.5 497 709.5ZM497 703.25C472.838 703.25 453.25 722.838 453.25 747C453.25 771.162 472.838 790.75 497 790.75C521.162 790.75 540.75 771.162 540.75 747C540.75 722.838 521.162 703.25 497 703.25ZM515.75 743.875H500.125V728.25H493.875V743.875H478.25V750.125H493.875V765.75H500.125V750.125H515.75V743.875Z" fill="black"/>
</g>
<g opacity="0.347974">
<path fill-rule="evenodd" clip-rule="evenodd" d="M779 709.5C799.711 709.5 816.5 726.289 816.5 747C816.5 767.711 799.711 784.5 779 784.5C758.289 784.5 741.5 767.711 741.5 747C741.5 726.289 758.289 709.5 779 709.5ZM779 703.25C754.838 703.25 735.25 722.838 735.25 747C735.25 771.162 754.838 790.75 779 790.75C803.162 790.75 822.75 771.162 822.75 747C822.75 722.838 803.162 703.25 779 703.25ZM797.75 743.875H782.125V728.25H775.875V743.875H760.25V750.125H775.875V765.75H782.125V750.125H797.75V743.875Z" fill="black"/>
</g>
</svg>
