<svg width="1286" height="614" viewBox="0 0 1286 614" fill="none" xmlns="http://www.w3.org/2000/svg">
<rect width="1286" height="613.68" fill="#F1FFF7"/>
<path d="M283.5 73.68H143.5V121.68H283.5V73.68Z" fill="#DC267F"/>
<path d="M562.5 73.68H295.5V121.68H562.5V73.68Z" fill="#DC267F"/>
<path d="M714.5 73.68H574.5V121.68H714.5V73.68Z" fill="#DC267F"/>
<path d="M1075.5 73.68H726.5V121.68H1075.5V73.68Z" fill="#DC267F"/>
<path d="M480.5 133.68H143.5V181.68H480.5V133.68Z" fill="#DC267F"/>
<path d="M796.5 133.68H492.5V181.68H796.5V133.68Z" fill="#DC267F"/>
<path d="M1002.5 133.68H808.5V181.68H1002.5V133.68Z" fill="#DC267F"/>
<path d="M632.5 193.68H143.5V241.68H632.5V193.68Z" fill="#DC267F"/>
<path d="M1052.5 193.68H644.5V241.68H1052.5V193.68Z" fill="#DC267F"/>
<path d="M254.5 253.68H143.5V301.68H254.5V253.68Z" fill="#DC267F"/>
<path d="M533.5 253.68H266.5V301.68H533.5V253.68Z" fill="#DC267F"/>
<path d="M905.5 253.68H545.5V301.68H905.5V253.68Z" fill="#DC267F"/>
<path d="M353.5 421.68H143.5V469.68H353.5V421.68Z" fill="#352969"/>
<path d="M1142.5 421.68H1025.5V469.68H1142.5V421.68Z" fill="#352969"/>
<path d="M656.5 421.68H365.5V469.68H656.5V421.68Z" fill="#352969"/>
<path d="M1013.5 421.68H668.5V469.68H1013.5V421.68Z" fill="#352969"/>
<path d="M1142.5 541.68H1025.5V589.68H1142.5V541.68Z" fill="#352969"/>
<path d="M656.5 541.68H365.5V589.68H656.5V541.68Z" fill="#352969"/>
<path d="M1013.5 541.68H668.5V589.68H1013.5V541.68Z" fill="#352969"/>
<path d="M1142.5 481.68H1025.5V529.68H1142.5V481.68Z" fill="#352969"/>
<path d="M1013.5 481.68H365.5V529.68H1013.5V481.68Z" fill="#352969"/>
<path d="M353.5 481.68H143.5V589.68H353.5V481.68Z" fill="#352969"/>
<path d="M146.124 47.68V25.344H160.492V29.088H150.348V34.496H159.18V38.24H150.348V47.68H146.124Z" fill="#343334"/>
<path d="M168.433 47.68C167.025 47.68 165.99 47.328 165.329 46.624C164.667 45.92 164.337 44.928 164.337 43.648V24H168.433V44.416H170.641V47.68H168.433Z" fill="#343334"/>
<path d="M180.495 48.064C179.258 48.064 178.148 47.8613 177.167 47.456C176.207 47.0293 175.386 46.4427 174.703 45.696C174.042 44.928 173.53 44.0107 173.167 42.944C172.804 41.856 172.623 40.64 172.623 39.296C172.623 37.9733 172.794 36.7787 173.135 35.712C173.498 34.6453 174.01 33.7387 174.671 32.992C175.332 32.224 176.143 31.6373 177.103 31.232C178.063 30.8053 179.151 30.592 180.367 30.592C181.668 30.592 182.799 30.816 183.759 31.264C184.719 31.712 185.508 32.32 186.127 33.088C186.746 33.856 187.204 34.752 187.503 35.776C187.823 36.7787 187.983 37.856 187.983 39.008V40.352H176.879V40.768C176.879 41.984 177.22 42.9653 177.903 43.712C178.586 44.4373 179.599 44.8 180.943 44.8C181.967 44.8 182.799 44.5867 183.439 44.16C184.1 43.7333 184.687 43.1893 185.199 42.528L187.407 44.992C186.724 45.952 185.786 46.7093 184.591 47.264C183.418 47.7973 182.052 48.064 180.495 48.064ZM180.431 33.664C179.343 33.664 178.479 34.0267 177.839 34.752C177.199 35.4773 176.879 36.416 176.879 37.568V37.824H183.727V37.536C183.727 36.384 183.439 35.456 182.863 34.752C182.308 34.0267 181.498 33.664 180.431 33.664Z" fill="#343334"/>
<path d="M189.358 47.68L195.054 39.2L189.486 30.976H194.158L197.614 36.512H197.742L201.166 30.976H205.518L199.854 39.264L205.55 47.68H200.878L197.358 41.92H197.23L193.71 47.68H189.358Z" fill="#343334"/>
<path d="M208.524 24H212.62V33.728H212.748C213.047 32.768 213.612 32.0107 214.444 31.456C215.276 30.88 216.247 30.592 217.356 30.592C219.49 30.592 221.111 31.3493 222.22 32.864C223.351 34.3573 223.916 36.5013 223.916 39.296C223.916 42.112 223.351 44.2773 222.22 45.792C221.111 47.3067 219.49 48.064 217.356 48.064C216.247 48.064 215.276 47.776 214.444 47.2C213.634 46.624 213.068 45.856 212.748 44.896H212.62V47.68H208.524V24ZM216.044 44.672C217.111 44.672 217.975 44.32 218.636 43.616C219.298 42.912 219.628 41.9627 219.628 40.768V37.888C219.628 36.6933 219.298 35.744 218.636 35.04C217.975 34.3147 217.111 33.952 216.044 33.952C215.063 33.952 214.242 34.1973 213.58 34.688C212.94 35.1787 212.62 35.8293 212.62 36.64V41.952C212.62 42.8267 212.94 43.4987 213.58 43.968C214.242 44.4373 215.063 44.672 216.044 44.672Z" fill="#343334"/>
<path d="M234.336 48.064C233.141 48.064 232.064 47.8613 231.104 47.456C230.165 47.0507 229.354 46.464 228.672 45.696C228.01 44.928 227.498 44.0107 227.136 42.944C226.773 41.856 226.592 40.64 226.592 39.296C226.592 37.952 226.773 36.7467 227.136 35.68C227.498 34.6133 228.01 33.7067 228.672 32.96C229.354 32.192 230.165 31.6053 231.104 31.2C232.064 30.7947 233.141 30.592 234.336 30.592C235.53 30.592 236.608 30.7947 237.568 31.2C238.528 31.6053 239.338 32.192 240 32.96C240.682 33.7067 241.205 34.6133 241.568 35.68C241.93 36.7467 242.112 37.952 242.112 39.296C242.112 40.64 241.93 41.856 241.568 42.944C241.205 44.0107 240.682 44.928 240 45.696C239.338 46.464 238.528 47.0507 237.568 47.456C236.608 47.8613 235.53 48.064 234.336 48.064ZM234.336 44.768C235.424 44.768 236.277 44.4373 236.896 43.776C237.514 43.1147 237.824 42.144 237.824 40.864V37.76C237.824 36.5013 237.514 35.5413 236.896 34.88C236.277 34.2187 235.424 33.888 234.336 33.888C233.269 33.888 232.426 34.2187 231.808 34.88C231.189 35.5413 230.88 36.5013 230.88 37.76V40.864C230.88 42.144 231.189 43.1147 231.808 43.776C232.426 44.4373 233.269 44.768 234.336 44.768Z" fill="#343334"/>
<path d="M243.514 47.68L249.21 39.2L243.642 30.976H248.314L251.77 36.512H251.898L255.322 30.976H259.674L254.01 39.264L259.706 47.68H255.034L251.514 41.92H251.386L247.866 47.68H243.514Z" fill="#343334"/>
<path d="M160.364 391.224H160.236C160.044 392.312 159.436 393.229 158.412 393.976C157.409 394.701 156.065 395.064 154.38 395.064C153.057 395.064 151.831 394.819 150.7 394.328C149.591 393.837 148.62 393.112 147.788 392.152C146.977 391.171 146.337 389.965 145.868 388.536C145.399 387.107 145.164 385.453 145.164 383.576C145.164 381.699 145.399 380.045 145.868 378.616C146.359 377.165 147.041 375.949 147.916 374.968C148.791 373.987 149.836 373.24 151.052 372.728C152.268 372.216 153.623 371.96 155.116 371.96C157.121 371.96 158.828 372.397 160.236 373.272C161.644 374.147 162.753 375.405 163.564 377.048L160.14 379.064C159.735 378.104 159.127 377.304 158.316 376.664C157.527 376.024 156.46 375.704 155.116 375.704C153.452 375.704 152.119 376.216 151.116 377.24C150.135 378.243 149.644 379.736 149.644 381.72V385.304C149.644 387.267 150.145 388.76 151.148 389.784C152.151 390.808 153.495 391.32 155.18 391.32C155.841 391.32 156.46 391.245 157.036 391.096C157.612 390.925 158.113 390.68 158.54 390.36C158.967 390.04 159.308 389.645 159.564 389.176C159.82 388.707 159.948 388.152 159.948 387.512V386.072H155.564V382.52H164.012V394.68H160.364V391.224Z" fill="#343334"/>
<path d="M168.649 394.68V377.976H172.745V381.432H172.905C173.012 380.984 173.172 380.557 173.385 380.152C173.62 379.725 173.919 379.352 174.281 379.032C174.644 378.712 175.071 378.456 175.561 378.264C176.073 378.072 176.66 377.976 177.321 377.976H178.217V381.848H176.937C175.551 381.848 174.505 382.051 173.801 382.456C173.097 382.861 172.745 383.523 172.745 384.44V394.68H168.649Z" fill="#343334"/>
<path d="M183.26 375.544C182.406 375.544 181.788 375.352 181.404 374.968C181.041 374.584 180.86 374.093 180.86 373.496V372.856C180.86 372.259 181.041 371.768 181.404 371.384C181.788 371 182.406 370.808 183.26 370.808C184.092 370.808 184.7 371 185.084 371.384C185.468 371.768 185.66 372.259 185.66 372.856V373.496C185.66 374.093 185.468 374.584 185.084 374.968C184.7 375.352 184.092 375.544 183.26 375.544ZM181.212 377.976H185.308V394.68H181.212V377.976Z" fill="#343334"/>
<path d="M200.424 391.896H200.264C199.965 392.856 199.4 393.624 198.568 394.2C197.736 394.776 196.765 395.064 195.656 395.064C193.544 395.064 191.922 394.307 190.792 392.792C189.682 391.277 189.127 389.112 189.127 386.296C189.127 383.501 189.682 381.357 190.792 379.864C191.922 378.349 193.544 377.592 195.656 377.592C196.765 377.592 197.736 377.88 198.568 378.456C199.4 379.011 199.965 379.768 200.264 380.728H200.424V371H204.52V394.68H200.424V391.896ZM196.967 391.672C197.949 391.672 198.77 391.437 199.431 390.968C200.093 390.499 200.424 389.827 200.424 388.952V383.64C200.424 382.829 200.093 382.179 199.431 381.688C198.77 381.197 197.949 380.952 196.967 380.952C195.901 380.952 195.037 381.315 194.375 382.04C193.735 382.744 193.416 383.693 193.416 384.888V387.768C193.416 388.963 193.735 389.912 194.375 390.616C195.037 391.32 195.901 391.672 196.967 391.672Z" fill="#343334"/>
</svg>
