<svg width="1559" height="697" viewBox="0 0 1559 697" fill="none" xmlns="http://www.w3.org/2000/svg">
<rect width="1559" height="697" fill="#F1FFF7"/>
<path d="M460 237C505.011 237 541.5 200.511 541.5 155.5C541.5 110.489 505.011 74 460 74C414.989 74 378.5 110.489 378.5 155.5C378.5 200.511 414.989 237 460 237Z" fill="#343334"/>
<path d="M653 237C698.011 237 734.5 200.511 734.5 155.5C734.5 110.489 698.011 74 653 74C607.989 74 571.5 110.489 571.5 155.5C571.5 200.511 607.989 237 653 237Z" fill="#343334"/>
<path d="M846 237C891.011 237 927.5 200.511 927.5 155.5C927.5 110.489 891.011 74 846 74C800.989 74 764.5 110.489 764.5 155.5C764.5 200.511 800.989 237 846 237Z" fill="#343334"/>
<path d="M460 430C505.011 430 541.5 393.511 541.5 348.5C541.5 303.489 505.011 267 460 267C414.989 267 378.5 303.489 378.5 348.5C378.5 393.511 414.989 430 460 430Z" fill="#343334"/>
<path d="M653 430C698.011 430 734.5 393.511 734.5 348.5C734.5 303.489 698.011 267 653 267C607.989 267 571.5 303.489 571.5 348.5C571.5 393.511 607.989 430 653 430Z" fill="#343334"/>
<path d="M846 430C891.011 430 927.5 393.511 927.5 348.5C927.5 303.489 891.011 267 846 267C800.989 267 764.5 303.489 764.5 348.5C764.5 393.511 800.989 430 846 430Z" fill="#343334"/>
<path d="M460 623C505.011 623 541.5 586.511 541.5 541.5C541.5 496.489 505.011 460 460 460C414.989 460 378.5 496.489 378.5 541.5C378.5 586.511 414.989 623 460 623Z" fill="#343334"/>
<path d="M653 623C698.011 623 734.5 586.511 734.5 541.5C734.5 496.489 698.011 460 653 460C607.989 460 571.5 496.489 571.5 541.5C571.5 586.511 607.989 623 653 623Z" fill="#343334"/>
<path d="M846 623C891.011 623 927.5 586.511 927.5 541.5C927.5 496.489 891.011 460 846 460C800.989 460 764.5 496.489 764.5 541.5C764.5 586.511 800.989 623 846 623Z" fill="#343334"/>
<path d="M1099 227C1144.01 227 1180.5 190.511 1180.5 145.5C1180.5 100.489 1144.01 64 1099 64C1053.99 64 1017.5 100.489 1017.5 145.5C1017.5 190.511 1053.99 227 1099 227Z" fill="#A6A5A6"/>
<path d="M1099 430C1144.01 430 1180.5 393.511 1180.5 348.5C1180.5 303.489 1144.01 267 1099 267C1053.99 267 1017.5 303.489 1017.5 348.5C1017.5 393.511 1053.99 430 1099 430Z" fill="#A6A5A6"/>
<path d="M1099 633C1144.01 633 1180.5 596.511 1180.5 551.5C1180.5 506.489 1144.01 470 1099 470C1053.99 470 1017.5 506.489 1017.5 551.5C1017.5 596.511 1053.99 633 1099 633Z" fill="#A6A5A6"/>
</svg>
