<svg width="1559" height="914" viewBox="0 0 1559 914" fill="none" xmlns="http://www.w3.org/2000/svg">
<g clip-path="url(#clip0_6_495)">
<rect width="1559" height="914" fill="#F1FFF7"/>
<mask id="mask0_6_495" style="mask-type:luminance" maskUnits="userSpaceOnUse" x="107" y="44" width="1345" height="1344">
<path d="M779.5 1368C1139.59 1368 1431.5 1076.09 1431.5 716C1431.5 355.91 1139.59 64 779.5 64C419.41 64 127.5 355.91 127.5 716C127.5 1076.09 419.41 1368 779.5 1368Z" stroke="#535A5A" stroke-width="40" stroke-dasharray="2 4"/>
</mask>
<g mask="url(#mask0_6_495)">
<path d="M1431.5 713.481C1431.49 712.81 1431.49 712.139 1431.48 711.468L1426.48 711.502C1426.47 709.837 1426.46 708.174 1426.43 706.512L1431.43 706.44C1431.42 705.77 1431.41 705.101 1431.4 704.432L1426.4 704.519C1426.37 702.858 1426.34 701.199 1426.29 699.542L1431.29 699.417C1431.28 698.749 1431.26 698.082 1431.24 697.414L1426.24 697.554C1426.2 695.898 1426.14 694.243 1426.08 692.59L1431.08 692.413C1431.06 691.747 1431.03 691.081 1431.01 690.415L1426.01 690.608C1425.95 688.956 1425.88 687.306 1425.8 685.657L1430.8 685.427C1430.77 684.762 1430.73 684.098 1430.7 683.434L1425.71 683.68C1425.63 682.019 1425.54 680.359 1425.44 678.701L1430.43 678.417C1430.4 677.748 1430.36 677.078 1430.32 676.409L1425.33 676.708C1425.23 675.048 1425.12 673.39 1425.01 671.733L1430 671.396C1429.95 670.728 1429.91 670.061 1429.86 669.393L1424.87 669.746C1424.76 668.09 1424.63 666.437 1424.5 664.785L1429.49 664.395C1429.44 663.729 1429.38 663.063 1429.33 662.398L1424.34 662.804C1424.21 661.153 1424.07 659.504 1423.92 657.857L1428.9 657.414C1428.84 656.75 1428.78 656.087 1428.72 655.423L1423.74 655.882C1423.59 654.237 1423.43 652.593 1423.27 650.951L1428.25 650.454C1428.18 649.79 1428.11 649.126 1428.04 648.462L1423.07 648.973C1422.9 647.317 1422.72 645.663 1422.54 644.011L1427.51 643.461C1427.44 642.795 1427.36 642.129 1427.29 641.463L1422.32 642.029C1422.13 640.378 1421.94 638.729 1421.74 637.082L1426.7 636.478C1426.62 635.815 1426.54 635.151 1426.45 634.488L1421.49 635.107C1421.29 633.461 1421.08 631.817 1420.86 630.176L1425.82 629.519C1425.73 628.857 1425.64 628.196 1425.55 627.535L1420.59 628.207C1420.37 626.567 1420.14 624.929 1419.91 623.292L1424.86 622.582C1424.76 621.923 1424.67 621.264 1424.57 620.605L1419.62 621.33C1419.38 619.693 1419.14 618.057 1418.89 616.424L1423.83 615.66C1423.72 614.998 1423.62 614.335 1423.52 613.673L1418.58 614.451C1418.32 612.809 1418.05 611.168 1417.78 609.529L1422.72 608.713C1422.61 608.052 1422.5 607.392 1422.38 606.732L1417.45 607.564C1417.18 605.927 1416.9 604.292 1416.61 602.66L1421.53 601.79C1421.41 601.132 1421.3 600.474 1421.18 599.816L1416.26 600.701C1415.96 599.07 1415.66 597.442 1415.36 595.815L1420.27 594.892C1420.15 594.236 1420.03 593.581 1419.9 592.926L1414.99 593.864C1414.85 593.151 1414.72 592.438 1414.58 591.725C1414.4 590.815 1414.22 589.905 1414.04 588.995L1418.94 588.019C1418.81 587.366 1418.68 586.713 1418.55 586.06L1413.65 587.052C1413.32 585.424 1412.99 583.799 1412.64 582.176L1417.54 581.147C1417.4 580.491 1417.26 579.836 1417.12 579.181L1412.23 580.225C1411.88 578.601 1411.53 576.978 1411.17 575.358L1416.05 574.276C1415.91 573.623 1415.76 572.97 1415.62 572.318L1410.74 573.415C1410.37 571.796 1410 570.18 1409.63 568.567L1414.5 567.432C1414.35 566.781 1414.19 566.131 1414.04 565.481L1409.17 566.631C1408.95 565.702 1408.73 564.773 1408.51 563.845C1408.34 563.164 1408.18 562.483 1408.01 561.803L1412.87 560.615C1412.71 559.967 1412.55 559.32 1412.39 558.673L1407.54 559.875C1407.14 558.27 1406.74 556.667 1406.33 555.066L1411.17 553.826C1411.01 553.179 1410.84 552.531 1410.67 551.884L1405.83 553.139C1405.41 551.53 1404.99 549.924 1404.56 548.319L1409.39 547.027C1409.22 546.38 1409.04 545.734 1408.87 545.088L1404.04 546.396C1403.61 544.793 1403.17 543.194 1402.72 541.596L1407.54 540.252C1407.36 539.608 1407.18 538.964 1407 538.321L1402.19 539.681C1401.73 538.086 1401.28 536.493 1400.81 534.903L1405.62 533.506C1405.43 532.865 1405.24 532.224 1405.05 531.584L1400.26 532.996C1399.79 531.408 1399.32 529.822 1398.84 528.239L1403.62 526.79C1403.43 526.152 1403.23 525.514 1403.04 524.877L1398.26 526.34C1397.77 524.756 1397.28 523.173 1396.79 521.594L1401.55 520.093C1401.35 519.454 1401.15 518.816 1400.95 518.178L1396.18 519.693C1395.68 518.111 1395.17 516.531 1394.66 514.953L1399.41 513.401C1399.2 512.765 1398.99 512.13 1398.78 511.495L1394.04 513.062C1393.52 511.486 1392.99 509.914 1392.46 508.344L1397.19 506.74C1396.98 506.107 1396.76 505.475 1396.55 504.843L1391.82 506.462C1391.28 504.894 1390.74 503.329 1390.19 501.767L1394.91 500.112C1394.69 499.482 1394.47 498.853 1394.24 498.224L1389.53 499.893C1389.22 499.017 1388.91 498.142 1388.59 497.267C1388.35 496.585 1388.1 495.903 1387.85 495.222L1392.55 493.516C1392.33 492.889 1392.1 492.262 1391.87 491.636L1387.17 493.357C1386.6 491.797 1386.03 490.24 1385.44 488.686L1390.12 486.929C1389.89 486.302 1389.65 485.676 1389.42 485.051L1384.74 486.822C1384.35 485.782 1383.95 484.744 1383.55 483.706C1383.35 483.196 1383.16 482.685 1382.96 482.175L1387.62 480.367C1387.38 479.744 1387.14 479.121 1386.89 478.499L1382.24 480.321C1381.63 478.777 1381.02 477.236 1380.41 475.698L1385.05 473.84C1384.8 473.22 1384.55 472.6 1384.3 471.981L1379.66 473.854C1379.04 472.318 1378.42 470.785 1377.79 469.255L1382.41 467.347C1382.15 466.73 1381.9 466.114 1381.64 465.498L1377.03 467.421C1376.39 465.892 1375.75 464.365 1375.1 462.842L1379.7 460.884C1379.44 460.268 1379.17 459.653 1378.91 459.038L1374.32 461.01C1373.66 459.484 1373 457.962 1372.33 456.443L1376.91 454.435C1376.64 453.822 1376.38 453.21 1376.1 452.599L1371.53 454.621C1370.86 453.104 1370.18 451.59 1369.5 450.079L1374.06 448.022C1373.78 447.413 1373.51 446.805 1373.23 446.197L1368.68 448.268C1368 446.76 1367.3 445.254 1366.61 443.752L1371.14 441.646C1370.86 441.04 1370.58 440.436 1370.29 439.831L1365.77 441.951C1365.06 440.452 1364.36 438.955 1363.64 437.462L1368.15 435.307C1367.87 434.705 1367.58 434.103 1367.29 433.503L1362.78 435.672C1362.06 434.176 1361.34 432.683 1360.61 431.194L1365.09 428.99C1364.8 428.39 1364.5 427.79 1364.21 427.191L1359.73 429.408C1358.99 427.921 1358.25 426.438 1357.5 424.957L1361.97 422.705C1361.66 422.108 1361.36 421.512 1361.06 420.916L1356.6 423.182C1355.85 421.704 1355.09 420.23 1354.33 418.759L1358.77 416.458C1358.46 415.865 1358.16 415.273 1357.85 414.681L1353.41 416.995C1352.65 415.526 1351.88 414.061 1351.1 412.599L1355.51 410.251C1355.2 409.661 1354.88 409.073 1354.57 408.484L1350.16 410.846C1349.38 409.386 1348.59 407.929 1347.8 406.475L1352.19 404.079C1351.87 403.492 1351.55 402.906 1351.22 402.32L1346.84 404.729C1346.04 403.275 1345.24 401.824 1344.43 400.377L1348.79 397.934C1348.46 397.351 1348.14 396.768 1347.81 396.186L1343.45 398.642C1342.64 397.197 1341.82 395.756 1340.99 394.319L1345.33 391.829C1345 391.25 1344.66 390.671 1344.33 390.093L1340 392.595C1339.17 391.161 1338.33 389.729 1337.49 388.302L1341.8 385.766C1341.46 385.19 1341.12 384.615 1340.78 384.041L1336.48 386.59C1335.64 385.165 1334.79 383.744 1333.93 382.326L1338.22 379.743C1337.87 379.172 1337.52 378.601 1337.18 378.031L1332.9 380.626C1332.04 379.208 1331.18 377.793 1330.31 376.382L1334.56 373.754C1334.21 373.185 1333.85 372.617 1333.5 372.049L1329.26 374.691C1328.38 373.282 1327.5 371.878 1326.61 370.477L1330.84 367.803C1330.48 367.238 1330.12 366.674 1329.76 366.11L1325.55 368.797C1324.65 367.399 1323.76 366.005 1322.86 364.614L1327.05 361.895C1326.69 361.334 1326.33 360.774 1325.96 360.215L1321.77 362.947C1320.87 361.559 1319.96 360.175 1319.04 358.794L1323.21 356.03C1322.84 355.474 1322.47 354.918 1322.1 354.363L1317.94 357.14C1317.02 355.762 1316.09 354.387 1315.16 353.016L1319.3 350.208C1318.92 349.655 1318.55 349.102 1318.17 348.55L1314.04 351.371C1313.11 350.002 1312.17 348.636 1311.22 347.275L1315.33 344.422C1314.94 343.873 1314.56 343.324 1314.18 342.777L1310.08 345.642C1309.13 344.284 1308.18 342.929 1307.22 341.578L1311.29 338.681C1310.9 338.136 1310.52 337.592 1310.13 337.049L1306.06 339.958C1305.1 338.61 1304.13 337.266 1303.15 335.926L1307.2 332.985C1306.8 332.445 1306.41 331.906 1306.02 331.367L1301.98 334.319C1301 332.982 1300.02 331.649 1299.03 330.32L1303.04 327.336C1302.64 326.8 1302.25 326.265 1301.85 325.73L1297.84 328.726C1296.85 327.398 1295.85 326.074 1294.85 324.754L1298.83 321.728C1298.42 321.196 1298.02 320.664 1297.61 320.133L1293.64 323.172C1292.63 321.855 1291.62 320.542 1290.6 319.233L1294.55 316.165C1294.14 315.637 1293.73 315.11 1293.32 314.584L1289.38 317.665C1288.36 316.359 1287.33 315.058 1286.3 313.76L1290.21 310.649C1289.8 310.126 1289.38 309.604 1288.96 309.082L1285.06 312.205C1284.02 310.911 1282.98 309.62 1281.94 308.334L1285.82 305.182C1285.4 304.663 1284.98 304.145 1284.55 303.628L1280.68 306.793C1279.63 305.509 1278.58 304.23 1277.52 302.955L1281.37 299.761C1280.94 299.247 1280.51 298.733 1280.08 298.221L1276.25 301.426C1275.18 300.154 1274.12 298.886 1273.04 297.621L1276.86 294.386C1276.42 293.877 1275.99 293.368 1275.56 292.86L1271.75 296.106C1270.68 294.846 1269.6 293.589 1268.51 292.337L1272.29 289.061C1271.85 288.556 1271.41 288.052 1270.97 287.549L1267.21 290.836C1266.12 289.587 1265.02 288.342 1263.92 287.102L1267.66 283.786C1267.22 283.286 1266.78 282.786 1266.33 282.288L1262.6 285.615C1261.5 284.378 1260.39 283.145 1259.28 281.917L1262.98 278.561C1262.54 278.066 1262.09 277.571 1261.64 277.077L1257.94 280.444C1256.82 279.218 1255.7 277.997 1254.58 276.78L1258.25 273.385C1257.79 272.894 1257.34 272.405 1256.88 271.915L1253.22 275.322C1252.1 274.108 1250.96 272.899 1249.82 271.694L1253.46 268.26C1253 267.774 1252.54 267.29 1252.08 266.805L1248.45 270.251C1247.31 269.049 1246.17 267.852 1245.01 266.66L1248.61 263.187C1248.15 262.706 1247.68 262.226 1247.22 261.747L1243.63 265.231C1242.48 264.042 1241.32 262.857 1240.15 261.677L1243.71 258.166C1243.24 257.69 1242.77 257.215 1242.3 256.741L1238.75 260.263C1237.59 259.087 1236.41 257.915 1235.24 256.747L1238.76 253.198C1238.28 252.727 1237.81 252.258 1237.33 251.788L1233.82 255.348C1232.64 254.184 1231.46 253.025 1230.27 251.87L1233.75 248.283C1233.27 247.818 1232.79 247.353 1232.31 246.889L1228.84 250.486C1227.65 249.335 1226.45 248.188 1225.25 247.046L1228.69 243.422C1228.21 242.962 1227.73 242.502 1227.24 242.043L1223.81 245.677C1222.6 244.538 1221.39 243.404 1220.18 242.275L1223.58 238.615C1223.1 238.16 1222.61 237.705 1222.11 237.251L1218.72 240.922C1217.5 239.796 1216.28 238.675 1215.06 237.559L1218.42 233.862C1217.93 233.413 1217.43 232.963 1216.94 232.515L1213.58 236.222C1212.35 235.109 1211.12 234.002 1209.88 232.899L1213.21 229.167C1212.71 228.722 1212.21 228.278 1211.71 227.835L1208.4 231.578C1207.16 230.479 1205.91 229.384 1204.66 228.294L1207.95 224.527C1207.45 224.088 1206.94 223.649 1206.44 223.211L1203.16 226.989C1201.91 225.903 1200.65 224.822 1199.39 223.745L1202.64 219.943C1202.13 219.509 1201.62 219.076 1201.11 218.643L1197.88 222.456C1196.61 221.383 1195.35 220.315 1194.07 219.252L1197.28 215.415C1196.77 214.987 1196.25 214.559 1195.74 214.132L1192.54 217.979C1191.27 216.92 1189.99 215.866 1188.71 214.817L1191.87 210.946C1191.35 210.523 1190.84 210.101 1190.32 209.68L1187.17 213.561C1185.88 212.516 1184.59 211.476 1183.29 210.441L1186.42 206.536C1185.9 206.119 1185.37 205.702 1184.85 205.287L1181.74 209.201C1180.44 208.17 1179.14 207.143 1177.84 206.122L1180.92 202.184C1180.39 201.772 1179.86 201.361 1179.34 200.951L1176.27 204.899C1174.96 203.881 1173.64 202.869 1172.33 201.861L1175.37 197.89C1174.84 197.484 1174.3 197.079 1173.77 196.674L1170.75 200.654C1169.43 199.65 1168.1 198.652 1166.77 197.658L1169.77 193.655C1169.23 193.255 1168.7 192.855 1168.16 192.457L1165.18 196.469C1163.85 195.481 1162.52 194.497 1161.18 193.519L1164.13 189.484C1163.59 189.089 1163.05 188.696 1162.51 188.303L1159.57 192.347C1158.23 191.372 1156.89 190.403 1155.54 189.439L1158.45 185.372C1157.91 184.983 1157.36 184.595 1156.82 184.208L1153.92 188.284C1152.57 187.323 1151.22 186.368 1149.86 185.418L1152.72 181.32C1152.18 180.937 1151.63 180.555 1151.08 180.174L1148.23 184.28C1146.86 183.334 1145.5 182.393 1144.13 181.457L1146.95 177.329C1146.4 176.952 1145.85 176.575 1145.29 176.2L1142.48 180.336C1141.11 179.406 1139.74 178.48 1138.36 177.56L1141.14 173.402C1140.58 173.031 1140.03 172.661 1139.47 172.292L1136.71 176.458C1135.32 175.543 1133.94 174.632 1132.55 173.727L1135.28 169.539C1134.73 169.174 1134.17 168.81 1133.6 168.447L1130.89 172.643C1129.5 171.741 1128.1 170.845 1126.7 169.954L1129.39 165.738C1128.83 165.379 1128.26 165.02 1127.7 164.663L1125.02 168.888C1123.62 168.001 1122.22 167.12 1120.81 166.244L1123.45 161.998C1122.88 161.645 1122.31 161.293 1121.75 160.941L1119.12 165.195C1117.71 164.323 1116.29 163.456 1114.87 162.595L1117.47 158.321C1116.9 157.975 1116.33 157.629 1115.76 157.285L1113.17 161.566C1111.76 160.711 1110.33 159.861 1108.91 159.017L1111.46 154.715C1110.88 154.375 1110.31 154.035 1109.73 153.697L1107.2 158.006C1105.77 157.165 1104.34 156.33 1102.9 155.501L1105.41 151.172C1104.83 150.838 1104.25 150.504 1103.67 150.172L1101.18 154.508C1099.74 153.682 1098.3 152.862 1096.86 152.048L1099.31 147.693C1098.73 147.364 1098.15 147.037 1097.57 146.71L1095.12 151.073C1093.68 150.263 1092.23 149.458 1090.77 148.658L1093.18 144.277C1092.59 143.955 1092.01 143.633 1091.42 143.313L1089.02 147.702C1087.57 146.908 1086.11 146.12 1084.65 145.338L1087.02 140.93C1086.43 140.615 1085.84 140.301 1085.25 139.987L1082.9 144.402C1081.44 143.624 1079.97 142.852 1078.51 142.085L1080.82 137.653C1080.23 137.344 1079.63 137.036 1079.04 136.728L1076.74 141.168C1075.27 140.405 1073.8 139.649 1072.32 138.897L1074.58 134.44C1073.99 134.137 1073.39 133.835 1072.79 133.534L1070.54 137.998C1069.06 137.251 1067.58 136.51 1066.09 135.774L1068.31 131.293C1067.71 130.996 1067.11 130.701 1066.51 130.406L1064.31 134.894C1062.82 134.162 1061.32 133.437 1059.83 132.717L1062 128.212C1061.4 127.922 1060.79 127.634 1060.19 127.346L1058.04 131.858C1056.54 131.145 1055.05 130.437 1053.55 129.735L1055.67 125.206C1055.06 124.923 1054.46 124.641 1053.85 124.36L1051.75 128.895C1050.25 128.197 1048.74 127.505 1047.23 126.818L1049.3 122.268C1048.7 121.991 1048.09 121.715 1047.48 121.44L1045.42 125.997C1043.91 125.315 1042.4 124.639 1040.88 123.968L1042.9 119.395C1042.29 119.125 1041.68 118.855 1041.06 118.587L1039.06 123.166C1037.54 122.5 1036.02 121.839 1034.49 121.185L1036.46 116.59C1035.85 116.326 1035.23 116.063 1034.62 115.801L1032.66 120.402C1031.13 119.753 1029.61 119.111 1028.08 118.474L1030 113.858C1029.39 113.601 1028.77 113.346 1028.15 113.091L1026.24 117.713C1024.71 117.081 1023.18 116.455 1021.65 115.835L1023.52 111.199C1022.9 110.949 1022.28 110.7 1021.66 110.452L1019.8 115.094C1018.26 114.478 1016.72 113.868 1015.18 113.264L1017 108.608C1016.38 108.364 1015.76 108.122 1015.13 107.88L1013.32 112.542C1011.78 111.942 1010.23 111.348 1008.68 110.76L1010.45 106.085C1009.82 105.848 1009.2 105.612 1008.57 105.377L1006.81 110.058C1005.26 109.474 1003.7 108.897 1002.14 108.325L1003.86 103.631C1003.24 103.401 1002.61 103.173 1001.98 102.945L1000.28 107.645C998.723 107.081 997.166 106.522 995.606 105.97L997.276 101.257C996.647 101.034 996.018 100.812 995.388 100.591L993.733 105.309C992.171 104.761 990.606 104.219 989.038 103.683L990.656 98.9519C990.025 98.7357 989.392 98.5204 988.759 98.3061L987.155 103.042C985.586 102.51 984.013 101.984 982.438 101.465L984.005 96.7165C983.37 96.5069 982.734 96.2983 982.099 96.0906L980.546 100.844C978.969 100.328 977.389 99.8191 975.806 99.3157L977.322 94.5509C976.684 94.348 976.045 94.146 975.406 93.945L973.906 98.7145C972.326 98.2176 970.744 97.7265 969.159 97.2413L970.623 92.4603C969.986 92.2652 969.348 92.071 968.71 91.8778L967.261 96.6633C965.678 96.184 964.092 95.7106 962.504 95.2432L963.916 90.4466C963.275 90.2582 962.635 90.0707 961.994 89.8842L960.597 94.6851C959.007 94.2224 957.414 93.7656 955.819 93.3148L957.178 88.5032C956.535 88.3215 955.892 88.1407 955.248 87.9609L953.903 92.7767C952.306 92.3307 950.706 91.8906 949.104 91.4566L950.411 86.6305C949.766 86.4555 949.119 86.2815 948.472 86.1085L947.18 90.9386C945.576 90.5093 943.969 90.0861 942.36 89.6689L943.615 84.8289C942.968 84.6612 942.321 84.4944 941.673 84.3286L940.433 89.1724C938.833 88.7627 937.23 88.359 935.624 87.9612L936.827 83.108C936.18 82.9477 935.532 82.7883 934.884 82.6299L933.697 87.4868C932.09 87.0939 930.48 86.707 928.868 86.3261L930.018 81.4601C929.368 81.3065 928.718 81.1539 928.068 81.0023L926.933 85.8719C925.319 85.4958 923.703 85.1257 922.085 84.7618L923.182 79.8836C922.529 79.7369 921.877 79.5912 921.224 79.4464L920.142 84.3279C918.521 83.9688 916.899 83.6157 915.274 83.2688L916.318 78.379C915.663 78.2392 915.008 78.1003 914.352 77.9624L913.323 82.8554C911.701 82.5141 910.075 82.1789 908.448 81.8497L909.439 76.949C908.786 76.817 908.133 76.686 907.48 76.556L906.504 81.4598C904.883 81.1372 903.261 80.8207 901.636 80.5103L902.574 75.5991C901.919 75.4739 901.263 75.3498 900.608 75.2266L899.685 80.1407C898.058 79.8351 896.429 79.5356 894.798 79.2423L895.683 74.3212C895.026 74.203 894.368 74.0857 893.71 73.9694L892.84 78.8932C891.207 78.6047 889.572 78.3224 887.935 78.0462L888.767 73.1159C888.107 73.0045 887.447 72.8942 886.787 72.7848L885.97 77.7177C884.331 77.4464 882.691 77.1813 881.048 76.9223L881.827 71.9833C881.164 71.8789 880.502 71.7756 879.839 71.6732L879.076 76.6146C877.442 76.3623 875.807 76.1161 874.169 75.876L874.895 70.9289C874.236 70.8323 873.577 70.7367 872.917 70.6421L872.207 75.5914C870.571 75.3567 868.933 75.128 867.293 74.9056L867.965 69.9509C867.304 69.8613 866.642 69.7726 865.98 69.6849L865.324 74.6415C863.682 74.424 862.038 74.2126 860.393 74.0074L861.012 69.0458C860.348 68.9631 859.685 68.8814 859.021 68.8006L858.417 73.7641C856.77 73.5638 855.121 73.3697 853.471 73.1818L854.036 68.2139C853.37 68.1382 852.705 68.0634 852.039 67.9897L851.489 72.9594C849.836 72.7765 848.182 72.5998 846.526 72.4293L847.038 67.4556C846.374 67.3873 845.709 67.3199 845.045 67.2536L844.548 72.2289C842.906 72.065 841.263 71.9072 839.617 71.7556L840.076 66.7767C839.413 66.7156 838.749 66.6555 838.085 66.5964L837.642 71.5767C835.995 71.43 834.346 71.2895 832.696 71.1552L833.101 66.1717C832.436 66.1176 831.771 66.0644 831.105 66.0123L830.714 70.997C829.063 70.8677 827.409 70.7446 825.754 70.6277L826.106 65.6401C825.439 65.593 824.771 65.5468 824.103 65.5017L823.766 70.4903C822.11 70.3784 820.451 70.2727 818.791 70.1733L819.09 65.1822C818.421 65.1422 817.752 65.1031 817.082 65.065L816.798 70.057C815.14 69.9628 813.481 69.8748 811.819 69.7931L812.065 64.7991C811.401 64.7664 810.737 64.7348 810.072 64.7041L809.842 69.6988C808.193 69.6227 806.543 69.5528 804.892 69.489L805.084 64.4928C804.419 64.4671 803.753 64.4424 803.087 64.4187L802.909 69.4155C801.256 69.3568 799.601 69.3042 797.945 69.2578L798.085 64.2598C797.418 64.2411 796.75 64.2234 796.082 64.2067L795.957 69.2052C794.3 69.1638 792.641 69.1287 790.98 69.0998L791.067 64.1005C790.398 64.0889 789.729 64.0783 789.059 64.0686L788.987 69.0681C787.326 69.0443 785.662 69.0266 783.998 69.0153L784.032 64.0154C783.361 64.0109 782.69 64.0073 782.018 64.0048L781.999 69.0047C781.167 69.0016 780.333 69 779.5 69C778.666 69 777.833 69.0016 777 69.0047L776.981 64.0048C776.31 64.0073 775.638 64.0109 774.968 64.0154L775.002 69.0153C773.337 69.0266 771.674 69.0443 770.012 69.0681L769.94 64.0687C769.271 64.0783 768.601 64.0889 767.932 64.1006L768.019 69.0998C766.358 69.1287 764.699 69.1638 763.042 69.2052L762.917 64.2068C762.249 64.2234 761.582 64.2411 760.914 64.2598L761.054 69.2579C759.398 69.3042 757.743 69.3568 756.09 69.4156L755.913 64.4187C755.247 64.4424 754.581 64.4671 753.915 64.4928L754.108 69.4891C752.456 69.5528 750.806 69.6227 749.157 69.6988L748.927 64.7041C748.262 64.7348 747.598 64.7665 746.934 64.7991L747.18 69.7931C745.519 69.8748 743.859 69.9628 742.201 70.057L741.917 65.0651C741.248 65.1031 740.578 65.1422 739.909 65.1823L740.208 70.1733C738.548 70.2728 736.89 70.3785 735.233 70.4904L734.896 65.5018C734.228 65.5469 733.561 65.593 732.893 65.6401L733.246 70.6277C731.59 70.7446 729.937 70.8678 728.285 70.9971L727.895 66.0124C727.229 66.0645 726.563 66.1176 725.898 66.1718L726.304 71.1553C724.653 71.2896 723.004 71.4301 721.357 71.5767L720.914 66.5965C720.25 66.6556 719.587 66.7157 718.923 66.7768L719.382 71.7557C717.737 71.9073 716.093 72.0651 714.451 72.2289L713.954 67.2537C713.29 67.32 712.626 67.3873 711.962 67.4557L712.473 72.4294C710.817 72.5998 709.163 72.7765 707.511 72.9594L706.961 67.9898C706.295 68.0635 705.629 68.1382 704.963 68.214L705.529 73.1819C703.878 73.3698 702.229 73.5639 700.582 73.7641L699.978 68.8007C699.315 68.8814 698.651 68.9632 697.988 69.0459L698.607 74.0074C696.961 74.2127 695.317 74.4241 693.676 74.6416L693.019 69.685C692.357 69.7727 691.696 69.8613 691.035 69.951L691.707 74.9056C690.067 75.1281 688.429 75.3567 686.792 75.5915L686.082 70.6422C685.423 70.7368 684.764 70.8324 684.105 70.929L684.83 75.8761C683.193 76.1162 681.557 76.3624 679.924 76.6147L679.16 71.6733C678.498 71.7757 677.835 71.879 677.173 71.9834L677.951 76.9224C676.309 77.1814 674.668 77.4465 673.029 77.7178L672.213 72.7849C671.552 72.8943 670.892 73.0046 670.232 73.116L671.064 78.0463C669.427 78.3225 667.792 78.6048 666.16 78.8933L665.29 73.9695C664.632 74.0858 663.974 74.2031 663.316 74.3213L664.201 79.2424C662.57 79.5357 660.942 79.8352 659.315 80.1408L658.392 75.2267C657.736 75.3499 657.081 75.4741 656.426 75.5992L657.364 80.5104C655.739 80.8208 654.116 81.1373 652.495 81.4599L651.519 76.5561C650.866 76.6861 650.213 76.8171 649.56 76.9491L650.552 81.8499C648.924 82.179 647.299 82.5142 645.676 82.8555L644.647 77.9625C643.991 78.1004 643.336 78.2393 642.681 78.3792L643.725 83.2689C642.101 83.6159 640.478 83.9689 638.858 84.328L637.776 79.4465C637.123 79.5913 636.47 79.737 635.818 79.8837L636.915 84.7619C635.296 85.1259 633.68 85.4959 632.067 85.872L630.932 81.0025C630.281 81.1541 629.631 81.3067 628.981 81.4602L630.131 86.3262C628.519 86.7071 626.91 87.094 625.303 87.487L624.115 82.63C623.467 82.7884 622.82 82.9478 622.173 83.1081L623.375 87.9614C621.77 88.3591 620.167 88.7628 618.566 89.1725L617.326 84.3287C616.679 84.4945 616.031 84.6613 615.384 84.829L616.639 89.669C615.03 90.0862 613.424 90.5094 611.819 90.9387L610.527 86.1086C609.88 86.2817 609.234 86.4557 608.588 86.6306L609.896 91.4567C608.293 91.8907 606.694 92.3308 605.096 92.7768L603.752 87.9611C603.108 88.1409 602.464 88.3216 601.821 88.5034L603.181 93.3149C601.586 93.7657 599.993 94.2225 598.403 94.6852L597.006 89.8843C596.365 90.0708 595.724 90.2583 595.084 90.4468L596.496 95.2433C594.908 95.7108 593.322 96.1842 591.739 96.6635L590.29 91.878C589.652 92.0712 589.014 92.2653 588.377 92.4605L589.84 97.2414C588.256 97.7266 586.673 98.2177 585.094 98.7147L583.593 93.9452C582.954 94.1462 582.316 94.3481 581.678 94.551L583.193 99.3159C581.611 99.8192 580.031 100.329 578.453 100.844L576.901 96.0908C576.265 96.2984 575.63 96.5071 574.995 96.7166L576.562 101.465C574.986 101.985 573.414 102.51 571.844 103.042L570.24 98.3063C569.607 98.5206 568.975 98.7358 568.343 98.952L569.962 103.683C568.394 104.219 566.829 104.761 565.267 105.309L563.612 100.591C562.982 100.812 562.353 101.034 561.724 101.257L563.393 105.97C561.833 106.522 560.276 107.081 558.722 107.645L557.016 102.945C556.389 103.173 555.762 103.401 555.136 103.631L556.857 108.325C555.297 108.897 553.74 109.475 552.186 110.058L550.429 105.377C549.802 105.612 549.176 105.848 548.551 106.085L550.322 110.761C548.77 111.349 547.221 111.942 545.675 112.542L543.867 107.88C543.244 108.122 542.621 108.364 541.999 108.608L543.821 113.264C542.277 113.868 540.736 114.478 539.198 115.094L537.34 110.452C536.72 110.7 536.1 110.949 535.481 111.199L537.354 115.835C535.818 116.455 534.285 117.081 532.755 117.713L530.847 113.091C530.23 113.346 529.614 113.602 528.998 113.858L530.921 118.474C529.392 119.111 527.865 119.753 526.342 120.402L524.384 115.801C523.768 116.063 523.153 116.326 522.538 116.59L524.51 121.185C522.984 121.839 521.462 122.5 519.943 123.166L517.935 118.587C517.322 118.856 516.71 119.125 516.099 119.395L518.121 123.968C516.604 124.639 515.09 125.315 513.579 125.997L511.522 121.44C510.913 121.715 510.305 121.991 509.697 122.268L511.768 126.818C510.26 127.505 508.754 128.197 507.252 128.895L505.146 124.36C504.54 124.641 503.935 124.923 503.331 125.207L505.451 129.735C503.952 130.437 502.455 131.145 500.962 131.858L498.807 127.346C498.205 127.634 497.603 127.922 497.003 128.212L499.172 132.717C497.676 133.437 496.183 134.163 494.694 134.894L492.49 130.406C491.89 130.701 491.29 130.996 490.691 131.293L492.908 135.774C491.421 136.51 489.938 137.252 488.457 137.998L486.205 133.534C485.608 133.836 485.012 134.138 484.416 134.44L486.682 138.897C485.204 139.649 483.73 140.406 482.259 141.168L479.958 136.728C479.365 137.036 478.773 137.344 478.181 137.653L480.495 142.085C479.026 142.852 477.561 143.624 476.099 144.402L473.751 139.988C473.161 140.301 472.573 140.615 471.984 140.931L474.346 145.338C472.886 146.12 471.429 146.908 469.975 147.702L467.579 143.313C466.992 143.633 466.406 143.955 465.82 144.277L468.229 148.658C466.775 149.458 465.324 150.263 463.877 151.073L461.434 146.71C460.851 147.037 460.268 147.364 459.686 147.693L462.142 152.048C460.697 152.863 459.256 153.683 457.819 154.508L455.329 150.172C454.75 150.504 454.171 150.838 453.593 151.172L456.095 155.501C454.661 156.331 453.229 157.166 451.802 158.006L449.266 153.697C448.69 154.036 448.115 154.375 447.541 154.716L450.09 159.017C448.665 159.861 447.244 160.711 445.826 161.566L443.243 157.285C442.672 157.63 442.101 157.975 441.531 158.322L444.126 162.595C442.708 163.456 441.293 164.323 439.882 165.195L437.254 160.941C436.685 161.293 436.117 161.645 435.549 161.998L438.191 166.244C436.782 167.12 435.378 168.001 433.977 168.888L431.303 164.663C430.738 165.021 430.174 165.379 429.61 165.738L432.297 169.955C430.899 170.845 429.505 171.742 428.114 172.643L425.395 168.447C424.834 168.81 424.274 169.174 423.715 169.539L426.447 173.727C425.059 174.632 423.675 175.543 422.294 176.459L419.53 172.292C418.974 172.661 418.418 173.031 417.863 173.402L420.64 177.56C419.262 178.48 417.887 179.406 416.516 180.336L413.708 176.2C413.155 176.575 412.602 176.952 412.05 177.329L414.871 181.457C413.502 182.393 412.136 183.334 410.775 184.28L407.922 180.174C407.373 180.555 406.825 180.938 406.277 181.321L409.142 185.418C407.784 186.368 406.429 187.324 405.078 188.284L402.181 184.208C401.636 184.596 401.092 184.984 400.549 185.372L403.458 189.439C402.11 190.403 400.766 191.373 399.426 192.347L396.485 188.303C395.945 188.696 395.406 189.089 394.867 189.484L397.819 193.519C396.482 194.497 395.149 195.481 393.82 196.469L390.836 192.457C390.3 192.855 389.765 193.255 389.23 193.655L392.226 197.658C390.898 198.652 389.574 199.65 388.254 200.654L385.228 196.674C384.696 197.079 384.164 197.484 383.633 197.89L386.672 201.861C385.355 202.869 384.042 203.881 382.733 204.899L379.665 200.951C379.137 201.362 378.61 201.772 378.084 202.184L381.165 206.122C379.859 207.144 378.558 208.17 377.26 209.201L374.149 205.287C373.626 205.703 373.104 206.119 372.582 206.536L375.705 210.441C374.411 211.476 373.12 212.516 371.834 213.561L368.682 209.68C368.163 210.101 367.645 210.523 367.128 210.946L370.293 214.817C369.009 215.866 367.73 216.92 366.455 217.979L363.261 214.132C362.747 214.559 362.233 214.987 361.72 215.415L364.926 219.252C363.654 220.315 362.386 221.383 361.121 222.456L357.886 218.643C357.377 219.076 356.868 219.509 356.36 219.943L359.606 223.745C358.346 224.822 357.089 225.903 355.837 226.989L352.561 223.211C352.056 223.649 351.552 224.088 351.049 224.527L354.336 228.294C353.087 229.384 351.842 230.479 350.602 231.578L347.286 227.836C346.786 228.279 346.286 228.722 345.788 229.167L349.115 232.899C347.878 234.002 346.645 235.11 345.417 236.222L342.061 232.515C341.566 232.964 341.071 233.413 340.577 233.863L343.944 237.559C342.718 238.675 341.497 239.796 340.28 240.922L336.885 237.252C336.394 237.705 335.905 238.16 335.415 238.615L338.822 242.275C337.608 243.405 336.399 244.539 335.194 245.677L331.76 242.043C331.274 242.502 330.789 242.962 330.305 243.422L333.751 247.046C332.549 248.188 331.352 249.335 330.16 250.486L326.687 246.889C326.206 247.353 325.726 247.818 325.247 248.283L328.731 251.87C327.542 253.025 326.357 254.184 325.177 255.348L321.666 251.789C321.19 252.258 320.715 252.728 320.241 253.198L323.763 256.747C322.587 257.915 321.415 259.087 320.247 260.263L316.698 256.741C316.227 257.216 315.758 257.691 315.288 258.166L318.848 261.677C317.684 262.858 316.525 264.042 315.37 265.231L311.783 261.747C311.318 262.227 310.853 262.706 310.389 263.187L313.986 266.66C312.835 267.853 311.688 269.049 310.546 270.251L306.922 266.805C306.462 267.29 306.002 267.775 305.543 268.26L309.177 271.694C308.038 272.899 306.904 274.108 305.775 275.322L302.115 271.916C301.66 272.405 301.205 272.895 300.751 273.385L304.422 276.78C303.296 277.997 302.175 279.219 301.059 280.444L297.362 277.077C296.913 277.571 296.463 278.066 296.015 278.561L299.722 281.917C298.609 283.145 297.502 284.378 296.399 285.615L292.667 282.288C292.222 282.787 291.778 283.286 291.335 283.786L295.078 287.102C293.979 288.342 292.884 289.587 291.794 290.836L288.027 287.549C287.588 288.052 287.149 288.557 286.711 289.061L290.489 292.337C289.403 293.589 288.322 294.846 287.245 296.107L283.443 292.86C283.009 293.368 282.576 293.877 282.143 294.387L285.956 297.622C284.883 298.886 283.815 300.154 282.752 301.426L278.915 298.221C278.487 298.734 278.059 299.247 277.632 299.761L281.479 302.955C280.42 304.23 279.366 305.51 278.317 306.793L274.446 303.628C274.023 304.146 273.601 304.663 273.18 305.182L277.061 308.334C276.016 309.621 274.976 310.911 273.941 312.205L270.036 309.082C269.619 309.604 269.202 310.126 268.787 310.649L272.701 313.76C271.67 315.058 270.643 316.359 269.622 317.665L265.684 314.584C265.272 315.11 264.861 315.637 264.451 316.165L268.399 319.234C267.381 320.542 266.369 321.855 265.361 323.172L261.39 320.134C260.984 320.664 260.578 321.196 260.174 321.728L264.154 324.754C263.15 326.074 262.152 327.398 261.158 328.726L257.155 325.73C256.755 326.265 256.355 326.8 255.957 327.336L259.969 330.32C258.981 331.649 257.997 332.982 257.019 334.319L252.984 331.367C252.589 331.906 252.196 332.445 251.803 332.986L255.847 335.926C254.872 337.266 253.903 338.61 252.939 339.958L248.872 337.049C248.483 337.592 248.095 338.136 247.708 338.681L251.784 341.578C250.823 342.929 249.868 344.284 248.918 345.643L244.82 342.777C244.437 343.325 244.055 343.873 243.674 344.422L247.78 347.275C246.834 348.637 245.893 350.002 244.957 351.372L240.829 348.55C240.452 349.102 240.075 349.655 239.7 350.208L243.836 353.017C242.906 354.387 241.98 355.762 241.06 357.14L236.902 354.363C236.531 354.918 236.161 355.474 235.792 356.031L239.958 358.795C239.043 360.175 238.132 361.559 237.227 362.947L233.039 360.215C232.674 360.774 232.31 361.334 231.947 361.895L236.143 364.614C235.241 366.005 234.345 367.399 233.454 368.797L229.238 366.111C228.879 366.674 228.52 367.238 228.163 367.803L232.388 370.477C231.501 371.878 230.62 373.283 229.744 374.691L225.498 372.049C225.145 372.617 224.793 373.185 224.441 373.754L228.695 376.382C227.823 377.793 226.956 379.208 226.095 380.626L221.821 378.031C221.475 378.601 221.129 379.172 220.785 379.744L225.066 382.326C224.211 383.744 223.361 385.165 222.517 386.59L218.215 384.041C217.875 384.615 217.535 385.19 217.197 385.766L221.506 388.302C220.665 389.73 219.83 391.161 219.001 392.596L214.672 390.093C214.338 390.671 214.004 391.25 213.672 391.829L218.008 394.319C217.182 395.757 216.362 397.198 215.548 398.642L211.193 396.186C210.864 396.768 210.537 397.351 210.21 397.934L214.573 400.377C213.763 401.824 212.958 403.275 212.158 404.729L207.777 402.32C207.455 402.906 207.133 403.493 206.813 404.08L211.202 406.475C210.408 407.929 209.62 409.386 208.838 410.846L204.43 408.485C204.115 409.073 203.801 409.662 203.487 410.251L207.902 412.599C207.124 414.061 206.352 415.526 205.585 416.995L201.153 414.681C200.844 415.273 200.536 415.865 200.228 416.459L204.668 418.759C203.905 420.23 203.149 421.705 202.397 423.182L197.94 420.916C197.637 421.512 197.335 422.108 197.034 422.705L201.498 424.957C200.751 426.438 200.01 427.922 199.274 429.408L194.793 427.191C194.496 427.79 194.201 428.39 193.906 428.991L198.394 431.194C197.662 432.684 196.937 434.176 196.217 435.672L191.712 433.503C191.422 434.104 191.134 434.705 190.846 435.307L195.358 437.462C194.645 438.956 193.937 440.452 193.235 441.952L188.706 439.831C188.423 440.436 188.141 441.041 187.86 441.646L192.395 443.753C191.697 445.255 191.005 446.76 190.318 448.268L185.768 446.197C185.491 446.805 185.215 447.413 184.94 448.022L189.497 450.08C188.815 451.59 188.139 453.104 187.468 454.621L182.895 452.599C182.625 453.211 182.355 453.823 182.087 454.435L186.666 456.443C186 457.962 185.339 459.485 184.685 461.01L180.09 459.038C179.826 459.653 179.563 460.268 179.301 460.884L183.902 462.842C183.253 464.365 182.611 465.892 181.974 467.421L177.358 465.499C177.101 466.115 176.846 466.731 176.591 467.347L181.213 469.256C180.581 470.785 179.955 472.318 179.335 473.854L174.699 471.982C174.449 472.601 174.2 473.22 173.952 473.84L178.594 475.698C177.978 477.236 177.368 478.777 176.764 480.321L172.108 478.499C171.864 479.122 171.622 479.744 171.38 480.368L176.042 482.175C175.442 483.721 174.848 485.271 174.26 486.822L169.585 485.051C169.348 485.677 169.112 486.303 168.877 486.929L173.558 488.686C172.974 490.24 172.397 491.797 171.825 493.357L167.131 491.637C166.901 492.263 166.673 492.889 166.445 493.516L171.145 495.222C170.581 496.777 170.022 498.334 169.47 499.894L164.757 498.224C164.534 498.853 164.312 499.482 164.091 500.112L168.809 501.767C168.261 503.329 167.719 504.894 167.183 506.462L162.452 504.844C162.236 505.475 162.02 506.108 161.806 506.741L166.542 508.345C166.01 509.914 165.484 511.487 164.965 513.062L160.217 511.495C160.007 512.13 159.798 512.765 159.591 513.401L164.344 514.954C163.828 516.531 163.319 518.111 162.816 519.694L158.051 518.178C157.848 518.816 157.646 519.455 157.445 520.094L162.215 521.594C161.718 523.174 161.226 524.756 160.741 526.341L155.96 524.877C155.765 525.514 155.571 526.152 155.378 526.79L160.163 528.239C159.684 529.822 159.211 531.408 158.743 532.996L153.947 531.584C153.758 532.225 153.571 532.865 153.384 533.506L158.185 534.903C157.722 536.493 157.266 538.086 156.815 539.681L152.003 538.322C151.821 538.965 151.641 539.608 151.461 540.252L156.277 541.597C155.831 543.194 155.391 544.794 154.957 546.396L150.131 545.089C149.956 545.735 149.782 546.381 149.608 547.027L154.439 548.32C154.009 549.924 153.586 551.531 153.169 553.14L148.329 551.885C148.161 552.532 147.994 553.179 147.829 553.827L152.672 555.067C152.263 556.667 151.859 558.27 151.461 559.876L146.608 558.673C146.448 559.32 146.288 559.968 146.13 560.616L150.987 561.803C150.594 563.41 150.207 565.02 149.826 566.632L144.96 565.482C144.807 566.132 144.654 566.782 144.502 567.432L149.372 568.567C148.996 570.181 148.626 571.797 148.262 573.415L143.384 572.318C143.237 572.971 143.091 573.623 142.946 574.276L147.828 575.358C147.469 576.979 147.116 578.601 146.769 580.226L141.879 579.182C141.739 579.837 141.6 580.492 141.462 581.148L146.355 582.177C146.014 583.799 145.679 585.425 145.35 587.052L140.449 586.061C140.317 586.714 140.186 587.367 140.056 588.02L144.96 588.996C144.637 590.617 144.321 592.239 144.01 593.864L139.099 592.926C138.974 593.581 138.85 594.237 138.727 594.892L143.641 595.815C143.335 597.442 143.036 599.071 142.742 600.702L137.821 599.817C137.703 600.474 137.586 601.132 137.469 601.79L142.393 602.66C142.105 604.293 141.822 605.928 141.546 607.565L136.616 606.733C136.505 607.393 136.394 608.053 136.285 608.713L141.218 609.53C140.946 611.169 140.681 612.809 140.422 614.452L135.483 613.673C135.379 614.336 135.276 614.998 135.173 615.661L140.115 616.424C139.862 618.058 139.616 619.693 139.376 621.331L134.429 620.605C134.332 621.264 134.237 621.923 134.142 622.583L139.091 623.293C138.857 624.929 138.628 626.567 138.406 628.207L133.451 627.535C133.361 628.196 133.273 628.858 133.185 629.52L138.142 630.176C137.924 631.818 137.713 633.462 137.507 635.107L132.546 634.488C132.463 635.152 132.381 635.815 132.301 636.479L137.264 637.083C137.064 638.73 136.87 640.379 136.682 642.029L131.714 641.464C131.638 642.13 131.563 642.795 131.49 643.461L136.459 644.011C136.276 645.664 136.1 647.318 135.929 648.974L130.956 648.462C130.887 649.126 130.82 649.791 130.754 650.455L135.729 650.952C135.565 652.594 135.407 654.237 135.256 655.883L130.277 655.424C130.216 656.087 130.156 656.751 130.096 657.415L135.077 657.858C134.93 659.505 134.79 661.154 134.655 662.804L129.672 662.399C129.618 663.064 129.564 663.729 129.512 664.395L134.497 664.786C134.368 666.437 134.245 668.091 134.128 669.746L129.14 669.394C129.093 670.061 129.047 670.729 129.002 671.397L133.99 671.734C133.878 673.39 133.773 675.049 133.673 676.709L128.682 676.41C128.642 677.079 128.603 677.748 128.565 678.418L133.557 678.702C133.463 680.36 133.375 682.019 133.293 683.681L128.299 683.435C128.266 684.099 128.235 684.763 128.204 685.428L133.199 685.658C133.123 687.307 133.053 688.957 132.989 690.608L127.993 690.416C127.967 691.081 127.942 691.747 127.919 692.413L132.916 692.591C132.857 694.244 132.804 695.899 132.758 697.555L127.76 697.415C127.741 698.082 127.723 698.75 127.707 699.418L132.705 699.543C132.664 701.2 132.629 702.859 132.6 704.52L127.601 704.433C127.589 705.102 127.578 705.771 127.569 706.441L132.568 706.513C132.544 708.174 132.527 709.838 132.515 711.502L127.515 711.468C127.511 712.139 127.507 712.81 127.505 713.482L132.505 713.501C132.502 714.333 132.5 715.167 132.5 716C132.5 716.834 132.502 717.667 132.505 718.5L127.505 718.519C127.507 719.19 127.511 719.862 127.515 720.532L132.515 720.498C132.527 722.163 132.544 723.826 132.568 725.488L127.569 725.56C127.578 726.229 127.589 726.899 127.601 727.568L132.6 727.481C132.629 729.142 132.664 730.801 132.705 732.458L127.707 732.583C127.723 733.251 127.741 733.918 127.76 734.586L132.758 734.446C132.804 736.102 132.857 737.757 132.916 739.41L127.919 739.587C127.942 740.253 127.967 740.919 127.993 741.585L132.989 741.392C133.053 743.044 133.123 744.694 133.199 746.343L128.204 746.573C128.235 747.238 128.266 747.902 128.299 748.566L133.293 748.32C133.375 749.981 133.463 751.641 133.557 753.299L128.565 753.583C128.603 754.252 128.642 754.922 128.682 755.591L133.673 755.292C133.773 756.952 133.878 758.61 133.99 760.267L129.002 760.604C129.047 761.272 129.093 761.939 129.14 762.607L134.128 762.254C134.245 763.91 134.368 765.563 134.497 767.215L129.512 767.605C129.564 768.271 129.618 768.937 129.672 769.602L134.655 769.196C134.79 770.847 134.93 772.496 135.077 774.143L130.096 774.586C130.156 775.25 130.216 775.913 130.277 776.577L135.256 776.118C135.407 777.763 135.565 779.407 135.729 781.049L130.754 781.546C130.82 782.21 130.887 782.874 130.956 783.538L135.929 783.027C136.1 784.683 136.277 786.337 136.459 787.989L131.49 788.539C131.564 789.205 131.638 789.871 131.714 790.537L136.682 789.971C136.87 791.622 137.064 793.271 137.264 794.918L132.301 795.522C132.381 796.185 132.463 796.849 132.546 797.512L137.507 796.893C137.713 798.539 137.924 800.183 138.142 801.824L133.185 802.481C133.273 803.143 133.361 803.804 133.451 804.465L138.406 803.793C138.628 805.433 138.857 807.071 139.091 808.708L134.142 809.418C134.237 810.077 134.332 810.736 134.429 811.395L139.376 810.67C139.616 812.307 139.862 813.943 140.115 815.576L135.173 816.34C135.276 817.002 135.379 817.665 135.483 818.327L140.422 817.549C140.681 819.191 140.946 820.832 141.218 822.471L136.285 823.287C136.394 823.948 136.505 824.608 136.616 825.268L141.546 824.436C141.822 826.073 142.105 827.708 142.393 829.34L137.47 830.21C137.586 830.868 137.703 831.526 137.821 832.184L142.742 831.299C143.036 832.93 143.335 834.558 143.641 836.185L138.727 837.108C138.85 837.764 138.974 838.419 139.099 839.074L144.01 838.136C144.321 839.761 144.637 841.384 144.96 843.005L140.056 843.981C140.186 844.634 140.317 845.287 140.449 845.94L145.35 844.948C145.679 846.576 146.014 848.201 146.356 849.824L141.463 850.853C141.6 851.509 141.739 852.164 141.879 852.819L146.769 851.775C147.116 853.399 147.469 855.022 147.828 856.642L142.947 857.724C143.091 858.377 143.237 859.03 143.384 859.682L148.262 858.585C148.626 860.204 148.996 861.82 149.372 863.433L144.502 864.568C144.654 865.219 144.807 865.869 144.96 866.519L149.826 865.369C150.207 866.981 150.594 868.59 150.987 870.197L146.13 871.385C146.288 872.033 146.448 872.68 146.608 873.327L151.461 872.125C151.859 873.73 152.263 875.333 152.673 876.934L147.829 878.174C147.995 878.821 148.161 879.469 148.329 880.116L153.169 878.861C153.586 880.47 154.009 882.076 154.439 883.681L149.609 884.973C149.782 885.62 149.956 886.266 150.131 886.912L154.957 885.604C155.391 887.207 155.831 888.806 156.277 890.404L151.461 891.748C151.641 892.392 151.822 893.036 152.003 893.679L156.815 892.319C157.266 893.914 157.722 895.507 158.185 897.097L153.384 898.494C153.571 899.135 153.758 899.776 153.947 900.416L158.743 899.004C159.211 900.592 159.684 902.178 160.163 903.761L155.378 905.21C155.571 905.848 155.765 906.486 155.96 907.123L160.741 905.66C161.227 907.244 161.718 908.827 162.215 910.406L157.445 911.907C157.646 912.546 157.848 913.184 158.051 913.822L162.816 912.307C163.319 913.889 163.829 915.469 164.344 917.047L159.591 918.599C159.798 919.235 160.007 919.87 160.217 920.505L164.965 918.938C165.485 920.513 166.01 922.086 166.542 923.656L161.806 925.26C162.021 925.893 162.236 926.525 162.452 927.157L167.183 925.538C167.719 927.106 168.261 928.671 168.809 930.233L164.091 931.888C164.312 932.518 164.534 933.147 164.757 933.776L169.47 932.107C170.022 933.667 170.581 935.224 171.145 936.778L166.445 938.484C166.673 939.111 166.901 939.738 167.131 940.364L171.825 938.643C172.397 940.203 172.975 941.76 173.558 943.314L168.877 945.071C169.112 945.698 169.348 946.324 169.585 946.949L174.261 945.178C174.849 946.73 175.442 948.279 176.042 949.825L171.38 951.633C171.622 952.256 171.864 952.879 172.108 953.501L176.764 951.679C177.368 953.223 177.978 954.764 178.594 956.302L173.952 958.16C174.2 958.78 174.449 959.4 174.699 960.019L179.335 958.146C179.955 959.682 180.581 961.215 181.213 962.745L176.591 964.653C176.846 965.27 177.102 965.886 177.358 966.502L181.974 964.579C182.611 966.108 183.253 967.635 183.902 969.158L179.301 971.116C179.563 971.732 179.826 972.347 180.09 972.962L184.685 970.99C185.339 972.516 186 974.038 186.666 975.557L182.087 977.565C182.356 978.178 182.625 978.79 182.895 979.401L187.468 977.379C188.139 978.896 188.815 980.41 189.497 981.921L184.94 983.978C185.215 984.587 185.491 985.195 185.768 985.803L190.318 983.732C191.005 985.24 191.697 986.746 192.395 988.248L187.86 990.354C188.141 990.959 188.424 991.565 188.707 992.169L193.235 990.049C193.937 991.548 194.645 993.045 195.358 994.538L190.846 996.693C191.134 997.295 191.422 997.896 191.712 998.497L196.217 996.328C196.937 997.824 197.663 999.317 198.394 1000.81L193.906 1003.01C194.201 1003.61 194.496 1004.21 194.793 1004.81L199.274 1002.59C200.01 1004.08 200.752 1005.56 201.498 1007.04L197.034 1009.3C197.336 1009.89 197.638 1010.49 197.94 1011.08L202.397 1008.82C203.149 1010.3 203.906 1011.77 204.668 1013.24L200.229 1015.54C200.536 1016.13 200.844 1016.73 201.153 1017.32L205.585 1015.01C206.352 1016.47 207.124 1017.94 207.902 1019.4L203.488 1021.75C203.801 1022.34 204.115 1022.93 204.431 1023.52L208.838 1021.15C209.62 1022.61 210.408 1024.07 211.202 1025.53L206.813 1027.92C207.133 1028.51 207.455 1029.09 207.777 1029.68L212.158 1027.27C212.958 1028.73 213.763 1030.18 214.573 1031.62L210.21 1034.07C210.537 1034.65 210.864 1035.23 211.193 1035.81L215.548 1033.36C216.363 1034.8 217.183 1036.24 218.008 1037.68L213.672 1040.17C214.004 1040.75 214.338 1041.33 214.672 1041.91L219.001 1039.4C219.831 1040.84 220.666 1042.27 221.506 1043.7L217.197 1046.23C217.536 1046.81 217.875 1047.38 218.216 1047.96L222.517 1045.41C223.361 1046.83 224.211 1048.26 225.066 1049.67L220.785 1052.26C221.13 1052.83 221.475 1053.4 221.822 1053.97L226.095 1051.37C226.956 1052.79 227.823 1054.21 228.695 1055.62L224.442 1058.25C224.793 1058.81 225.145 1059.38 225.498 1059.95L229.744 1057.31C230.62 1058.72 231.501 1060.12 232.388 1061.52L228.163 1064.2C228.521 1064.76 228.879 1065.33 229.238 1065.89L233.455 1063.2C234.345 1064.6 235.242 1066 236.143 1067.39L231.947 1070.11C232.31 1070.67 232.674 1071.23 233.039 1071.79L237.227 1069.05C238.132 1070.44 239.043 1071.83 239.959 1073.21L235.792 1075.97C236.161 1076.53 236.531 1077.08 236.902 1077.64L241.06 1074.86C241.98 1076.24 242.906 1077.61 243.836 1078.98L239.7 1081.79C240.075 1082.35 240.452 1082.9 240.829 1083.45L244.957 1080.63C245.893 1082 246.834 1083.36 247.78 1084.73L243.674 1087.58C244.055 1088.13 244.438 1088.68 244.821 1089.22L248.918 1086.36C249.868 1087.72 250.824 1089.07 251.784 1090.42L247.709 1093.32C248.096 1093.86 248.484 1094.41 248.872 1094.95L252.939 1092.04C253.903 1093.39 254.873 1094.73 255.847 1096.07L251.803 1099.01C252.196 1099.55 252.589 1100.09 252.984 1100.63L257.019 1097.68C257.997 1099.02 258.981 1100.35 259.969 1101.68L255.957 1104.66C256.355 1105.2 256.755 1105.74 257.155 1106.27L261.158 1103.27C262.152 1104.6 263.15 1105.93 264.154 1107.25L260.174 1110.27C260.579 1110.8 260.984 1111.34 261.39 1111.87L265.361 1108.83C266.369 1110.14 267.381 1111.46 268.399 1112.77L264.451 1115.84C264.862 1116.36 265.272 1116.89 265.684 1117.42L269.622 1114.34C270.644 1115.64 271.67 1116.94 272.701 1118.24L268.787 1121.35C269.203 1121.87 269.619 1122.4 270.036 1122.92L273.941 1119.8C274.976 1121.09 276.016 1122.38 277.061 1123.67L273.18 1126.82C273.601 1127.34 274.023 1127.85 274.446 1128.37L278.317 1125.21C279.366 1126.49 280.42 1127.77 281.479 1129.04L277.632 1132.24C278.059 1132.75 278.487 1133.27 278.915 1133.78L282.752 1130.57C283.815 1131.85 284.883 1133.11 285.956 1134.38L282.143 1137.61C282.576 1138.12 283.009 1138.63 283.443 1139.14L287.245 1135.89C288.322 1137.15 289.403 1138.41 290.489 1139.66L286.711 1142.94C287.149 1143.44 287.588 1143.95 288.027 1144.45L291.794 1141.16C292.884 1142.41 293.979 1143.66 295.078 1144.9L291.336 1148.21C291.779 1148.71 292.222 1149.21 292.667 1149.71L296.399 1146.38C297.502 1147.62 298.61 1148.85 299.722 1150.08L296.015 1153.44C296.464 1153.93 296.913 1154.43 297.363 1154.92L301.059 1151.56C302.175 1152.78 303.296 1154 304.422 1155.22L300.752 1158.61C301.205 1159.11 301.66 1159.6 302.115 1160.08L305.775 1156.68C306.905 1157.89 308.039 1159.1 309.177 1160.31L305.543 1163.74C306.002 1164.23 306.462 1164.71 306.922 1165.19L310.546 1161.75C311.688 1162.95 312.835 1164.15 313.986 1165.34L310.389 1168.81C310.853 1169.29 311.318 1169.77 311.783 1170.25L315.37 1166.77C316.525 1167.96 317.684 1169.14 318.848 1170.32L315.289 1173.83C315.758 1174.31 316.228 1174.78 316.698 1175.26L320.247 1171.74C321.415 1172.91 322.587 1174.09 323.763 1175.25L320.241 1178.8C320.716 1179.27 321.191 1179.74 321.666 1180.21L325.177 1176.65C326.358 1177.82 327.542 1178.98 328.731 1180.13L325.247 1183.72C325.727 1184.18 326.206 1184.65 326.687 1185.11L330.16 1181.51C331.353 1182.67 332.549 1183.81 333.751 1184.95L330.305 1188.58C330.79 1189.04 331.275 1189.5 331.76 1189.96L335.194 1186.32C336.399 1187.46 337.608 1188.6 338.822 1189.72L335.416 1193.39C335.905 1193.84 336.395 1194.29 336.885 1194.75L340.28 1191.08C341.497 1192.2 342.719 1193.32 343.944 1194.44L340.577 1198.14C341.071 1198.59 341.566 1199.04 342.061 1199.48L345.417 1195.78C346.645 1196.89 347.878 1198 349.115 1199.1L345.788 1202.83C346.287 1203.28 346.786 1203.72 347.286 1204.16L350.602 1200.42C351.842 1201.52 353.087 1202.62 354.336 1203.71L351.049 1207.47C351.552 1207.91 352.057 1208.35 352.561 1208.79L355.837 1205.01C357.089 1206.1 358.346 1207.18 359.607 1208.25L356.36 1212.06C356.868 1212.49 357.377 1212.92 357.887 1213.36L361.122 1209.54C362.386 1210.62 363.654 1211.68 364.926 1212.75L361.721 1216.58C362.234 1217.01 362.747 1217.44 363.261 1217.87L366.455 1214.02C367.73 1215.08 369.01 1216.13 370.293 1217.18L367.128 1221.05C367.646 1221.48 368.163 1221.9 368.682 1222.32L371.834 1218.44C373.121 1219.48 374.411 1220.52 375.705 1221.56L372.582 1225.46C373.104 1225.88 373.626 1226.3 374.149 1226.71L377.26 1222.8C378.558 1223.83 379.859 1224.86 381.165 1225.88L378.084 1229.82C378.61 1230.23 379.137 1230.64 379.665 1231.05L382.734 1227.1C384.042 1228.12 385.355 1229.13 386.672 1230.14L383.634 1234.11C384.164 1234.52 384.696 1234.92 385.228 1235.33L388.254 1231.35C389.574 1232.35 390.898 1233.35 392.226 1234.34L389.23 1238.35C389.765 1238.75 390.3 1239.14 390.836 1239.54L393.82 1235.53C395.149 1236.52 396.482 1237.5 397.819 1238.48L394.867 1242.52C395.406 1242.91 395.945 1243.3 396.486 1243.7L399.426 1239.65C400.766 1240.63 402.11 1241.6 403.458 1242.56L400.549 1246.63C401.092 1247.02 401.636 1247.4 402.181 1247.79L405.078 1243.72C406.429 1244.68 407.784 1245.63 409.143 1246.58L406.277 1250.68C406.825 1251.06 407.373 1251.44 407.922 1251.83L410.775 1247.72C412.137 1248.67 413.502 1249.61 414.872 1250.54L412.05 1254.67C412.602 1255.05 413.155 1255.42 413.708 1255.8L416.517 1251.66C417.887 1252.59 419.262 1253.52 420.64 1254.44L417.863 1258.6C418.418 1258.97 418.974 1259.34 419.531 1259.71L422.295 1255.54C423.675 1256.46 425.059 1257.37 426.447 1258.27L423.715 1262.46C424.274 1262.83 424.834 1263.19 425.395 1263.55L428.114 1259.36C429.505 1260.26 430.899 1261.15 432.297 1262.05L429.611 1266.26C430.174 1266.62 430.738 1266.98 431.303 1267.34L433.977 1263.11C435.378 1264 436.783 1264.88 438.191 1265.76L435.549 1270C436.117 1270.35 436.685 1270.71 437.254 1271.06L439.882 1266.81C441.293 1267.68 442.708 1268.54 444.126 1269.4L441.531 1273.68C442.101 1274.03 442.672 1274.37 443.244 1274.72L445.826 1270.43C447.244 1271.29 448.665 1272.14 450.09 1272.98L447.541 1277.28C448.115 1277.62 448.69 1277.96 449.266 1278.3L451.802 1273.99C453.23 1274.83 454.661 1275.67 456.096 1276.5L453.593 1280.83C454.171 1281.16 454.75 1281.5 455.329 1281.83L457.819 1277.49C459.257 1278.32 460.698 1279.14 462.142 1279.95L459.686 1284.31C460.268 1284.64 460.851 1284.96 461.434 1285.29L463.877 1280.93C465.324 1281.74 466.775 1282.54 468.229 1283.34L465.82 1287.72C466.406 1288.05 466.993 1288.37 467.58 1288.69L469.975 1284.3C471.429 1285.09 472.886 1285.88 474.346 1286.66L471.985 1291.07C472.573 1291.38 473.162 1291.7 473.751 1292.01L476.099 1287.6C477.561 1288.38 479.026 1289.15 480.495 1289.91L478.181 1294.35C478.773 1294.66 479.365 1294.96 479.959 1295.27L482.259 1290.83C483.73 1291.59 485.205 1292.35 486.682 1293.1L484.416 1297.56C485.012 1297.86 485.608 1298.16 486.205 1298.47L488.457 1294C489.938 1294.75 491.422 1295.49 492.908 1296.23L490.691 1300.71C491.29 1301 491.89 1301.3 492.49 1301.59L494.694 1297.11C496.184 1297.84 497.676 1298.56 499.172 1299.28L497.003 1303.79C497.604 1304.08 498.205 1304.37 498.807 1304.65L500.962 1300.14C502.456 1300.86 503.952 1301.56 505.452 1302.27L503.331 1306.79C503.936 1307.08 504.541 1307.36 505.146 1307.64L507.253 1303.11C508.755 1303.8 510.26 1304.5 511.768 1305.18L509.697 1309.73C510.305 1310.01 510.913 1310.29 511.522 1310.56L513.58 1306C515.09 1306.68 516.604 1307.36 518.121 1308.03L516.099 1312.6C516.711 1312.88 517.323 1313.14 517.935 1313.41L519.943 1308.83C521.462 1309.5 522.985 1310.16 524.51 1310.82L522.538 1315.41C523.153 1315.67 523.768 1315.94 524.384 1316.2L526.342 1311.6C527.865 1312.25 529.392 1312.89 530.921 1313.53L528.999 1318.14C529.615 1318.4 530.231 1318.65 530.847 1318.91L532.756 1314.29C534.285 1314.92 535.818 1315.54 537.354 1316.16L535.482 1320.8C536.101 1321.05 536.72 1321.3 537.34 1321.55L539.198 1316.91C540.736 1317.52 542.277 1318.13 543.821 1318.74L541.999 1323.39C542.622 1323.64 543.244 1323.88 543.868 1324.12L545.675 1319.46C547.221 1320.06 548.771 1320.65 550.322 1321.24L548.551 1325.92C549.177 1326.15 549.803 1326.39 550.429 1326.62L552.186 1321.94C553.74 1322.53 555.297 1323.1 556.857 1323.67L555.137 1328.37C555.763 1328.6 556.389 1328.83 557.016 1329.05L558.722 1324.35C560.277 1324.92 561.834 1325.48 563.394 1326.03L561.724 1330.74C562.353 1330.97 562.982 1331.19 563.612 1331.41L565.267 1326.69C566.829 1327.24 568.394 1327.78 569.962 1328.32L568.344 1333.05C568.975 1333.26 569.608 1333.48 570.241 1333.69L571.845 1328.96C573.414 1329.49 574.987 1330.02 576.562 1330.54L574.995 1335.28C575.63 1335.49 576.265 1335.7 576.901 1335.91L578.454 1331.16C580.031 1331.67 581.611 1332.18 583.194 1332.68L581.678 1337.45C582.316 1337.65 582.955 1337.85 583.594 1338.05L585.094 1333.29C586.674 1333.78 588.256 1334.27 589.841 1334.76L588.377 1339.54C589.014 1339.73 589.652 1339.93 590.29 1340.12L591.739 1335.34C593.322 1335.82 594.908 1336.29 596.496 1336.76L595.084 1341.55C595.725 1341.74 596.365 1341.93 597.006 1342.12L598.403 1337.31C599.993 1337.78 601.586 1338.23 603.181 1338.69L601.822 1343.5C602.465 1343.68 603.108 1343.86 603.752 1344.04L605.097 1339.22C606.694 1339.67 608.294 1340.11 609.896 1340.54L608.589 1345.37C609.235 1345.54 609.881 1345.72 610.527 1345.89L611.82 1341.06C613.424 1341.49 615.031 1341.91 616.64 1342.33L615.385 1347.17C616.032 1347.34 616.679 1347.51 617.327 1347.67L618.567 1342.83C620.167 1343.24 621.77 1343.64 623.376 1344.04L622.173 1348.89C622.82 1349.05 623.468 1349.21 624.116 1349.37L625.303 1344.51C626.91 1344.91 628.52 1345.29 630.132 1345.67L628.982 1350.54C629.632 1350.69 630.282 1350.85 630.932 1351L632.067 1346.13C633.681 1346.5 635.297 1346.87 636.915 1347.24L635.818 1352.12C636.471 1352.26 637.123 1352.41 637.776 1352.55L638.858 1347.67C640.479 1348.03 642.101 1348.38 643.726 1348.73L642.682 1353.62C643.337 1353.76 643.992 1353.9 644.648 1354.04L645.677 1349.14C647.299 1349.49 648.925 1349.82 650.552 1350.15L649.561 1355.05C650.214 1355.18 650.867 1355.31 651.52 1355.44L652.496 1350.54C654.117 1350.86 655.739 1351.18 657.364 1351.49L656.426 1356.4C657.081 1356.53 657.737 1356.65 658.392 1356.77L659.315 1351.86C660.942 1352.16 662.571 1352.46 664.202 1352.76L663.317 1357.68C663.974 1357.8 664.632 1357.91 665.29 1358.03L666.16 1353.11C667.793 1353.4 669.428 1353.68 671.065 1353.95L670.233 1358.88C670.893 1359 671.553 1359.11 672.213 1359.22L673.03 1354.28C674.669 1354.55 676.309 1354.82 677.952 1355.08L677.173 1360.02C677.836 1360.12 678.498 1360.22 679.161 1360.33L679.924 1355.39C681.558 1355.64 683.193 1355.88 684.831 1356.12L684.105 1361.07C684.764 1361.17 685.423 1361.26 686.083 1361.36L686.793 1356.41C688.429 1356.64 690.067 1356.87 691.707 1357.09L691.035 1362.05C691.696 1362.14 692.358 1362.23 693.019 1362.32L693.676 1357.36C695.318 1357.58 696.962 1357.79 698.607 1357.99L697.988 1362.95C698.652 1363.04 699.315 1363.12 699.979 1363.2L700.583 1358.24C702.23 1358.44 703.879 1358.63 705.529 1358.82L704.964 1363.79C705.63 1363.86 706.295 1363.94 706.961 1364.01L707.511 1359.04C709.164 1359.22 710.818 1359.4 712.474 1359.57L711.962 1364.54C712.626 1364.61 713.291 1364.68 713.955 1364.75L714.452 1359.77C716.094 1359.94 717.737 1360.09 719.383 1360.24L718.924 1365.22C719.587 1365.28 720.251 1365.34 720.915 1365.4L721.358 1360.42C723.005 1360.57 724.654 1360.71 726.304 1360.84L725.899 1365.83C726.564 1365.88 727.229 1365.94 727.895 1365.99L728.286 1361C729.937 1361.13 731.591 1361.26 733.246 1361.37L732.894 1366.36C733.561 1366.41 734.229 1366.45 734.897 1366.5L735.234 1361.51C736.89 1361.62 738.549 1361.73 740.209 1361.83L739.91 1366.82C740.579 1366.86 741.248 1366.9 741.918 1366.93L742.202 1361.94C743.86 1362.04 745.519 1362.13 747.181 1362.21L746.935 1367.2C747.599 1367.23 748.263 1367.27 748.928 1367.3L749.158 1362.3C750.807 1362.38 752.457 1362.45 754.108 1362.51L753.916 1367.51C754.581 1367.53 755.247 1367.56 755.913 1367.58L756.091 1362.58C757.744 1362.64 759.399 1362.7 761.055 1362.74L760.915 1367.74C761.582 1367.76 762.25 1367.78 762.918 1367.79L763.043 1362.79C764.7 1362.84 766.359 1362.87 768.02 1362.9L767.933 1367.9C768.602 1367.91 769.271 1367.92 769.941 1367.93L770.013 1362.93C771.674 1362.96 773.338 1362.97 775.002 1362.98L774.968 1367.98C775.639 1367.99 776.31 1367.99 776.982 1368L777.001 1363C777.833 1363 778.667 1363 779.5 1363C780.334 1363 781.167 1363 782 1363L782.019 1368C782.69 1367.99 783.361 1367.99 784.032 1367.98L783.998 1362.98C785.663 1362.97 787.326 1362.96 788.988 1362.93L789.06 1367.93C789.73 1367.92 790.399 1367.91 791.068 1367.9L790.981 1362.9C792.642 1362.87 794.301 1362.84 795.958 1362.79L796.083 1367.79C796.751 1367.78 797.418 1367.76 798.086 1367.74L797.946 1362.74C799.602 1362.7 801.257 1362.64 802.91 1362.58L803.087 1367.58C803.753 1367.56 804.419 1367.53 805.085 1367.51L804.892 1362.51C806.544 1362.45 808.194 1362.38 809.843 1362.3L810.073 1367.3C810.738 1367.27 811.402 1367.23 812.066 1367.2L811.82 1362.21C813.481 1362.13 815.141 1362.04 816.799 1361.94L817.083 1366.93C817.752 1366.9 818.422 1366.86 819.091 1366.82L818.792 1361.83C820.452 1361.73 822.11 1361.62 823.767 1361.51L824.104 1366.5C824.772 1366.45 825.439 1366.41 826.107 1366.36L825.754 1361.37C827.41 1361.26 829.063 1361.13 830.715 1361L831.105 1365.99C831.771 1365.94 832.437 1365.88 833.102 1365.83L832.696 1360.84C834.347 1360.71 835.996 1360.57 837.643 1360.42L838.086 1365.4C838.75 1365.34 839.413 1365.28 840.077 1365.22L839.618 1360.24C841.263 1360.09 842.907 1359.93 844.549 1359.77L845.046 1364.75C845.71 1364.68 846.374 1364.61 847.038 1364.54L846.527 1359.57C848.183 1359.4 849.837 1359.22 851.489 1359.04L852.039 1364.01C852.705 1363.94 853.371 1363.86 854.037 1363.79L853.471 1358.82C855.122 1358.63 856.771 1358.44 858.418 1358.24L859.022 1363.2C859.685 1363.12 860.349 1363.04 861.012 1362.95L860.393 1357.99C862.039 1357.79 863.683 1357.58 865.324 1357.36L865.981 1362.32C866.643 1362.23 867.304 1362.14 867.965 1362.05L867.293 1357.09C868.933 1356.87 870.571 1356.64 872.208 1356.41L872.918 1361.36C873.577 1361.26 874.236 1361.17 874.895 1361.07L874.17 1356.12C875.807 1355.88 877.443 1355.64 879.076 1355.39L879.84 1360.33C880.502 1360.22 881.165 1360.12 881.827 1360.02L881.049 1355.08C882.691 1354.82 884.332 1354.55 885.971 1354.28L886.787 1359.22C887.448 1359.11 888.108 1359 888.768 1358.88L887.936 1353.95C889.573 1353.68 891.208 1353.4 892.84 1353.11L893.71 1358.03C894.368 1357.91 895.026 1357.8 895.684 1357.68L894.799 1352.76C896.43 1352.46 898.058 1352.16 899.685 1351.86L900.608 1356.77C901.264 1356.65 901.919 1356.53 902.574 1356.4L901.636 1351.49C903.261 1351.18 904.884 1350.86 906.505 1350.54L907.481 1355.44C908.134 1355.31 908.787 1355.18 909.44 1355.05L908.448 1350.15C910.076 1349.82 911.701 1349.49 913.324 1349.14L914.353 1354.04C915.009 1353.9 915.664 1353.76 916.319 1353.62L915.275 1348.73C916.899 1348.38 918.522 1348.03 920.142 1347.67L921.224 1352.55C921.877 1352.41 922.53 1352.26 923.182 1352.12L922.085 1347.24C923.704 1346.87 925.32 1346.5 926.933 1346.13L928.068 1351C928.719 1350.85 929.369 1350.69 930.019 1350.54L928.869 1345.67C930.481 1345.29 932.09 1344.91 933.697 1344.51L934.885 1349.37C935.533 1349.21 936.18 1349.05 936.827 1348.89L935.625 1344.04C937.23 1343.64 938.833 1343.24 940.434 1342.83L941.674 1347.67C942.321 1347.51 942.969 1347.34 943.616 1347.17L942.361 1342.33C943.97 1341.91 945.576 1341.49 947.181 1341.06L948.473 1345.89C949.12 1345.72 949.766 1345.54 950.412 1345.37L949.104 1340.54C950.707 1340.11 952.306 1339.67 953.904 1339.22L955.248 1344.04C955.892 1343.86 956.536 1343.68 957.179 1343.5L955.819 1338.69C957.414 1338.23 959.007 1337.78 960.597 1337.31L961.994 1342.12C962.635 1341.93 963.276 1341.74 963.916 1341.55L962.504 1336.76C964.092 1336.29 965.678 1335.82 967.261 1335.34L968.71 1340.12C969.348 1339.93 969.986 1339.73 970.623 1339.54L969.16 1334.76C970.744 1334.27 972.327 1333.78 973.906 1333.29L975.407 1338.05C976.046 1337.85 976.684 1337.65 977.322 1337.45L975.807 1332.68C977.389 1332.18 978.969 1331.67 980.547 1331.16L982.099 1335.91C982.735 1335.7 983.37 1335.49 984.005 1335.28L982.438 1330.54C984.013 1330.02 985.586 1329.49 987.156 1328.96L988.76 1333.69C989.393 1333.48 990.025 1333.26 990.657 1333.05L989.038 1328.32C990.606 1327.78 992.171 1327.24 993.733 1326.69L995.388 1331.41C996.018 1331.19 996.647 1330.97 997.276 1330.74L995.607 1326.03C997.167 1325.48 998.724 1324.92 1000.28 1324.35L1001.98 1329.05C1002.61 1328.83 1003.24 1328.6 1003.86 1328.37L1002.14 1323.67C1003.7 1323.1 1005.26 1322.53 1006.81 1321.94L1008.57 1326.62C1009.2 1326.39 1009.82 1326.15 1010.45 1325.92L1008.68 1321.24C1010.23 1320.65 1011.78 1320.06 1013.33 1319.46L1015.13 1324.12C1015.76 1323.88 1016.38 1323.64 1017 1323.39L1015.18 1318.74C1016.72 1318.13 1018.26 1317.52 1019.8 1316.91L1021.66 1321.55C1022.28 1321.3 1022.9 1321.05 1023.52 1320.8L1021.65 1316.16C1023.18 1315.54 1024.71 1314.92 1026.24 1314.29L1028.15 1318.91C1028.77 1318.65 1029.39 1318.4 1030 1318.14L1028.08 1313.53C1029.61 1312.89 1031.13 1312.25 1032.66 1311.6L1034.62 1316.2C1035.23 1315.94 1035.85 1315.67 1036.46 1315.41L1034.49 1310.82C1036.02 1310.16 1037.54 1309.5 1039.06 1308.83L1041.07 1313.41C1041.68 1313.14 1042.29 1312.88 1042.9 1312.6L1040.88 1308.03C1042.4 1307.36 1043.91 1306.68 1045.42 1306L1047.48 1310.56C1048.09 1310.28 1048.7 1310.01 1049.3 1309.73L1047.23 1305.18C1048.74 1304.5 1050.25 1303.8 1051.75 1303.11L1053.85 1307.64C1054.46 1307.36 1055.06 1307.08 1055.67 1306.79L1053.55 1302.27C1055.05 1301.56 1056.54 1300.86 1058.04 1300.14L1060.19 1304.65C1060.8 1304.37 1061.4 1304.08 1062 1303.79L1059.83 1299.28C1061.32 1298.56 1062.82 1297.84 1064.31 1297.11L1066.51 1301.59C1067.11 1301.3 1067.71 1301 1068.31 1300.71L1066.09 1296.23C1067.58 1295.49 1069.06 1294.75 1070.54 1294L1072.8 1298.47C1073.39 1298.16 1073.99 1297.86 1074.58 1297.56L1072.32 1293.1C1073.8 1292.35 1075.27 1291.59 1076.74 1290.83L1079.04 1295.27C1079.63 1294.96 1080.23 1294.66 1080.82 1294.35L1078.51 1289.91C1079.97 1289.15 1081.44 1288.38 1082.9 1287.6L1085.25 1292.01C1085.84 1291.7 1086.43 1291.38 1087.02 1291.07L1084.65 1286.66C1086.11 1285.88 1087.57 1285.09 1089.03 1284.3L1091.42 1288.69C1092.01 1288.37 1092.59 1288.05 1093.18 1287.72L1090.77 1283.34C1092.23 1282.54 1093.68 1281.74 1095.12 1280.93L1097.57 1285.29C1098.15 1284.96 1098.73 1284.64 1099.31 1284.31L1096.86 1279.95C1098.3 1279.14 1099.74 1278.32 1101.18 1277.49L1103.67 1281.83C1104.25 1281.5 1104.83 1281.16 1105.41 1280.83L1102.9 1276.5C1104.34 1275.67 1105.77 1274.83 1107.2 1273.99L1109.73 1278.3C1110.31 1277.96 1110.88 1277.62 1111.46 1277.28L1108.91 1272.98C1110.33 1272.14 1111.76 1271.29 1113.17 1270.43L1115.76 1274.72C1116.33 1274.37 1116.9 1274.02 1117.47 1273.68L1114.87 1269.4C1116.29 1268.54 1117.71 1267.68 1119.12 1266.81L1121.75 1271.06C1122.31 1270.71 1122.88 1270.35 1123.45 1270L1120.81 1265.76C1122.22 1264.88 1123.62 1264 1125.02 1263.11L1127.7 1267.34C1128.26 1266.98 1128.83 1266.62 1129.39 1266.26L1126.7 1262.05C1128.1 1261.15 1129.5 1260.26 1130.89 1259.36L1133.61 1263.55C1134.17 1263.19 1134.73 1262.83 1135.29 1262.46L1132.55 1258.27C1133.94 1257.37 1135.33 1256.46 1136.71 1255.54L1139.47 1259.71C1140.03 1259.34 1140.58 1258.97 1141.14 1258.6L1138.36 1254.44C1139.74 1253.52 1141.11 1252.59 1142.48 1251.66L1145.29 1255.8C1145.85 1255.42 1146.4 1255.05 1146.95 1254.67L1144.13 1250.54C1145.5 1249.61 1146.86 1248.67 1148.23 1247.72L1151.08 1251.83C1151.63 1251.44 1152.18 1251.06 1152.72 1250.68L1149.86 1246.58C1151.22 1245.63 1152.57 1244.68 1153.92 1243.72L1156.82 1247.79C1157.36 1247.4 1157.91 1247.02 1158.45 1246.63L1155.54 1242.56C1156.89 1241.6 1158.23 1240.63 1159.57 1239.65L1162.51 1243.7C1163.05 1243.3 1163.59 1242.91 1164.13 1242.52L1161.18 1238.48C1162.52 1237.5 1163.85 1236.52 1165.18 1235.53L1168.16 1239.54C1168.7 1239.14 1169.24 1238.75 1169.77 1238.35L1166.77 1234.34C1167.54 1233.77 1168.3 1233.19 1169.07 1232.62C1169.63 1232.2 1170.19 1231.77 1170.75 1231.35L1173.77 1235.33C1174.3 1234.92 1174.84 1234.52 1175.37 1234.11L1172.33 1230.14C1173.64 1229.13 1174.96 1228.12 1176.27 1227.1L1179.34 1231.05C1179.86 1230.64 1180.39 1230.23 1180.92 1229.82L1177.84 1225.88C1179.14 1224.86 1180.44 1223.83 1181.74 1222.8L1184.85 1226.71C1185.37 1226.3 1185.9 1225.88 1186.42 1225.46L1183.3 1221.56C1184.59 1220.52 1185.88 1219.48 1187.17 1218.44L1190.32 1222.32C1190.84 1221.9 1191.35 1221.48 1191.87 1221.05L1188.71 1217.18C1189.99 1216.13 1191.27 1215.08 1192.54 1214.02L1195.74 1217.87C1196.25 1217.44 1196.77 1217.01 1197.28 1216.58L1194.07 1212.75C1195.35 1211.68 1196.61 1210.62 1197.88 1209.54L1201.11 1213.36C1201.62 1212.92 1202.13 1212.49 1202.64 1212.06L1199.39 1208.25C1200.65 1207.18 1201.91 1206.1 1203.16 1205.01L1206.44 1208.79C1206.94 1208.35 1207.45 1207.91 1207.95 1207.47L1204.66 1203.71C1205.91 1202.62 1207.16 1201.52 1208.4 1200.42L1211.71 1204.16C1212.21 1203.72 1212.71 1203.28 1213.21 1202.83L1209.88 1199.1C1210.54 1198.52 1211.19 1197.93 1211.84 1197.35C1212.42 1196.83 1213 1196.3 1213.58 1195.78L1216.94 1199.48C1217.43 1199.04 1217.93 1198.59 1218.42 1198.14L1215.06 1194.44C1216.28 1193.32 1217.5 1192.2 1218.72 1191.08L1222.11 1194.75C1222.61 1194.29 1223.1 1193.84 1223.58 1193.38L1220.18 1189.72C1220.9 1189.05 1221.62 1188.38 1222.34 1187.71C1222.83 1187.25 1223.32 1186.79 1223.81 1186.32L1227.24 1189.96C1227.73 1189.5 1228.21 1189.04 1228.69 1188.58L1225.25 1184.95C1226.45 1183.81 1227.65 1182.67 1228.84 1181.51L1232.31 1185.11C1232.79 1184.65 1233.27 1184.18 1233.75 1183.72L1230.27 1180.13C1231.46 1178.98 1232.64 1177.82 1233.82 1176.65L1237.33 1180.21C1237.81 1179.74 1238.28 1179.27 1238.76 1178.8L1235.24 1175.25C1236.41 1174.09 1237.59 1172.91 1238.75 1171.74L1242.3 1175.26C1242.77 1174.78 1243.24 1174.31 1243.71 1173.83L1240.15 1170.32C1241.32 1169.14 1242.48 1167.96 1243.63 1166.77L1247.22 1170.25C1247.68 1169.77 1248.15 1169.29 1248.61 1168.81L1245.01 1165.34C1246.17 1164.15 1247.31 1162.95 1248.45 1161.75L1252.08 1165.19C1252.54 1164.71 1253 1164.23 1253.46 1163.74L1249.82 1160.31C1250.96 1159.1 1252.1 1157.89 1253.22 1156.68L1256.89 1160.08C1257.34 1159.6 1257.79 1159.11 1258.25 1158.61L1254.58 1155.22C1255.15 1154.61 1255.71 1153.99 1256.28 1153.37C1256.83 1152.77 1257.39 1152.16 1257.94 1151.56L1261.64 1154.92C1262.09 1154.43 1262.54 1153.93 1262.98 1153.44L1259.28 1150.08C1260.39 1148.85 1261.5 1147.62 1262.6 1146.38L1266.33 1149.71C1266.78 1149.21 1267.22 1148.71 1267.66 1148.21L1263.92 1144.9C1264.61 1144.12 1265.31 1143.33 1265.99 1142.55C1266.4 1142.09 1266.8 1141.63 1267.21 1141.16L1270.97 1144.45C1271.41 1143.95 1271.85 1143.44 1272.29 1142.94L1268.51 1139.66C1269.6 1138.41 1270.68 1137.15 1271.75 1135.89L1275.56 1139.14C1275.99 1138.63 1276.42 1138.12 1276.86 1137.61L1273.04 1134.38C1274.12 1133.11 1275.18 1131.85 1276.25 1130.57L1280.08 1133.78C1280.51 1133.27 1280.94 1132.75 1281.37 1132.24L1277.52 1129.04C1278.58 1127.77 1279.63 1126.49 1280.68 1125.21L1284.55 1128.37C1284.98 1127.85 1285.4 1127.34 1285.82 1126.82L1281.94 1123.67C1282.98 1122.38 1284.02 1121.09 1285.06 1119.79L1288.96 1122.92C1289.38 1122.4 1289.8 1121.87 1290.21 1121.35L1286.3 1118.24C1287.33 1116.94 1288.36 1115.64 1289.38 1114.34L1293.32 1117.42C1293.73 1116.89 1294.14 1116.36 1294.55 1115.84L1290.6 1112.77C1291.62 1111.46 1292.63 1110.14 1293.64 1108.83L1297.61 1111.87C1298.02 1111.34 1298.42 1110.8 1298.83 1110.27L1294.85 1107.25C1295.85 1105.93 1296.85 1104.6 1297.84 1103.27L1301.85 1106.27C1302.25 1105.73 1302.64 1105.2 1303.04 1104.66L1299.03 1101.68C1300.02 1100.35 1301 1099.02 1301.98 1097.68L1306.02 1100.63C1306.41 1100.09 1306.8 1099.55 1307.2 1099.01L1303.15 1096.07C1304.13 1094.73 1305.1 1093.39 1306.06 1092.04L1310.13 1094.95C1310.52 1094.41 1310.9 1093.86 1311.29 1093.32L1307.22 1090.42C1308.18 1089.07 1309.13 1087.72 1310.08 1086.36L1314.18 1089.22C1314.56 1088.68 1314.94 1088.13 1315.33 1087.58L1311.22 1084.73C1311.8 1083.89 1312.38 1083.05 1312.95 1082.22C1313.32 1081.69 1313.68 1081.16 1314.04 1080.63L1318.17 1083.45C1318.55 1082.9 1318.92 1082.35 1319.3 1081.79L1315.16 1078.98C1316.09 1077.61 1317.02 1076.24 1317.94 1074.86L1322.1 1077.64C1322.47 1077.08 1322.84 1076.53 1323.21 1075.97L1319.04 1073.21C1319.96 1071.82 1320.87 1070.44 1321.77 1069.05L1325.96 1071.79C1326.33 1071.23 1326.69 1070.67 1327.05 1070.1L1322.86 1067.39C1323.76 1066 1324.65 1064.6 1325.55 1063.2L1329.76 1065.89C1330.12 1065.33 1330.48 1064.76 1330.84 1064.2L1326.61 1061.52C1327.5 1060.12 1328.38 1058.72 1329.26 1057.31L1333.5 1059.95C1333.85 1059.38 1334.21 1058.81 1334.56 1058.25L1330.31 1055.62C1331.18 1054.21 1332.04 1052.79 1332.9 1051.37L1337.18 1053.97C1337.53 1053.4 1337.87 1052.83 1338.22 1052.26L1333.93 1049.67C1334.55 1048.66 1335.16 1047.63 1335.77 1046.61C1336.01 1046.21 1336.25 1045.81 1336.48 1045.41L1340.78 1047.96C1341.12 1047.38 1341.46 1046.81 1341.8 1046.23L1337.49 1043.7C1338.33 1042.27 1339.17 1040.84 1340 1039.4L1344.33 1041.91C1344.66 1041.33 1345 1040.75 1345.33 1040.17L1340.99 1037.68C1341.82 1036.24 1342.64 1034.8 1343.45 1033.36L1347.81 1035.81C1348.14 1035.23 1348.46 1034.65 1348.79 1034.07L1344.43 1031.62C1345.24 1030.18 1346.04 1028.73 1346.84 1027.27L1351.22 1029.68C1351.55 1029.09 1351.87 1028.51 1352.19 1027.92L1347.8 1025.52C1348.59 1024.07 1349.38 1022.61 1350.16 1021.15L1354.57 1023.52C1354.88 1022.93 1355.2 1022.34 1355.51 1021.75L1351.1 1019.4C1351.88 1017.94 1352.65 1016.47 1353.41 1015.01L1357.85 1017.32C1358.16 1016.73 1358.46 1016.13 1358.77 1015.54L1354.33 1013.24C1355.09 1011.77 1355.85 1010.3 1356.6 1008.82L1361.06 1011.08C1361.36 1010.49 1361.66 1009.89 1361.97 1009.29L1357.5 1007.04C1358.25 1005.56 1358.99 1004.08 1359.73 1002.59L1364.21 1004.81C1364.5 1004.21 1364.8 1003.61 1365.09 1003.01L1360.61 1000.81C1361.34 999.316 1362.06 997.824 1362.78 996.328L1367.29 998.497C1367.58 997.896 1367.87 997.295 1368.15 996.693L1363.64 994.538C1364.36 993.044 1365.06 991.548 1365.77 990.048L1370.29 992.169C1370.58 991.564 1370.86 990.959 1371.14 990.354L1366.61 988.247C1367.3 986.745 1368 985.24 1368.68 983.732L1373.23 985.803C1373.51 985.195 1373.79 984.587 1374.06 983.978L1369.5 981.92C1370.18 980.41 1370.86 978.896 1371.53 977.379L1376.1 979.401C1376.38 978.789 1376.64 978.177 1376.91 977.565L1372.33 975.557C1373 974.038 1373.66 972.515 1374.32 970.99L1378.91 972.962C1379.17 972.347 1379.44 971.732 1379.7 971.116L1375.1 969.158C1375.75 967.635 1376.39 966.108 1377.03 964.579L1381.64 966.501C1381.9 965.885 1382.15 965.269 1382.41 964.653L1377.79 962.744C1378.05 962.098 1378.32 961.451 1378.58 960.803C1378.95 959.918 1379.31 959.033 1379.66 958.146L1384.3 960.018C1384.55 959.399 1384.8 958.78 1385.05 958.16L1380.41 956.302C1380.76 955.414 1381.11 954.526 1381.47 953.637C1381.72 952.984 1381.98 952.332 1382.24 951.679L1386.89 953.501C1387.14 952.878 1387.38 952.256 1387.62 951.632L1382.96 949.825C1383.56 948.279 1384.15 946.729 1384.74 945.178L1389.42 946.949C1389.65 946.323 1389.89 945.697 1390.12 945.071L1385.44 943.314C1386.03 941.76 1386.6 940.203 1387.17 938.643L1391.87 940.363C1392.1 939.737 1392.33 939.111 1392.55 938.484L1387.85 936.778C1388.18 935.871 1388.51 934.964 1388.84 934.055C1389.07 933.406 1389.3 932.756 1389.53 932.106L1394.24 933.776C1394.47 933.147 1394.69 932.518 1394.91 931.888L1390.19 930.233C1390.74 928.671 1391.28 927.106 1391.82 925.538L1396.55 927.156C1396.76 926.525 1396.98 925.892 1397.19 925.259L1392.46 923.655C1392.77 922.727 1393.08 921.798 1393.39 920.869C1393.61 920.225 1393.82 919.582 1394.04 918.938L1398.78 920.505C1398.99 919.87 1399.2 919.234 1399.41 918.599L1394.66 917.046C1395.17 915.469 1395.68 913.889 1396.18 912.306L1400.95 913.822C1401.15 913.184 1401.35 912.545 1401.55 911.906L1396.79 910.406C1397.28 908.826 1397.77 907.244 1398.26 905.659L1403.04 907.123C1403.23 906.486 1403.43 905.848 1403.62 905.21L1398.84 903.761C1399.32 902.178 1399.79 900.592 1400.26 899.004L1405.05 900.416C1405.24 899.775 1405.43 899.135 1405.62 898.494L1400.81 897.097C1401.28 895.507 1401.73 893.914 1402.19 892.319L1407 893.678C1407.18 893.035 1407.36 892.392 1407.54 891.748L1402.72 890.403C1403.17 888.806 1403.61 887.206 1404.04 885.604L1408.87 886.911C1409.04 886.266 1409.22 885.619 1409.39 884.973L1404.56 883.68C1404.99 882.076 1405.41 880.469 1405.83 878.86L1410.67 880.115C1410.84 879.468 1411.01 878.821 1411.17 878.173L1406.33 876.933C1406.74 875.333 1407.14 873.73 1407.54 872.124L1412.39 873.327C1412.55 872.68 1412.71 872.032 1412.87 871.384L1408.01 870.197C1408.41 868.59 1408.79 866.98 1409.17 865.368L1414.04 866.518C1414.19 865.868 1414.35 865.218 1414.5 864.568L1409.63 863.433C1410 861.819 1410.37 860.203 1410.74 858.585L1415.62 859.682C1415.76 859.029 1415.91 858.377 1416.05 857.724L1411.17 856.642C1411.53 855.021 1411.88 853.399 1412.23 851.774L1417.12 852.818C1417.26 852.163 1417.4 851.508 1417.54 850.852L1412.64 849.823C1412.99 848.201 1413.32 846.575 1413.65 844.948L1418.55 845.939C1418.68 845.286 1418.81 844.633 1418.94 843.98L1414.04 843.004C1414.36 841.383 1414.68 839.761 1414.99 838.136L1419.9 839.074C1420.03 838.419 1420.15 837.763 1420.27 837.108L1415.36 836.185C1415.66 834.558 1415.96 832.929 1416.26 831.298L1421.18 832.183C1421.3 831.526 1421.41 830.868 1421.53 830.21L1416.61 829.34C1416.9 827.707 1417.18 826.072 1417.45 824.435L1422.38 825.267C1422.5 824.607 1422.61 823.947 1422.72 823.287L1417.78 822.47C1418.05 820.831 1418.32 819.191 1418.58 817.548L1423.52 818.327C1423.62 817.664 1423.72 817.002 1423.83 816.339L1418.89 815.576C1419.14 813.942 1419.38 812.307 1419.62 810.669L1424.57 811.395C1424.67 810.736 1424.76 810.077 1424.86 809.417L1419.91 808.707C1420.14 807.071 1420.37 805.433 1420.59 803.793L1425.55 804.465C1425.64 803.804 1425.73 803.142 1425.82 802.481L1420.86 801.824C1421.08 800.182 1421.29 798.538 1421.49 796.893L1426.45 797.512C1426.54 796.848 1426.62 796.185 1426.7 795.521L1421.74 794.917C1421.94 793.27 1422.13 791.621 1422.32 789.971L1427.29 790.536C1427.36 789.87 1427.44 789.205 1427.51 788.539L1422.54 787.989C1422.72 786.336 1422.9 784.682 1423.07 783.026L1428.04 783.538C1428.11 782.874 1428.18 782.209 1428.25 781.545L1423.27 781.048C1423.44 779.406 1423.59 777.763 1423.74 776.117L1428.72 776.576C1428.78 775.913 1428.84 775.249 1428.9 774.585L1423.92 774.142C1424.07 772.495 1424.21 770.846 1424.34 769.196L1429.33 769.601C1429.38 768.936 1429.44 768.271 1429.49 767.605L1424.5 767.214C1424.63 765.563 1424.76 763.909 1424.87 762.254L1429.86 762.606C1429.91 761.939 1429.95 761.271 1430 760.603L1425.01 760.266C1425.12 758.61 1425.23 756.951 1425.33 755.291L1430.32 755.59C1430.36 754.921 1430.4 754.252 1430.43 753.582L1425.44 753.298C1425.54 751.64 1425.63 749.981 1425.71 748.319L1430.7 748.565C1430.73 747.901 1430.77 747.237 1430.8 746.572L1425.8 746.342C1425.88 744.693 1425.95 743.043 1426.01 741.392L1431.01 741.584C1431.03 740.919 1431.06 740.253 1431.08 739.587L1426.08 739.409C1426.14 737.756 1426.2 736.101 1426.24 734.445L1431.24 734.585C1431.26 733.918 1431.28 733.25 1431.29 732.582L1426.29 732.457C1426.34 730.8 1426.37 729.141 1426.4 727.48L1431.4 727.567C1431.41 726.898 1431.42 726.229 1431.43 725.559L1426.43 725.487C1426.46 723.826 1426.47 722.162 1426.48 720.498L1431.48 720.532C1431.49 719.861 1431.49 719.19 1431.5 718.518L1426.5 718.499C1426.5 717.667 1426.5 716.833 1426.5 716C1426.5 715.43 1426.5 714.86 1426.5 714.29L1426.5 713.5L1431.5 713.481Z" stroke="black" stroke-width="10" stroke-dasharray="5 2"/>
</g>
<path d="M799.5 727.5C799.5 716.73 790.77 708 780 708C769.23 708 760.5 716.73 760.5 727.5" stroke="#343334" stroke-width="2" stroke-dasharray="2 4"/>
<g filter="url(#filter0_d_6_495)">
<path d="M138.756 716H751.244C754.811 716 756.104 716.371 757.407 717.069C758.711 717.766 759.734 718.789 760.431 720.093C761.129 721.396 761.5 722.689 761.5 726.256V1300.74C761.5 1304.31 761.129 1305.6 760.431 1306.91C759.734 1308.21 758.711 1309.23 757.407 1309.93C756.104 1310.63 754.811 1311 751.244 1311H138.756C135.189 1311 133.896 1310.63 132.593 1309.93C131.289 1309.23 130.266 1308.21 129.569 1306.91C128.871 1305.6 128.5 1304.31 128.5 1300.74V726.256C128.5 722.689 128.871 721.396 129.569 720.093C130.266 718.789 131.289 717.766 132.593 717.069C133.896 716.371 135.189 716 138.756 716Z" fill="black"/>
</g>
<path d="M138.756 716H751.244C754.811 716 756.104 716.371 757.407 717.069C758.711 717.766 759.734 718.789 760.431 720.093C761.129 721.396 761.5 722.689 761.5 726.256V1300.74C761.5 1304.31 761.129 1305.6 760.431 1306.91C759.734 1308.21 758.711 1309.23 757.407 1309.93C756.104 1310.63 754.811 1311 751.244 1311H138.756C135.189 1311 133.896 1310.63 132.593 1309.93C131.289 1309.23 130.266 1308.21 129.569 1306.91C128.871 1305.6 128.5 1304.31 128.5 1300.74V726.256C128.5 722.689 128.871 721.396 129.569 720.093C130.266 718.789 131.289 717.766 132.593 717.069C133.896 716.371 135.189 716 138.756 716Z" fill="white"/>
<g filter="url(#filter1_d_6_495)">
<path d="M808.756 716H1421.24C1424.81 716 1426.1 716.371 1427.41 717.069C1428.71 717.766 1429.73 718.789 1430.43 720.093C1431.13 721.396 1431.5 722.689 1431.5 726.256V1300.74C1431.5 1304.31 1431.13 1305.6 1430.43 1306.91C1429.73 1308.21 1428.71 1309.23 1427.41 1309.93C1426.1 1310.63 1424.81 1311 1421.24 1311H808.756C805.189 1311 803.896 1310.63 802.593 1309.93C801.289 1309.23 800.266 1308.21 799.569 1306.91C798.871 1305.6 798.5 1304.31 798.5 1300.74V726.256C798.5 722.689 798.871 721.396 799.569 720.093C800.266 718.789 801.289 717.766 802.593 717.069C803.896 716.371 805.189 716 808.756 716Z" fill="black"/>
</g>
<path d="M808.756 716H1421.24C1424.81 716 1426.1 716.371 1427.41 717.069C1428.71 717.766 1429.73 718.789 1430.43 720.093C1431.13 721.396 1431.5 722.689 1431.5 726.256V1300.74C1431.5 1304.31 1431.13 1305.6 1430.43 1306.91C1429.73 1308.21 1428.71 1309.23 1427.41 1309.93C1426.1 1310.63 1424.81 1311 1421.24 1311H808.756C805.189 1311 803.896 1310.63 802.593 1309.93C801.289 1309.23 800.266 1308.21 799.569 1306.91C798.871 1305.6 798.5 1304.31 798.5 1300.74V726.256C798.5 722.689 798.871 721.396 799.569 720.093C800.266 718.789 801.289 717.766 802.593 717.069C803.896 716.371 805.189 716 808.756 716Z" fill="white"/>
<path d="M337.5 773H159.5V963H337.5V773Z" fill="#D8D8D8"/>
<path d="M533.5 773H356.5V963H533.5V773Z" fill="#D8D8D8"/>
<path d="M730.5 773H552.5V963H730.5V773Z" fill="#D8D8D8"/>
<path d="M1134.5 787H1014.5V977H1134.5V787Z" fill="#D8D8D8"/>
<path d="M1266.5 787H1147.5V977H1266.5V787Z" fill="#D8D8D8"/>
<path d="M1399.5 787H1279.5V977H1399.5V787Z" fill="#D8D8D8"/>
<path d="M980.5 766V1001" stroke="#979797" stroke-width="2" stroke-linecap="square" stroke-dasharray="2 8"/>
</g>
<defs>
<filter id="filter0_d_6_495" x="122.5" y="714" width="645" height="607" filterUnits="userSpaceOnUse" color-interpolation-filters="sRGB">
<feFlood flood-opacity="0" result="BackgroundImageFix"/>
<feColorMatrix in="SourceAlpha" type="matrix" values="0 0 0 0 0 0 0 0 0 0 0 0 0 0 0 0 0 0 127 0" result="hardAlpha"/>
<feOffset dy="4"/>
<feGaussianBlur stdDeviation="3"/>
<feColorMatrix type="matrix" values="0 0 0 0 0 0 0 0 0 0 0 0 0 0 0 0 0 0 0.4 0"/>
<feBlend mode="normal" in2="BackgroundImageFix" result="effect1_dropShadow_6_495"/>
<feBlend mode="normal" in="SourceGraphic" in2="effect1_dropShadow_6_495" result="shape"/>
</filter>
<filter id="filter1_d_6_495" x="792.5" y="714" width="645" height="607" filterUnits="userSpaceOnUse" color-interpolation-filters="sRGB">
<feFlood flood-opacity="0" result="BackgroundImageFix"/>
<feColorMatrix in="SourceAlpha" type="matrix" values="0 0 0 0 0 0 0 0 0 0 0 0 0 0 0 0 0 0 127 0" result="hardAlpha"/>
<feOffset dy="4"/>
<feGaussianBlur stdDeviation="3"/>
<feColorMatrix type="matrix" values="0 0 0 0 0 0 0 0 0 0 0 0 0 0 0 0 0 0 0.4 0"/>
<feBlend mode="normal" in2="BackgroundImageFix" result="effect1_dropShadow_6_495"/>
<feBlend mode="normal" in="SourceGraphic" in2="effect1_dropShadow_6_495" result="shape"/>
</filter>
<clipPath id="clip0_6_495">
<rect width="1559" height="914" fill="white"/>
</clipPath>
</defs>
</svg>
