<svg width="1559" height="644" viewBox="0 0 1559 644" fill="none" xmlns="http://www.w3.org/2000/svg">
<rect width="1559" height="644" fill="#F1FFF7"/>
<mask id="mask0_6_739" style="mask-type:luminance" maskUnits="userSpaceOnUse" x="373" y="57" width="247" height="247">
<path d="M598 64H395C386.716 64 380 70.7157 380 79V282C380 290.284 386.716 297 395 297H598C606.284 297 613 290.284 613 282V79C613 70.7157 606.284 64 598 64Z" stroke="#979797" stroke-width="14" stroke-dasharray="10 12"/>
</mask>
<g mask="url(#mask0_6_739)">
<path d="M598 64H395C386.716 64 380 70.7157 380 79V282C380 290.284 386.716 297 395 297H598C606.284 297 613 290.284 613 282V79C613 70.7157 606.284 64 598 64Z" stroke="#979797" stroke-width="14" stroke-dasharray="10 12"/>
</g>
<mask id="mask1_6_739" style="mask-type:luminance" maskUnits="userSpaceOnUse" x="656" y="57" width="247" height="247">
<path d="M881 64H678C669.716 64 663 70.7157 663 79V282C663 290.284 669.716 297 678 297H881C889.284 297 896 290.284 896 282V79C896 70.7157 889.284 64 881 64Z" stroke="#979797" stroke-width="14" stroke-dasharray="10 12"/>
</mask>
<g mask="url(#mask1_6_739)">
<path d="M881 64H678C669.716 64 663 70.7157 663 79V282C663 290.284 669.716 297 678 297H881C889.284 297 896 290.284 896 282V79C896 70.7157 889.284 64 881 64Z" stroke="#979797" stroke-width="14" stroke-dasharray="10 12"/>
</g>
<mask id="mask2_6_739" style="mask-type:luminance" maskUnits="userSpaceOnUse" x="939" y="57" width="247" height="247">
<path d="M1164 64H961C952.716 64 946 70.7157 946 79V282C946 290.284 952.716 297 961 297H1164C1172.28 297 1179 290.284 1179 282V79C1179 70.7157 1172.28 64 1164 64Z" stroke="#979797" stroke-width="14" stroke-dasharray="10 12"/>
</mask>
<g mask="url(#mask2_6_739)">
<path d="M1164 64H961C952.716 64 946 70.7157 946 79V282C946 290.284 952.716 297 961 297H1164C1172.28 297 1179 290.284 1179 282V79C1179 70.7157 1172.28 64 1164 64Z" stroke="#979797" stroke-width="14" stroke-dasharray="10 12"/>
</g>
<mask id="mask3_6_739" style="mask-type:luminance" maskUnits="userSpaceOnUse" x="373" y="340" width="247" height="247">
<path d="M598 347H395C386.716 347 380 353.716 380 362V565C380 573.284 386.716 580 395 580H598C606.284 580 613 573.284 613 565V362C613 353.716 606.284 347 598 347Z" stroke="#979797" stroke-width="14" stroke-dasharray="10 12"/>
</mask>
<g mask="url(#mask3_6_739)">
<path d="M598 347H395C386.716 347 380 353.716 380 362V565C380 573.284 386.716 580 395 580H598C606.284 580 613 573.284 613 565V362C613 353.716 606.284 347 598 347Z" stroke="#979797" stroke-width="14" stroke-dasharray="10 12"/>
</g>
<mask id="mask4_6_739" style="mask-type:luminance" maskUnits="userSpaceOnUse" x="656" y="340" width="247" height="247">
<path d="M881 347H678C669.716 347 663 353.716 663 362V565C663 573.284 669.716 580 678 580H881C889.284 580 896 573.284 896 565V362C896 353.716 889.284 347 881 347Z" stroke="#979797" stroke-width="14" stroke-dasharray="10 12"/>
</mask>
<g mask="url(#mask4_6_739)">
<path d="M881 347H678C669.716 347 663 353.716 663 362V565C663 573.284 669.716 580 678 580H881C889.284 580 896 573.284 896 565V362C896 353.716 889.284 347 881 347Z" stroke="#979797" stroke-width="14" stroke-dasharray="10 12"/>
</g>
<mask id="mask5_6_739" style="mask-type:luminance" maskUnits="userSpaceOnUse" x="939" y="340" width="247" height="247">
<path d="M1164 347H961C952.716 347 946 353.716 946 362V565C946 573.284 952.716 580 961 580H1164C1172.28 580 1179 573.284 1179 565V362C1179 353.716 1172.28 347 1164 347Z" stroke="#979797" stroke-width="14" stroke-dasharray="10 12"/>
</mask>
<g mask="url(#mask5_6_739)">
<path d="M1164 347H961C952.716 347 946 353.716 946 362V565C946 573.284 952.716 580 961 580H1164C1172.28 580 1179 573.284 1179 565V362C1179 353.716 1172.28 347 1164 347Z" stroke="#979797" stroke-width="14" stroke-dasharray="10 12"/>
</g>
</svg>
