<svg width="1559" height="712" viewBox="0 0 1559 712" fill="none" xmlns="http://www.w3.org/2000/svg">
<rect width="1559" height="712" fill="#F1FFF7"/>
<path d="M246.5 83.8182C246.296 82.0909 245.466 80.75 244.012 79.7955C242.557 78.8409 240.773 78.3636 238.659 78.3636C237.114 78.3636 235.762 78.6136 234.602 79.1136C233.455 79.6136 232.557 80.3011 231.909 81.1761C231.273 82.0511 230.955 83.0455 230.955 84.1591C230.955 85.0909 231.176 85.892 231.62 86.5625C232.074 87.2216 232.654 87.7727 233.358 88.2159C234.063 88.6477 234.801 89.0057 235.574 89.2898C236.347 89.5625 237.057 89.7841 237.705 89.9545L241.25 90.9091C242.159 91.1477 243.171 91.4773 244.284 91.8977C245.409 92.3182 246.483 92.892 247.506 93.6193C248.54 94.3352 249.392 95.2557 250.063 96.3807C250.733 97.5057 251.068 98.8864 251.068 100.523C251.068 102.409 250.574 104.114 249.585 105.636C248.608 107.159 247.176 108.369 245.29 109.267C243.415 110.165 241.137 110.614 238.455 110.614C235.955 110.614 233.79 110.21 231.96 109.403C230.142 108.597 228.71 107.472 227.665 106.028C226.631 104.585 226.046 102.909 225.909 101H230.273C230.387 102.318 230.83 103.409 231.602 104.273C232.387 105.125 233.375 105.761 234.568 106.182C235.773 106.591 237.068 106.795 238.455 106.795C240.068 106.795 241.517 106.534 242.801 106.011C244.085 105.477 245.102 104.739 245.852 103.795C246.602 102.841 246.977 101.727 246.977 100.455C246.977 99.2955 246.654 98.3523 246.006 97.625C245.358 96.8977 244.506 96.3068 243.449 95.8523C242.392 95.3977 241.25 95 240.023 94.6591L235.727 93.4318C233 92.6477 230.841 91.5284 229.25 90.0739C227.659 88.6193 226.864 86.7159 226.864 84.3636C226.864 82.4091 227.392 80.7045 228.449 79.25C229.517 77.7841 230.949 76.6477 232.745 75.8409C234.551 75.0227 236.568 74.6136 238.796 74.6136C241.046 74.6136 243.046 75.017 244.796 75.8239C246.546 76.6193 247.932 77.7102 248.955 79.0966C249.989 80.483 250.534 82.0568 250.591 83.8182H246.5ZM268.86 83.8182V87.2273H255.291V83.8182H268.86ZM259.246 77.5455H263.269V102.5C263.269 103.636 263.433 104.489 263.763 105.057C264.104 105.614 264.536 105.989 265.058 106.182C265.593 106.364 266.155 106.455 266.746 106.455C267.189 106.455 267.553 106.432 267.837 106.386C268.121 106.33 268.348 106.284 268.519 106.25L269.337 109.864C269.064 109.966 268.683 110.068 268.195 110.17C267.706 110.284 267.087 110.341 266.337 110.341C265.2 110.341 264.087 110.097 262.996 109.608C261.916 109.119 261.019 108.375 260.303 107.375C259.598 106.375 259.246 105.114 259.246 103.591V77.5455ZM274.911 110V83.8182H278.797V87.7727H279.07C279.547 86.4773 280.411 85.4261 281.661 84.6193C282.911 83.8125 284.32 83.4091 285.888 83.4091C286.183 83.4091 286.553 83.4148 286.996 83.4261C287.439 83.4375 287.774 83.4545 288.002 83.4773V87.5682C287.865 87.5341 287.553 87.483 287.064 87.4148C286.587 87.3352 286.081 87.2955 285.547 87.2955C284.274 87.2955 283.138 87.5625 282.138 88.0966C281.149 88.6193 280.365 89.3466 279.786 90.2784C279.218 91.1989 278.933 92.25 278.933 93.4318V110H274.911ZM302.61 110.545C300.246 110.545 298.172 109.983 296.388 108.858C294.615 107.733 293.229 106.159 292.229 104.136C291.24 102.114 290.746 99.75 290.746 97.0455C290.746 94.3182 291.24 91.9375 292.229 89.9034C293.229 87.8693 294.615 86.2898 296.388 85.1648C298.172 84.0398 300.246 83.4773 302.61 83.4773C304.973 83.4773 307.041 84.0398 308.814 85.1648C310.598 86.2898 311.985 87.8693 312.973 89.9034C313.973 91.9375 314.473 94.3182 314.473 97.0455C314.473 99.75 313.973 102.114 312.973 104.136C311.985 106.159 310.598 107.733 308.814 108.858C307.041 109.983 304.973 110.545 302.61 110.545ZM302.61 106.932C304.405 106.932 305.882 106.472 307.041 105.551C308.2 104.631 309.058 103.42 309.615 101.92C310.172 100.42 310.45 98.7955 310.45 97.0455C310.45 95.2955 310.172 93.6648 309.615 92.1534C309.058 90.642 308.2 89.4205 307.041 88.4886C305.882 87.5568 304.405 87.0909 302.61 87.0909C300.814 87.0909 299.337 87.5568 298.178 88.4886C297.019 89.4205 296.161 90.642 295.604 92.1534C295.047 93.6648 294.769 95.2955 294.769 97.0455C294.769 98.7955 295.047 100.42 295.604 101.92C296.161 103.42 297.019 104.631 298.178 105.551C299.337 106.472 300.814 106.932 302.61 106.932ZM324.637 94.25V110H320.614V83.8182H324.5V87.9091H324.841C325.455 86.5795 326.387 85.5114 327.637 84.7045C328.887 83.8864 330.5 83.4773 332.477 83.4773C334.25 83.4773 335.801 83.8409 337.131 84.5682C338.46 85.2841 339.495 86.375 340.233 87.8409C340.972 89.2955 341.341 91.1364 341.341 93.3636V110H337.318V93.6364C337.318 91.5795 336.784 89.9773 335.716 88.8295C334.648 87.6705 333.182 87.0909 331.318 87.0909C330.034 87.0909 328.887 87.3693 327.875 87.9261C326.875 88.483 326.085 89.2955 325.506 90.3636C324.926 91.4318 324.637 92.7273 324.637 94.25ZM359.26 120.364C357.317 120.364 355.646 120.114 354.249 119.614C352.851 119.125 351.686 118.477 350.754 117.67C349.834 116.875 349.101 116.023 348.556 115.114L351.76 112.864C352.124 113.341 352.584 113.886 353.141 114.5C353.698 115.125 354.459 115.665 355.425 116.119C356.402 116.585 357.681 116.818 359.26 116.818C361.374 116.818 363.118 116.307 364.493 115.284C365.868 114.261 366.556 112.659 366.556 110.477V105.159H366.215C365.919 105.636 365.499 106.227 364.953 106.932C364.419 107.625 363.646 108.244 362.635 108.79C361.635 109.324 360.283 109.591 358.578 109.591C356.465 109.591 354.567 109.091 352.885 108.091C351.215 107.091 349.891 105.636 348.914 103.727C347.948 101.818 347.465 99.5 347.465 96.7727C347.465 94.0909 347.936 91.7557 348.879 89.767C349.823 87.767 351.135 86.2216 352.817 85.1307C354.499 84.0284 356.442 83.4773 358.646 83.4773C360.351 83.4773 361.703 83.7614 362.703 84.3295C363.715 84.8864 364.487 85.5227 365.021 86.2386C365.567 86.9432 365.987 87.5227 366.283 87.9773H366.692V83.8182H370.578V110.75C370.578 113 370.067 114.83 369.044 116.239C368.033 117.659 366.669 118.699 364.953 119.358C363.249 120.028 361.351 120.364 359.26 120.364ZM359.124 105.977C360.737 105.977 362.101 105.608 363.215 104.869C364.328 104.131 365.175 103.068 365.754 101.682C366.334 100.295 366.624 98.6364 366.624 96.7045C366.624 94.8182 366.34 93.1534 365.771 91.7102C365.203 90.267 364.362 89.1364 363.249 88.3182C362.135 87.5 360.76 87.0909 359.124 87.0909C357.419 87.0909 355.999 87.5227 354.862 88.3864C353.737 89.25 352.891 90.4091 352.323 91.8636C351.766 93.3182 351.487 94.9318 351.487 96.7045C351.487 98.5227 351.771 100.131 352.34 101.528C352.919 102.915 353.771 104.006 354.896 104.801C356.033 105.585 357.442 105.977 359.124 105.977ZM412.851 83.8182L403.169 110H399.078L389.396 83.8182H393.76L400.987 104.682H401.26L408.487 83.8182H412.851ZM418.161 110V83.8182H422.183V110H418.161ZM420.206 79.4545C419.422 79.4545 418.746 79.1875 418.178 78.6534C417.621 78.1193 417.343 77.4773 417.343 76.7273C417.343 75.9773 417.621 75.3352 418.178 74.8011C418.746 74.267 419.422 74 420.206 74C420.99 74 421.661 74.267 422.218 74.8011C422.786 75.3352 423.07 75.9773 423.07 76.7273C423.07 77.4773 422.786 78.1193 422.218 78.6534C421.661 79.1875 420.99 79.4545 420.206 79.4545ZM448.097 89.6818L444.483 90.7045C444.256 90.1023 443.921 89.517 443.477 88.9489C443.046 88.3693 442.455 87.892 441.705 87.517C440.955 87.142 439.995 86.9545 438.824 86.9545C437.222 86.9545 435.887 87.3239 434.818 88.0625C433.762 88.7898 433.233 89.7159 433.233 90.8409C433.233 91.8409 433.597 92.6307 434.324 93.2102C435.051 93.7898 436.188 94.2727 437.733 94.6591L441.62 95.6136C443.96 96.1818 445.705 97.0511 446.852 98.2216C448 99.3807 448.574 100.875 448.574 102.705C448.574 104.205 448.142 105.545 447.279 106.727C446.426 107.909 445.233 108.841 443.699 109.523C442.165 110.205 440.381 110.545 438.347 110.545C435.676 110.545 433.466 109.966 431.716 108.807C429.966 107.648 428.858 105.955 428.392 103.727L432.21 102.773C432.574 104.182 433.262 105.239 434.273 105.943C435.296 106.648 436.631 107 438.279 107C440.154 107 441.642 106.602 442.745 105.807C443.858 105 444.415 104.034 444.415 102.909C444.415 102 444.097 101.239 443.46 100.625C442.824 100 441.847 99.5341 440.529 99.2273L436.165 98.2045C433.767 97.6364 432.006 96.7557 430.881 95.5625C429.767 94.358 429.21 92.8523 429.21 91.0455C429.21 89.5682 429.625 88.2614 430.455 87.125C431.296 85.9886 432.438 85.0966 433.881 84.4489C435.335 83.8011 436.983 83.4773 438.824 83.4773C441.415 83.4773 443.449 84.0455 444.926 85.1818C446.415 86.3182 447.472 87.8182 448.097 89.6818ZM471.129 99.2955V83.8182H475.152V110H471.129V105.568H470.857C470.243 106.898 469.289 108.028 467.993 108.96C466.698 109.881 465.061 110.341 463.084 110.341C461.448 110.341 459.993 109.983 458.72 109.267C457.448 108.54 456.448 107.449 455.72 105.994C454.993 104.528 454.629 102.682 454.629 100.455V83.8182H458.652V100.182C458.652 102.091 459.186 103.614 460.254 104.75C461.334 105.886 462.709 106.455 464.379 106.455C465.379 106.455 466.396 106.199 467.431 105.688C468.476 105.176 469.351 104.392 470.056 103.335C470.771 102.278 471.129 100.932 471.129 99.2955ZM490.225 110.614C488.566 110.614 487.06 110.301 485.708 109.676C484.355 109.04 483.281 108.125 482.486 106.932C481.691 105.727 481.293 104.273 481.293 102.568C481.293 101.068 481.588 99.8523 482.179 98.9205C482.77 97.9773 483.56 97.2386 484.548 96.7045C485.537 96.1705 486.628 95.7727 487.821 95.5114C489.026 95.2386 490.236 95.0227 491.452 94.8636C493.043 94.6591 494.333 94.5057 495.321 94.4034C496.321 94.2898 497.048 94.1023 497.503 93.8409C497.969 93.5795 498.202 93.125 498.202 92.4773V92.3409C498.202 90.6591 497.742 89.3523 496.821 88.4205C495.912 87.4886 494.531 87.0227 492.679 87.0227C490.759 87.0227 489.253 87.4432 488.162 88.2841C487.071 89.125 486.304 90.0227 485.861 90.9773L482.043 89.6136C482.725 88.0227 483.634 86.7841 484.77 85.8977C485.918 85 487.168 84.375 488.52 84.0227C489.884 83.6591 491.225 83.4773 492.543 83.4773C493.384 83.4773 494.35 83.5795 495.441 83.7841C496.543 83.9773 497.605 84.3807 498.628 84.9943C499.662 85.608 500.52 86.5341 501.202 87.7727C501.884 89.0114 502.225 90.6705 502.225 92.75V110H498.202V106.455H497.997C497.725 107.023 497.27 107.631 496.634 108.278C495.997 108.926 495.151 109.477 494.094 109.932C493.037 110.386 491.747 110.614 490.225 110.614ZM490.838 107C492.429 107 493.77 106.688 494.861 106.062C495.963 105.438 496.793 104.631 497.35 103.642C497.918 102.653 498.202 101.614 498.202 100.523V96.8409C498.031 97.0455 497.656 97.233 497.077 97.4034C496.509 97.5625 495.85 97.7045 495.1 97.8295C494.361 97.9432 493.639 98.0455 492.935 98.1364C492.242 98.2159 491.679 98.2841 491.247 98.3409C490.202 98.4773 489.225 98.6989 488.316 99.0057C487.418 99.3011 486.691 99.75 486.134 100.352C485.588 100.943 485.316 101.75 485.316 102.773C485.316 104.17 485.833 105.227 486.867 105.943C487.912 106.648 489.236 107 490.838 107ZM513.59 75.0909V110H509.567V75.0909H513.59ZM538.48 94.25V110H534.458V75.0909H538.48V87.9091H538.821C539.435 86.5568 540.355 85.483 541.583 84.6875C542.821 83.8807 544.469 83.4773 546.526 83.4773C548.31 83.4773 549.872 83.8352 551.213 84.5511C552.554 85.2557 553.594 86.3409 554.333 87.8068C555.083 89.2614 555.458 91.1136 555.458 93.3636V110H551.435V93.6364C551.435 91.5568 550.895 89.9489 549.816 88.8125C548.747 87.6648 547.264 87.0909 545.367 87.0909C544.048 87.0909 542.867 87.3693 541.821 87.9261C540.787 88.483 539.969 89.2955 539.367 90.3636C538.776 91.4318 538.48 92.7273 538.48 94.25ZM562.817 110V83.8182H566.84V110H562.817ZM564.862 79.4545C564.078 79.4545 563.402 79.1875 562.834 78.6534C562.277 78.1193 561.999 77.4773 561.999 76.7273C561.999 75.9773 562.277 75.3352 562.834 74.8011C563.402 74.267 564.078 74 564.862 74C565.646 74 566.317 74.267 566.874 74.8011C567.442 75.3352 567.726 75.9773 567.726 76.7273C567.726 77.4773 567.442 78.1193 566.874 78.6534C566.317 79.1875 565.646 79.4545 564.862 79.4545ZM585.185 110.545C582.662 110.545 580.486 109.989 578.656 108.875C576.838 107.75 575.435 106.182 574.446 104.17C573.469 102.148 572.98 99.7955 572.98 97.1136C572.98 94.4318 573.469 92.0682 574.446 90.0227C575.435 87.9659 576.81 86.3636 578.571 85.2159C580.344 84.0568 582.412 83.4773 584.776 83.4773C586.139 83.4773 587.486 83.7045 588.816 84.1591C590.145 84.6136 591.355 85.3523 592.446 86.375C593.537 87.3864 594.406 88.7273 595.054 90.3977C595.702 92.0682 596.026 94.125 596.026 96.5682V98.2727H575.844V94.7955H591.935C591.935 93.3182 591.639 92 591.048 90.8409C590.469 89.6818 589.639 88.767 588.56 88.0966C587.492 87.4261 586.23 87.0909 584.776 87.0909C583.173 87.0909 581.787 87.4886 580.617 88.2841C579.458 89.0682 578.566 90.0909 577.941 91.3523C577.316 92.6136 577.003 93.9659 577.003 95.4091V97.7273C577.003 99.7045 577.344 101.381 578.026 102.756C578.719 104.119 579.679 105.159 580.906 105.875C582.134 106.58 583.56 106.932 585.185 106.932C586.242 106.932 587.196 106.784 588.048 106.489C588.912 106.182 589.656 105.727 590.281 105.125C590.906 104.511 591.389 103.75 591.73 102.841L595.617 103.932C595.208 105.25 594.52 106.409 593.554 107.409C592.588 108.398 591.395 109.17 589.975 109.727C588.554 110.273 586.958 110.545 585.185 110.545ZM602.145 110V83.8182H606.031V87.7727H606.304C606.781 86.4773 607.645 85.4261 608.895 84.6193C610.145 83.8125 611.554 83.4091 613.122 83.4091C613.418 83.4091 613.787 83.4148 614.23 83.4261C614.673 83.4375 615.009 83.4545 615.236 83.4773V87.5682C615.1 87.5341 614.787 87.483 614.298 87.4148C613.821 87.3352 613.316 87.2955 612.781 87.2955C611.509 87.2955 610.372 87.5625 609.372 88.0966C608.384 88.6193 607.6 89.3466 607.02 90.2784C606.452 91.1989 606.168 92.25 606.168 93.4318V110H602.145ZM627.709 110.614C626.05 110.614 624.544 110.301 623.192 109.676C621.84 109.04 620.766 108.125 619.97 106.932C619.175 105.727 618.777 104.273 618.777 102.568C618.777 101.068 619.073 99.8523 619.664 98.9205C620.254 97.9773 621.044 97.2386 622.033 96.7045C623.021 96.1705 624.112 95.7727 625.306 95.5114C626.51 95.2386 627.72 95.0227 628.936 94.8636C630.527 94.6591 631.817 94.5057 632.806 94.4034C633.806 94.2898 634.533 94.1023 634.987 93.8409C635.453 93.5795 635.686 93.125 635.686 92.4773V92.3409C635.686 90.6591 635.226 89.3523 634.306 88.4205C633.396 87.4886 632.016 87.0227 630.164 87.0227C628.243 87.0227 626.737 87.4432 625.646 88.2841C624.556 89.125 623.789 90.0227 623.345 90.9773L619.527 89.6136C620.209 88.0227 621.118 86.7841 622.254 85.8977C623.402 85 624.652 84.375 626.004 84.0227C627.368 83.6591 628.709 83.4773 630.027 83.4773C630.868 83.4773 631.834 83.5795 632.925 83.7841C634.027 83.9773 635.09 84.3807 636.112 84.9943C637.146 85.608 638.004 86.5341 638.686 87.7727C639.368 89.0114 639.709 90.6705 639.709 92.75V110H635.686V106.455H635.482C635.209 107.023 634.754 107.631 634.118 108.278C633.482 108.926 632.635 109.477 631.578 109.932C630.521 110.386 629.232 110.614 627.709 110.614ZM628.323 107C629.914 107 631.254 106.688 632.345 106.062C633.448 105.438 634.277 104.631 634.834 103.642C635.402 102.653 635.686 101.614 635.686 100.523V96.8409C635.516 97.0455 635.141 97.233 634.561 97.4034C633.993 97.5625 633.334 97.7045 632.584 97.8295C631.845 97.9432 631.124 98.0455 630.419 98.1364C629.726 98.2159 629.164 98.2841 628.732 98.3409C627.686 98.4773 626.709 98.6989 625.8 99.0057C624.902 99.3011 624.175 99.75 623.618 100.352C623.073 100.943 622.8 101.75 622.8 102.773C622.8 104.17 623.317 105.227 624.351 105.943C625.396 106.648 626.72 107 628.323 107ZM647.051 110V83.8182H650.938V87.7727H651.21C651.688 86.4773 652.551 85.4261 653.801 84.6193C655.051 83.8125 656.46 83.4091 658.029 83.4091C658.324 83.4091 658.693 83.4148 659.137 83.4261C659.58 83.4375 659.915 83.4545 660.142 83.4773V87.5682C660.006 87.5341 659.693 87.483 659.205 87.4148C658.727 87.3352 658.222 87.2955 657.688 87.2955C656.415 87.2955 655.279 87.5625 654.279 88.0966C653.29 88.6193 652.506 89.3466 651.926 90.2784C651.358 91.1989 651.074 92.25 651.074 93.4318V110H647.051ZM674.75 110.545C672.296 110.545 670.182 109.966 668.409 108.807C666.637 107.648 665.273 106.051 664.318 104.017C663.364 101.983 662.887 99.6591 662.887 97.0455C662.887 94.3864 663.375 92.0398 664.352 90.0057C665.341 87.9602 666.716 86.3636 668.477 85.2159C670.25 84.0568 672.318 83.4773 674.682 83.4773C676.523 83.4773 678.182 83.8182 679.659 84.5C681.137 85.1818 682.347 86.1364 683.29 87.3636C684.233 88.5909 684.818 90.0227 685.046 91.6591H681.023C680.716 90.4659 680.034 89.4091 678.977 88.4886C677.932 87.5568 676.523 87.0909 674.75 87.0909C673.182 87.0909 671.807 87.5 670.625 88.3182C669.455 89.125 668.54 90.267 667.881 91.7443C667.233 93.2102 666.909 94.9318 666.909 96.9091C666.909 98.9318 667.227 100.693 667.864 102.193C668.512 103.693 669.421 104.858 670.591 105.688C671.773 106.517 673.159 106.932 674.75 106.932C675.796 106.932 676.745 106.75 677.597 106.386C678.449 106.023 679.171 105.5 679.762 104.818C680.352 104.136 680.773 103.318 681.023 102.364H685.046C684.818 103.909 684.256 105.301 683.358 106.54C682.472 107.767 681.296 108.744 679.83 109.472C678.375 110.188 676.682 110.545 674.75 110.545ZM694.949 94.25V110H690.926V75.0909H694.949V87.9091H695.29C695.904 86.5568 696.824 85.483 698.051 84.6875C699.29 83.8807 700.938 83.4773 702.995 83.4773C704.779 83.4773 706.341 83.8352 707.682 84.5511C709.023 85.2557 710.063 86.3409 710.801 87.8068C711.551 89.2614 711.926 91.1136 711.926 93.3636V110H707.904V93.6364C707.904 91.5568 707.364 89.9489 706.284 88.8125C705.216 87.6648 703.733 87.0909 701.835 87.0909C700.517 87.0909 699.335 87.3693 698.29 87.9261C697.256 88.483 696.438 89.2955 695.835 90.3636C695.245 91.4318 694.949 92.7273 694.949 94.25ZM720.939 119.818C720.257 119.818 719.649 119.761 719.115 119.648C718.581 119.545 718.212 119.443 718.007 119.341L719.03 115.795C720.007 116.045 720.871 116.136 721.621 116.068C722.371 116 723.036 115.665 723.615 115.062C724.206 114.472 724.746 113.511 725.235 112.182L725.985 110.136L716.303 83.8182H720.666L727.894 104.682H728.166L735.394 83.8182H739.757L728.644 113.818C728.144 115.17 727.524 116.29 726.786 117.176C726.047 118.074 725.189 118.739 724.212 119.17C723.246 119.602 722.155 119.818 720.939 119.818Z" fill="black"/>
<path d="M686.794 173H248.794V648H686.794V173Z" stroke="#C0BFC0" stroke-width="24"/>
<path d="M651.794 208H283.794V245H651.794V208Z" fill="#272727"/>
<path d="M651.794 259H283.794V283H651.794V259Z" fill="#9FA7A7"/>
<path d="M651.794 479H283.794V503H651.794V479Z" fill="#D8D8D8"/>
<path d="M651.794 517H283.794V541H651.794V517Z" fill="#D8D8D8"/>
<path d="M462.794 297H283.794V465H462.794V297Z" fill="#6F7878"/>
<path d="M651.794 297H472.794V411H651.794V297Z" fill="#6F7878"/>
<path d="M562.794 422H472.794V465H562.794V422Z" fill="#6F7878"/>
<path d="M373.794 555H283.794V579H373.794V555Z" fill="#D8D8D8"/>
<path d="M854.386 110L844.841 75.0909H849.136L856.432 103.523H856.773L864.204 75.0909H868.977L876.409 103.523H876.75L884.045 75.0909H888.341L878.795 110H874.432L866.727 82.1818H866.454L858.75 110H854.386ZM901.602 110.545C899.079 110.545 896.903 109.989 895.074 108.875C893.255 107.75 891.852 106.182 890.863 104.17C889.886 102.148 889.398 99.7955 889.398 97.1136C889.398 94.4318 889.886 92.0682 890.863 90.0227C891.852 87.9659 893.227 86.3636 894.988 85.2159C896.761 84.0568 898.829 83.4773 901.193 83.4773C902.557 83.4773 903.903 83.7045 905.233 84.1591C906.562 84.6136 907.773 85.3523 908.863 86.375C909.954 87.3864 910.824 88.7273 911.471 90.3977C912.119 92.0682 912.443 94.125 912.443 96.5682V98.2727H892.261V94.7955H908.352C908.352 93.3182 908.057 92 907.466 90.8409C906.886 89.6818 906.057 88.767 904.977 88.0966C903.909 87.4261 902.648 87.0909 901.193 87.0909C899.591 87.0909 898.204 87.4886 897.034 88.2841C895.875 89.0682 894.983 90.0909 894.358 91.3523C893.733 92.6136 893.42 93.9659 893.42 95.4091V97.7273C893.42 99.7045 893.761 101.381 894.443 102.756C895.136 104.119 896.096 105.159 897.324 105.875C898.551 106.58 899.977 106.932 901.602 106.932C902.659 106.932 903.613 106.784 904.466 106.489C905.329 106.182 906.074 105.727 906.699 105.125C907.324 104.511 907.807 103.75 908.148 102.841L912.034 103.932C911.625 105.25 910.937 106.409 909.971 107.409C909.005 108.398 907.812 109.17 906.392 109.727C904.971 110.273 903.375 110.545 901.602 110.545ZM926.267 110.614C924.608 110.614 923.102 110.301 921.75 109.676C920.398 109.04 919.324 108.125 918.528 106.932C917.733 105.727 917.335 104.273 917.335 102.568C917.335 101.068 917.63 99.8523 918.221 98.9205C918.812 97.9773 919.602 97.2386 920.591 96.7045C921.579 96.1705 922.67 95.7727 923.863 95.5114C925.068 95.2386 926.278 95.0227 927.494 94.8636C929.085 94.6591 930.375 94.5057 931.363 94.4034C932.363 94.2898 933.091 94.1023 933.545 93.8409C934.011 93.5795 934.244 93.125 934.244 92.4773V92.3409C934.244 90.6591 933.784 89.3523 932.863 88.4205C931.954 87.4886 930.574 87.0227 928.721 87.0227C926.801 87.0227 925.295 87.4432 924.204 88.2841C923.113 89.125 922.346 90.0227 921.903 90.9773L918.085 89.6136C918.767 88.0227 919.676 86.7841 920.812 85.8977C921.96 85 923.21 84.375 924.562 84.0227C925.926 83.6591 927.267 83.4773 928.585 83.4773C929.426 83.4773 930.392 83.5795 931.483 83.7841C932.585 83.9773 933.648 84.3807 934.67 84.9943C935.704 85.608 936.562 86.5341 937.244 87.7727C937.926 89.0114 938.267 90.6705 938.267 92.75V110H934.244V106.455H934.04C933.767 107.023 933.312 107.631 932.676 108.278C932.04 108.926 931.193 109.477 930.136 109.932C929.079 110.386 927.79 110.614 926.267 110.614ZM926.88 107C928.471 107 929.812 106.688 930.903 106.062C932.005 105.438 932.835 104.631 933.392 103.642C933.96 102.653 934.244 101.614 934.244 100.523V96.8409C934.074 97.0455 933.699 97.233 933.119 97.4034C932.551 97.5625 931.892 97.7045 931.142 97.8295C930.403 97.9432 929.682 98.0455 928.977 98.1364C928.284 98.2159 927.721 98.2841 927.29 98.3409C926.244 98.4773 925.267 98.6989 924.358 99.0057C923.46 99.3011 922.733 99.75 922.176 100.352C921.63 100.943 921.358 101.75 921.358 102.773C921.358 104.17 921.875 105.227 922.909 105.943C923.954 106.648 925.278 107 926.88 107ZM949.359 100.455L949.291 95.4773H950.109L961.564 83.8182H966.541L954.336 96.1591H953.996L949.359 100.455ZM945.609 110V75.0909H949.632V110H945.609ZM962.246 110L952.018 97.0455L954.882 94.25L967.359 110H962.246ZM1006.63 83.8182L996.946 110H992.855L983.173 83.8182H987.537L994.764 104.682H995.037L1002.26 83.8182H1006.63ZM1011.94 110V83.8182H1015.96V110H1011.94ZM1013.98 79.4545C1013.2 79.4545 1012.52 79.1875 1011.95 78.6534C1011.4 78.1193 1011.12 77.4773 1011.12 76.7273C1011.12 75.9773 1011.4 75.3352 1011.95 74.8011C1012.52 74.267 1013.2 74 1013.98 74C1014.77 74 1015.44 74.267 1015.99 74.8011C1016.56 75.3352 1016.85 75.9773 1016.85 76.7273C1016.85 77.4773 1016.56 78.1193 1015.99 78.6534C1015.44 79.1875 1014.77 79.4545 1013.98 79.4545ZM1041.87 89.6818L1038.26 90.7045C1038.03 90.1023 1037.7 89.517 1037.25 88.9489C1036.82 88.3693 1036.23 87.892 1035.48 87.517C1034.73 87.142 1033.77 86.9545 1032.6 86.9545C1031 86.9545 1029.66 87.3239 1028.59 88.0625C1027.54 88.7898 1027.01 89.7159 1027.01 90.8409C1027.01 91.8409 1027.37 92.6307 1028.1 93.2102C1028.83 93.7898 1029.96 94.2727 1031.51 94.6591L1035.4 95.6136C1037.74 96.1818 1039.48 97.0511 1040.63 98.2216C1041.78 99.3807 1042.35 100.875 1042.35 102.705C1042.35 104.205 1041.92 105.545 1041.06 106.727C1040.2 107.909 1039.01 108.841 1037.48 109.523C1035.94 110.205 1034.16 110.545 1032.12 110.545C1029.45 110.545 1027.24 109.966 1025.49 108.807C1023.74 107.648 1022.63 105.955 1022.17 103.727L1025.99 102.773C1026.35 104.182 1027.04 105.239 1028.05 105.943C1029.07 106.648 1030.41 107 1032.06 107C1033.93 107 1035.42 106.602 1036.52 105.807C1037.63 105 1038.19 104.034 1038.19 102.909C1038.19 102 1037.87 101.239 1037.24 100.625C1036.6 100 1035.62 99.5341 1034.31 99.2273L1029.94 98.2045C1027.54 97.6364 1025.78 96.7557 1024.66 95.5625C1023.54 94.358 1022.99 92.8523 1022.99 91.0455C1022.99 89.5682 1023.4 88.2614 1024.23 87.125C1025.07 85.9886 1026.21 85.0966 1027.66 84.4489C1029.11 83.8011 1030.76 83.4773 1032.6 83.4773C1035.19 83.4773 1037.23 84.0455 1038.7 85.1818C1040.19 86.3182 1041.25 87.8182 1041.87 89.6818ZM1064.91 99.2955V83.8182H1068.93V110H1064.91V105.568H1064.63C1064.02 106.898 1063.07 108.028 1061.77 108.96C1060.47 109.881 1058.84 110.341 1056.86 110.341C1055.22 110.341 1053.77 109.983 1052.5 109.267C1051.22 108.54 1050.22 107.449 1049.5 105.994C1048.77 104.528 1048.41 102.682 1048.41 100.455V83.8182H1052.43V100.182C1052.43 102.091 1052.96 103.614 1054.03 104.75C1055.11 105.886 1056.49 106.455 1058.16 106.455C1059.16 106.455 1060.17 106.199 1061.21 105.688C1062.25 105.176 1063.13 104.392 1063.83 103.335C1064.55 102.278 1064.91 100.932 1064.91 99.2955ZM1084 110.614C1082.34 110.614 1080.84 110.301 1079.48 109.676C1078.13 109.04 1077.06 108.125 1076.26 106.932C1075.47 105.727 1075.07 104.273 1075.07 102.568C1075.07 101.068 1075.36 99.8523 1075.96 98.9205C1076.55 97.9773 1077.34 97.2386 1078.33 96.7045C1079.31 96.1705 1080.4 95.7727 1081.6 95.5114C1082.8 95.2386 1084.01 95.0227 1085.23 94.8636C1086.82 94.6591 1088.11 94.5057 1089.1 94.4034C1090.1 94.2898 1090.83 94.1023 1091.28 93.8409C1091.75 93.5795 1091.98 93.125 1091.98 92.4773V92.3409C1091.98 90.6591 1091.52 89.3523 1090.6 88.4205C1089.69 87.4886 1088.31 87.0227 1086.46 87.0227C1084.54 87.0227 1083.03 87.4432 1081.94 88.2841C1080.85 89.125 1080.08 90.0227 1079.64 90.9773L1075.82 89.6136C1076.5 88.0227 1077.41 86.7841 1078.55 85.8977C1079.69 85 1080.94 84.375 1082.3 84.0227C1083.66 83.6591 1085 83.4773 1086.32 83.4773C1087.16 83.4773 1088.13 83.5795 1089.22 83.7841C1090.32 83.9773 1091.38 84.3807 1092.4 84.9943C1093.44 85.608 1094.3 86.5341 1094.98 87.7727C1095.66 89.0114 1096 90.6705 1096 92.75V110H1091.98V106.455H1091.77C1091.5 107.023 1091.05 107.631 1090.41 108.278C1089.77 108.926 1088.93 109.477 1087.87 109.932C1086.81 110.386 1085.52 110.614 1084 110.614ZM1084.61 107C1086.21 107 1087.55 106.688 1088.64 106.062C1089.74 105.438 1090.57 104.631 1091.13 103.642C1091.69 102.653 1091.98 101.614 1091.98 100.523V96.8409C1091.81 97.0455 1091.43 97.233 1090.85 97.4034C1090.29 97.5625 1089.63 97.7045 1088.88 97.8295C1088.14 97.9432 1087.42 98.0455 1086.71 98.1364C1086.02 98.2159 1085.46 98.2841 1085.02 98.3409C1083.98 98.4773 1083 98.6989 1082.09 99.0057C1081.19 99.3011 1080.47 99.75 1079.91 100.352C1079.36 100.943 1079.09 101.75 1079.09 102.773C1079.09 104.17 1079.61 105.227 1080.64 105.943C1081.69 106.648 1083.01 107 1084.61 107ZM1107.37 75.0909V110H1103.34V75.0909H1107.37ZM1132.26 94.25V110H1128.23V75.0909H1132.26V87.9091H1132.6C1133.21 86.5568 1134.13 85.483 1135.36 84.6875C1136.6 83.8807 1138.25 83.4773 1140.3 83.4773C1142.09 83.4773 1143.65 83.8352 1144.99 84.5511C1146.33 85.2557 1147.37 86.3409 1148.11 87.8068C1148.86 89.2614 1149.23 91.1136 1149.23 93.3636V110H1145.21V93.6364C1145.21 91.5568 1144.67 89.9489 1143.59 88.8125C1142.52 87.6648 1141.04 87.0909 1139.14 87.0909C1137.83 87.0909 1136.64 87.3693 1135.6 87.9261C1134.56 88.483 1133.75 89.2955 1133.14 90.3636C1132.55 91.4318 1132.26 92.7273 1132.26 94.25ZM1156.59 110V83.8182H1160.62V110H1156.59ZM1158.64 79.4545C1157.85 79.4545 1157.18 79.1875 1156.61 78.6534C1156.05 78.1193 1155.78 77.4773 1155.78 76.7273C1155.78 75.9773 1156.05 75.3352 1156.61 74.8011C1157.18 74.267 1157.85 74 1158.64 74C1159.42 74 1160.09 74.267 1160.65 74.8011C1161.22 75.3352 1161.5 75.9773 1161.5 76.7273C1161.5 77.4773 1161.22 78.1193 1160.65 78.6534C1160.09 79.1875 1159.42 79.4545 1158.64 79.4545ZM1178.96 110.545C1176.44 110.545 1174.26 109.989 1172.43 108.875C1170.61 107.75 1169.21 106.182 1168.22 104.17C1167.25 102.148 1166.76 99.7955 1166.76 97.1136C1166.76 94.4318 1167.25 92.0682 1168.22 90.0227C1169.21 87.9659 1170.59 86.3636 1172.35 85.2159C1174.12 84.0568 1176.19 83.4773 1178.55 83.4773C1179.92 83.4773 1181.26 83.7045 1182.59 84.1591C1183.92 84.6136 1185.13 85.3523 1186.22 86.375C1187.31 87.3864 1188.18 88.7273 1188.83 90.3977C1189.48 92.0682 1189.8 94.125 1189.8 96.5682V98.2727H1169.62V94.7955H1185.71C1185.71 93.3182 1185.42 92 1184.83 90.8409C1184.25 89.6818 1183.42 88.767 1182.34 88.0966C1181.27 87.4261 1180.01 87.0909 1178.55 87.0909C1176.95 87.0909 1175.56 87.4886 1174.39 88.2841C1173.23 89.0682 1172.34 90.0909 1171.72 91.3523C1171.09 92.6136 1170.78 93.9659 1170.78 95.4091V97.7273C1170.78 99.7045 1171.12 101.381 1171.8 102.756C1172.5 104.119 1173.46 105.159 1174.68 105.875C1175.91 106.58 1177.34 106.932 1178.96 106.932C1180.02 106.932 1180.97 106.784 1181.83 106.489C1182.69 106.182 1183.43 105.727 1184.06 105.125C1184.68 104.511 1185.17 103.75 1185.51 102.841L1189.39 103.932C1188.98 105.25 1188.3 106.409 1187.33 107.409C1186.36 108.398 1185.17 109.17 1183.75 109.727C1182.33 110.273 1180.73 110.545 1178.96 110.545ZM1195.92 110V83.8182H1199.81V87.7727H1200.08C1200.56 86.4773 1201.42 85.4261 1202.67 84.6193C1203.92 83.8125 1205.33 83.4091 1206.9 83.4091C1207.19 83.4091 1207.56 83.4148 1208.01 83.4261C1208.45 83.4375 1208.79 83.4545 1209.01 83.4773V87.5682C1208.88 87.5341 1208.56 87.483 1208.08 87.4148C1207.6 87.3352 1207.09 87.2955 1206.56 87.2955C1205.29 87.2955 1204.15 87.5625 1203.15 88.0966C1202.16 88.6193 1201.38 89.3466 1200.8 90.2784C1200.23 91.1989 1199.94 92.25 1199.94 93.4318V110H1195.92ZM1221.49 110.614C1219.83 110.614 1218.32 110.301 1216.97 109.676C1215.62 109.04 1214.54 108.125 1213.75 106.932C1212.95 105.727 1212.55 104.273 1212.55 102.568C1212.55 101.068 1212.85 99.8523 1213.44 98.9205C1214.03 97.9773 1214.82 97.2386 1215.81 96.7045C1216.8 96.1705 1217.89 95.7727 1219.08 95.5114C1220.29 95.2386 1221.5 95.0227 1222.71 94.8636C1224.3 94.6591 1225.59 94.5057 1226.58 94.4034C1227.58 94.2898 1228.31 94.1023 1228.76 93.8409C1229.23 93.5795 1229.46 93.125 1229.46 92.4773V92.3409C1229.46 90.6591 1229 89.3523 1228.08 88.4205C1227.17 87.4886 1225.79 87.0227 1223.94 87.0227C1222.02 87.0227 1220.51 87.4432 1219.42 88.2841C1218.33 89.125 1217.57 90.0227 1217.12 90.9773L1213.3 89.6136C1213.99 88.0227 1214.89 86.7841 1216.03 85.8977C1217.18 85 1218.43 84.375 1219.78 84.0227C1221.14 83.6591 1222.49 83.4773 1223.8 83.4773C1224.64 83.4773 1225.61 83.5795 1226.7 83.7841C1227.8 83.9773 1228.87 84.3807 1229.89 84.9943C1230.92 85.608 1231.78 86.5341 1232.46 87.7727C1233.14 89.0114 1233.49 90.6705 1233.49 92.75V110H1229.46V106.455H1229.26C1228.99 107.023 1228.53 107.631 1227.89 108.278C1227.26 108.926 1226.41 109.477 1225.35 109.932C1224.3 110.386 1223.01 110.614 1221.49 110.614ZM1222.1 107C1223.69 107 1225.03 106.688 1226.12 106.062C1227.22 105.438 1228.05 104.631 1228.61 103.642C1229.18 102.653 1229.46 101.614 1229.46 100.523V96.8409C1229.29 97.0455 1228.92 97.233 1228.34 97.4034C1227.77 97.5625 1227.11 97.7045 1226.36 97.8295C1225.62 97.9432 1224.9 98.0455 1224.2 98.1364C1223.5 98.2159 1222.94 98.2841 1222.51 98.3409C1221.46 98.4773 1220.49 98.6989 1219.58 99.0057C1218.68 99.3011 1217.95 99.75 1217.39 100.352C1216.85 100.943 1216.58 101.75 1216.58 102.773C1216.58 104.17 1217.09 105.227 1218.13 105.943C1219.17 106.648 1220.5 107 1222.1 107ZM1240.83 110V83.8182H1244.71V87.7727H1244.99C1245.46 86.4773 1246.33 85.4261 1247.58 84.6193C1248.83 83.8125 1250.24 83.4091 1251.81 83.4091C1252.1 83.4091 1252.47 83.4148 1252.91 83.4261C1253.36 83.4375 1253.69 83.4545 1253.92 83.4773V87.5682C1253.78 87.5341 1253.47 87.483 1252.98 87.4148C1252.5 87.3352 1252 87.2955 1251.46 87.2955C1250.19 87.2955 1249.06 87.5625 1248.06 88.0966C1247.07 88.6193 1246.28 89.3466 1245.7 90.2784C1245.13 91.1989 1244.85 92.25 1244.85 93.4318V110H1240.83ZM1268.53 110.545C1266.07 110.545 1263.96 109.966 1262.19 108.807C1260.41 107.648 1259.05 106.051 1258.09 104.017C1257.14 101.983 1256.66 99.6591 1256.66 97.0455C1256.66 94.3864 1257.15 92.0398 1258.13 90.0057C1259.12 87.9602 1260.49 86.3636 1262.25 85.2159C1264.03 84.0568 1266.09 83.4773 1268.46 83.4773C1270.3 83.4773 1271.96 83.8182 1273.44 84.5C1274.91 85.1818 1276.12 86.1364 1277.07 87.3636C1278.01 88.5909 1278.59 90.0227 1278.82 91.6591H1274.8C1274.49 90.4659 1273.81 89.4091 1272.75 88.4886C1271.71 87.5568 1270.3 87.0909 1268.53 87.0909C1266.96 87.0909 1265.58 87.5 1264.4 88.3182C1263.23 89.125 1262.32 90.267 1261.66 91.7443C1261.01 93.2102 1260.69 94.9318 1260.69 96.9091C1260.69 98.9318 1261 100.693 1261.64 102.193C1262.29 103.693 1263.2 104.858 1264.37 105.688C1265.55 106.517 1266.94 106.932 1268.53 106.932C1269.57 106.932 1270.52 106.75 1271.37 106.386C1272.23 106.023 1272.95 105.5 1273.54 104.818C1274.13 104.136 1274.55 103.318 1274.8 102.364H1278.82C1278.59 103.909 1278.03 105.301 1277.13 106.54C1276.25 107.767 1275.07 108.744 1273.61 109.472C1272.15 110.188 1270.46 110.545 1268.53 110.545ZM1288.73 94.25V110H1284.7V75.0909H1288.73V87.9091H1289.07C1289.68 86.5568 1290.6 85.483 1291.83 84.6875C1293.07 83.8807 1294.71 83.4773 1296.77 83.4773C1298.56 83.4773 1300.12 83.8352 1301.46 84.5511C1302.8 85.2557 1303.84 86.3409 1304.58 87.8068C1305.33 89.2614 1305.7 91.1136 1305.7 93.3636V110H1301.68V93.6364C1301.68 91.5568 1301.14 89.9489 1300.06 88.8125C1298.99 87.6648 1297.51 87.0909 1295.61 87.0909C1294.29 87.0909 1293.11 87.3693 1292.07 87.9261C1291.03 88.483 1290.21 89.2955 1289.61 90.3636C1289.02 91.4318 1288.73 92.7273 1288.73 94.25ZM1314.72 119.818C1314.03 119.818 1313.43 119.761 1312.89 119.648C1312.36 119.545 1311.99 119.443 1311.78 119.341L1312.81 115.795C1313.78 116.045 1314.65 116.136 1315.4 116.068C1316.15 116 1316.81 115.665 1317.39 115.062C1317.98 114.472 1318.52 113.511 1319.01 112.182L1319.76 110.136L1310.08 83.8182H1314.44L1321.67 104.682H1321.94L1329.17 83.8182H1333.53L1322.42 113.818C1321.92 115.17 1321.3 116.29 1320.56 117.176C1319.82 118.074 1318.97 118.739 1317.99 119.17C1317.02 119.602 1315.93 119.818 1314.72 119.818Z" fill="black"/>
<path d="M1296.79 173H858.794V648H1296.79V173Z" stroke="#C0BFC0" stroke-width="24"/>
<path d="M1261.79 420H893.794V444H1261.79V420Z" fill="#9FA7A7"/>
<path d="M1261.79 464H893.794V488H1261.79V464Z" fill="#9FA7A7"/>
<path d="M1261.79 508H893.794V532H1261.79V508Z" fill="#9FA7A7"/>
<path d="M1261.79 596H893.794V620H1261.79V596Z" fill="#9FA7A7"/>
<path d="M1261.79 552H893.794V576H1261.79V552Z" fill="#9FA7A7"/>
<path d="M1261.79 200H893.794V224H1261.79V200Z" fill="#9FA7A7"/>
<path d="M1261.79 244H893.794V268H1261.79V244Z" fill="#9FA7A7"/>
<path d="M1261.79 288H893.794V312H1261.79V288Z" fill="#9FA7A7"/>
<path d="M1261.79 376H893.794V400H1261.79V376Z" fill="#9FA7A7"/>
<path d="M1261.79 332H893.794V356H1261.79V332Z" fill="#9FA7A7"/>
</svg>
