<?xml version="1.0" encoding="UTF-8"?>
<svg width="1440px" height="900px" viewBox="0 0 1440 900" version="1.1" xmlns="http://www.w3.org/2000/svg" xmlns:xlink="http://www.w3.org/1999/xlink">
    <title>screen-sizes</title>
    <defs>
        <filter x="-0.7%" y="-1.1%" width="101.4%" height="102.3%" filterUnits="objectBoundingBox" id="filter-1">
            <feGaussianBlur stdDeviation="3" in="SourceGraphic"></feGaussianBlur>
        </filter>
        <filter x="-0.5%" y="-0.8%" width="100.9%" height="101.6%" filterUnits="objectBoundingBox" id="filter-2">
            <feGaussianBlur stdDeviation="2" in="SourceGraphic"></feGaussianBlur>
        </filter>
        <filter x="-0.7%" y="-1.3%" width="101.4%" height="102.5%" filterUnits="objectBoundingBox" id="filter-3">
            <feGaussianBlur stdDeviation="3" in="SourceGraphic"></feGaussianBlur>
        </filter>
        <filter x="-0.5%" y="-0.9%" width="101.0%" height="101.8%" filterUnits="objectBoundingBox" id="filter-4">
            <feGaussianBlur stdDeviation="2" in="SourceGraphic"></feGaussianBlur>
        </filter>
        <filter x="-0.7%" y="-1.5%" width="101.4%" height="103.0%" filterUnits="objectBoundingBox" id="filter-5">
            <feGaussianBlur stdDeviation="3" in="SourceGraphic"></feGaussianBlur>
        </filter>
        <filter x="-0.8%" y="-1.6%" width="101.7%" height="103.2%" filterUnits="objectBoundingBox" id="filter-6">
            <feGaussianBlur stdDeviation="3" in="SourceGraphic"></feGaussianBlur>
        </filter>
        <filter x="-0.7%" y="-1.7%" width="101.5%" height="103.5%" filterUnits="objectBoundingBox" id="filter-7">
            <feGaussianBlur stdDeviation="3" in="SourceGraphic"></feGaussianBlur>
        </filter>
        <filter x="-0.3%" y="-0.6%" width="100.6%" height="101.1%" filterUnits="objectBoundingBox" id="filter-8">
            <feGaussianBlur stdDeviation="1" in="SourceGraphic"></feGaussianBlur>
        </filter>
        <filter x="-1.0%" y="-1.9%" width="102.0%" height="103.8%" filterUnits="objectBoundingBox" id="filter-9">
            <feGaussianBlur stdDeviation="3" in="SourceGraphic"></feGaussianBlur>
        </filter>
        <filter x="-0.8%" y="-1.4%" width="101.6%" height="102.7%" filterUnits="objectBoundingBox" id="filter-10">
            <feGaussianBlur stdDeviation="2" in="SourceGraphic"></feGaussianBlur>
        </filter>
        <filter x="-3.2%" y="-4.3%" width="106.4%" height="108.6%" filterUnits="objectBoundingBox" id="filter-11">
            <feGaussianBlur stdDeviation="6" in="SourceGraphic"></feGaussianBlur>
        </filter>
        <filter x="-1.4%" y="-1.5%" width="102.7%" height="103.0%" filterUnits="objectBoundingBox" id="filter-12">
            <feGaussianBlur stdDeviation="2" in="SourceGraphic"></feGaussianBlur>
        </filter>
        <filter x="-2.9%" y="-2.4%" width="105.8%" height="104.8%" filterUnits="objectBoundingBox" id="filter-13">
            <feGaussianBlur stdDeviation="3" in="SourceGraphic"></feGaussianBlur>
        </filter>
        <radialGradient cx="0.4953119%" cy="100%" fx="0.4953119%" fy="100%" r="192.180514%" gradientTransform="translate(0.004953,1.000000),scale(0.604444,1.000000),translate(-0.004953,-1.000000)" id="radialGradient-14">
            <stop stop-color="#9372E6" stop-opacity="0.24027535" offset="0%"></stop>
            <stop stop-color="#5A3EC8" offset="100%"></stop>
        </radialGradient>
        <filter x="-0.9%" y="-1.5%" width="101.8%" height="102.9%" filterUnits="objectBoundingBox" id="filter-15">
            <feGaussianBlur stdDeviation="4" in="SourceGraphic"></feGaussianBlur>
        </filter>
    </defs>
    <g id="screen-sizes" stroke="none" stroke-width="1" fill="none" fill-rule="evenodd">
        <rect id="Rectangle" stroke="#5A3EC8" stroke-width="4" x="47" y="58" width="1334" height="798"></rect>
        <rect id="Rectangle" stroke="#5A3EC8" stroke-width="4" filter="url(#filter-1)" x="47" y="71" width="1320" height="785"></rect>
        <rect id="Rectangle" stroke="#5A3EC8" stroke-width="4" x="47" y="88" width="1303" height="768"></rect>
        <rect id="Rectangle" stroke="#5A3EC8" stroke-width="4" filter="url(#filter-2)" x="47" y="105" width="1285" height="751"></rect>
        <rect id="Rectangle" stroke="#5A3EC8" stroke-width="4" filter="url(#filter-3)" x="47" y="141" width="1252" height="715"></rect>
        <rect id="Rectangle" stroke="#5A3EC8" stroke-width="4" x="47" y="158" width="1235" height="698"></rect>
        <rect id="Rectangle" stroke="#5A3EC8" stroke-width="4" x="47" y="175" width="1221" height="681"></rect>
        <rect id="Rectangle" stroke="#5A3EC8" stroke-width="4" filter="url(#filter-4)" x="47" y="195" width="1211" height="661"></rect>
        <rect id="Rectangle" stroke="#5A3EC8" stroke-width="4" x="47" y="237" width="1093" height="619"></rect>
        <rect id="Rectangle" stroke="#5A3EC8" stroke-width="4" filter="url(#filter-5)" x="47" y="255" width="1267" height="601"></rect>
        <rect id="Rectangle" stroke="#5A3EC8" stroke-width="4" x="47" y="274" width="1107" height="582"></rect>
        <rect id="Rectangle" stroke="#5A3EC8" stroke-width="4" filter="url(#filter-6)" x="47" y="296" width="1080" height="560"></rect>
        <rect id="Rectangle" stroke="#5A3EC8" stroke-width="4" x="47" y="315" width="1061" height="541"></rect>
        <rect id="Rectangle" stroke="#5A3EC8" stroke-width="4" filter="url(#filter-7)" x="47" y="339" width="1228" height="517"></rect>
        <rect id="Rectangle" stroke="#5A3EC8" stroke-width="4" x="47" y="356" width="1043" height="500"></rect>
        <rect id="Rectangle" stroke="#5A3EC8" stroke-width="4" x="47" y="375" width="1026" height="481"></rect>
        <rect id="Rectangle" stroke="#5A3EC8" stroke-width="4" x="47" y="393" width="1010" height="463"></rect>
        <rect id="Rectangle" stroke="#5A3EC8" stroke-width="4" filter="url(#filter-8)" x="47" y="326" width="984" height="530"></rect>
        <rect id="Rectangle" stroke="#5A3EC8" stroke-width="4" filter="url(#filter-9)" x="47" y="384" width="914" height="472"></rect>
        <rect id="Rectangle" stroke="#5A3EC8" stroke-width="4" x="47" y="407" width="894" height="449"></rect>
        <rect id="Rectangle" stroke="#5A3EC8" stroke-width="4" x="47" y="428" width="871" height="428"></rect>
        <rect id="Rectangle" stroke="#5A3EC8" stroke-width="4" filter="url(#filter-10)" x="47" y="418" width="732" height="438"></rect>
        <rect id="Rectangle" stroke="#5A3EC8" stroke-width="4" x="47" y="364" width="616" height="492"></rect>
        <rect id="Rectangle" stroke="#5A3EC8" stroke-width="4" x="47" y="400" width="591" height="456"></rect>
        <rect id="Rectangle" stroke="#5A3EC8" stroke-width="4" filter="url(#filter-11)" x="47" y="439" width="560" height="417"></rect>
        <rect id="Rectangle" stroke="#5A3EC8" stroke-width="4" x="47" y="71" width="1185" height="785"></rect>
        <rect id="Rectangle" stroke="#5A3EC8" stroke-width="4" x="47" y="105" width="1169" height="751"></rect>
        <rect id="Rectangle" stroke="#5A3EC8" stroke-width="4" x="47" y="141" width="1152" height="715"></rect>
        <rect id="Rectangle" stroke="#5A3EC8" stroke-width="4" x="47" y="158" width="1134" height="698"></rect>
        <rect id="Rectangle" stroke="#5A3EC8" stroke-width="4" x="47" y="44" width="1202" height="812"></rect>
        <rect id="Rectangle-2" stroke="#5A3EC8" stroke-width="4" x="47" y="452" width="517" height="404"></rect>
        <rect id="Rectangle" stroke="#5A3EC8" stroke-width="4" filter="url(#filter-12)" x="47" y="465" width="434" height="391"></rect>
        <rect id="Rectangle" stroke="#5A3EC8" stroke-width="4" filter="url(#filter-13)" x="47" y="488" width="306" height="374"></rect>
        <rect id="Rectangle" stroke="#5A3EC8" stroke-width="4" fill-opacity="0.75" fill="url(#radialGradient-14)" filter="url(#filter-15)" x="47" y="44" width="1346" height="812"></rect>
        <rect id="Rectangle" stroke="#5A3EC8" stroke-width="4" x="47" y="214" width="1117" height="642"></rect>
        <rect id="large" stroke="#FED500" stroke-width="4" x="47" y="124" width="1267" height="732"></rect>
        <rect id="medium" stroke="#FED500" stroke-width="4" x="47" y="347" width="950" height="509"></rect>
        <rect id="small" stroke="#FED500" stroke-width="4" x="47" y="445" width="324" height="411"></rect>
    </g>
</svg>