<svg width="1286" height="1037" viewBox="0 0 1286 1037" fill="none" xmlns="http://www.w3.org/2000/svg">
<rect width="1286" height="1037" fill="#F1FFF7"/>
<g filter="url(#filter0_d_5_184)">
<path d="M727.5 91.5733H88.5V516.573H727.5V91.5733Z" stroke="#979797" stroke-width="5"/>
<path d="M313.5 91.5V515.647" stroke="#979797" stroke-width="5" stroke-linecap="square"/>
<path d="M142.234 287.891C142.03 286.164 141.2 284.823 139.746 283.869C138.291 282.914 136.507 282.437 134.393 282.437C132.848 282.437 131.496 282.687 130.336 283.187C129.189 283.687 128.291 284.374 127.643 285.249C127.007 286.124 126.689 287.119 126.689 288.232C126.689 289.164 126.91 289.965 127.354 290.636C127.808 291.295 128.388 291.846 129.092 292.289C129.797 292.721 130.535 293.079 131.308 293.363C132.081 293.636 132.791 293.857 133.439 294.028L136.984 294.982C137.893 295.221 138.905 295.551 140.018 295.971C141.143 296.391 142.217 296.965 143.24 297.693C144.274 298.408 145.126 299.329 145.797 300.454C146.467 301.579 146.802 302.96 146.802 304.596C146.802 306.482 146.308 308.187 145.319 309.71C144.342 311.232 142.91 312.443 141.024 313.34C139.149 314.238 136.871 314.687 134.189 314.687C131.689 314.687 129.524 314.283 127.694 313.477C125.876 312.67 124.444 311.545 123.399 310.102C122.365 308.658 121.78 306.982 121.643 305.073H126.007C126.121 306.391 126.564 307.482 127.336 308.346C128.121 309.198 129.109 309.835 130.302 310.255C131.507 310.664 132.802 310.869 134.189 310.869C135.802 310.869 137.251 310.607 138.535 310.085C139.819 309.551 140.836 308.812 141.586 307.869C142.336 306.914 142.711 305.801 142.711 304.528C142.711 303.369 142.388 302.426 141.74 301.698C141.092 300.971 140.24 300.38 139.183 299.926C138.126 299.471 136.984 299.073 135.757 298.732L131.461 297.505C128.734 296.721 126.575 295.602 124.984 294.147C123.393 292.693 122.598 290.789 122.598 288.437C122.598 286.482 123.126 284.778 124.183 283.323C125.251 281.857 126.683 280.721 128.479 279.914C130.285 279.096 132.302 278.687 134.53 278.687C136.78 278.687 138.78 279.09 140.53 279.897C142.28 280.693 143.666 281.783 144.689 283.17C145.723 284.556 146.268 286.13 146.325 287.891H142.234Z" fill="black"/>
<path d="M153.207 314.073V287.891H157.23V314.073H153.207ZM155.253 283.528C154.469 283.528 153.792 283.261 153.224 282.727C152.667 282.193 152.389 281.551 152.389 280.801C152.389 280.051 152.667 279.408 153.224 278.874C153.792 278.34 154.469 278.073 155.253 278.073C156.037 278.073 156.707 278.34 157.264 278.874C157.832 279.408 158.116 280.051 158.116 280.801C158.116 281.551 157.832 282.193 157.264 282.727C156.707 283.261 156.037 283.528 155.253 283.528Z" fill="black"/>
<path d="M174.484 314.619C172.302 314.619 170.376 314.068 168.706 312.965C167.035 311.852 165.729 310.283 164.785 308.261C163.842 306.227 163.371 303.823 163.371 301.051C163.371 298.301 163.842 295.914 164.785 293.891C165.729 291.869 167.041 290.306 168.723 289.204C170.405 288.102 172.348 287.551 174.552 287.551C176.257 287.551 177.604 287.835 178.592 288.403C179.592 288.96 180.354 289.596 180.876 290.312C181.41 291.016 181.825 291.596 182.121 292.051H182.461V279.164H186.484V314.073H182.598V310.051H182.121C181.825 310.528 181.405 311.13 180.859 311.857C180.314 312.573 179.535 313.215 178.524 313.783C177.513 314.34 176.166 314.619 174.484 314.619ZM175.03 311.005C176.643 311.005 178.007 310.585 179.121 309.744C180.234 308.891 181.081 307.715 181.66 306.215C182.24 304.704 182.53 302.96 182.53 300.982C182.53 299.028 182.246 297.318 181.677 295.852C181.109 294.374 180.268 293.227 179.155 292.408C178.041 291.579 176.666 291.164 175.03 291.164C173.325 291.164 171.905 291.602 170.768 292.477C169.643 293.34 168.797 294.516 168.229 296.005C167.672 297.482 167.393 299.141 167.393 300.982C167.393 302.846 167.677 304.539 168.246 306.062C168.825 307.573 169.677 308.778 170.802 309.676C171.939 310.562 173.348 311.005 175.03 311.005Z" fill="black"/>
<path d="M205.388 314.619C202.865 314.619 200.689 314.062 198.859 312.948C197.041 311.823 195.638 310.255 194.649 308.244C193.672 306.221 193.183 303.869 193.183 301.187C193.183 298.505 193.672 296.141 194.649 294.096C195.638 292.039 197.013 290.437 198.774 289.289C200.547 288.13 202.615 287.551 204.979 287.551C206.342 287.551 207.689 287.778 209.018 288.232C210.348 288.687 211.558 289.426 212.649 290.448C213.74 291.46 214.609 292.801 215.257 294.471C215.905 296.141 216.229 298.198 216.229 300.641V302.346H196.047V298.869H212.138C212.138 297.391 211.842 296.073 211.251 294.914C210.672 293.755 209.842 292.84 208.763 292.17C207.694 291.499 206.433 291.164 204.979 291.164C203.376 291.164 201.99 291.562 200.819 292.357C199.66 293.141 198.768 294.164 198.143 295.426C197.518 296.687 197.206 298.039 197.206 299.482V301.801C197.206 303.778 197.547 305.454 198.229 306.829C198.922 308.193 199.882 309.232 201.109 309.948C202.336 310.653 203.763 311.005 205.388 311.005C206.444 311.005 207.399 310.857 208.251 310.562C209.115 310.255 209.859 309.801 210.484 309.198C211.109 308.585 211.592 307.823 211.933 306.914L215.819 308.005C215.41 309.323 214.723 310.482 213.757 311.482C212.791 312.471 211.598 313.244 210.177 313.801C208.757 314.346 207.16 314.619 205.388 314.619Z" fill="black"/>
<path d="M222.893 314.073V279.164H226.916V292.051H227.257C227.552 291.596 227.961 291.016 228.484 290.312C229.018 289.596 229.78 288.96 230.768 288.403C231.768 287.835 233.121 287.551 234.825 287.551C237.03 287.551 238.973 288.102 240.655 289.204C242.336 290.306 243.649 291.869 244.592 293.891C245.535 295.914 246.007 298.301 246.007 301.051C246.007 303.823 245.535 306.227 244.592 308.261C243.649 310.283 242.342 311.852 240.672 312.965C239.001 314.068 237.075 314.619 234.893 314.619C233.211 314.619 231.865 314.34 230.854 313.783C229.842 313.215 229.064 312.573 228.518 311.857C227.973 311.13 227.552 310.528 227.257 310.051H226.78V314.073H222.893ZM226.848 300.982C226.848 302.96 227.138 304.704 227.717 306.215C228.297 307.715 229.143 308.891 230.257 309.744C231.371 310.585 232.734 311.005 234.348 311.005C236.03 311.005 237.433 310.562 238.558 309.676C239.694 308.778 240.547 307.573 241.115 306.062C241.694 304.539 241.984 302.846 241.984 300.982C241.984 299.141 241.7 297.482 241.132 296.005C240.575 294.516 239.729 293.34 238.592 292.477C237.467 291.602 236.052 291.164 234.348 291.164C232.711 291.164 231.336 291.579 230.223 292.408C229.109 293.227 228.268 294.374 227.7 295.852C227.132 297.318 226.848 299.028 226.848 300.982Z" fill="black"/>
<path d="M259.865 314.687C258.206 314.687 256.7 314.374 255.348 313.749C253.996 313.113 252.922 312.198 252.126 311.005C251.331 309.801 250.933 308.346 250.933 306.641C250.933 305.141 251.229 303.926 251.819 302.994C252.41 302.051 253.2 301.312 254.189 300.778C255.177 300.244 256.268 299.846 257.461 299.585C258.666 299.312 259.876 299.096 261.092 298.937C262.683 298.732 263.973 298.579 264.961 298.477C265.961 298.363 266.689 298.176 267.143 297.914C267.609 297.653 267.842 297.198 267.842 296.551V296.414C267.842 294.732 267.382 293.426 266.461 292.494C265.552 291.562 264.172 291.096 262.319 291.096C260.399 291.096 258.893 291.516 257.802 292.357C256.711 293.198 255.944 294.096 255.501 295.051L251.683 293.687C252.365 292.096 253.274 290.857 254.41 289.971C255.558 289.073 256.808 288.448 258.16 288.096C259.524 287.732 260.865 287.551 262.183 287.551C263.024 287.551 263.99 287.653 265.081 287.857C266.183 288.051 267.246 288.454 268.268 289.068C269.302 289.681 270.16 290.607 270.842 291.846C271.524 293.085 271.865 294.744 271.865 296.823V314.073H267.842V310.528H267.638C267.365 311.096 266.91 311.704 266.274 312.352C265.638 312.999 264.791 313.551 263.734 314.005C262.677 314.46 261.388 314.687 259.865 314.687ZM260.479 311.073C262.069 311.073 263.41 310.761 264.501 310.136C265.604 309.511 266.433 308.704 266.99 307.715C267.558 306.727 267.842 305.687 267.842 304.596V300.914C267.672 301.119 267.297 301.306 266.717 301.477C266.149 301.636 265.49 301.778 264.74 301.903C264.001 302.016 263.28 302.119 262.575 302.21C261.882 302.289 261.319 302.357 260.888 302.414C259.842 302.551 258.865 302.772 257.956 303.079C257.058 303.374 256.331 303.823 255.774 304.426C255.229 305.016 254.956 305.823 254.956 306.846C254.956 308.244 255.473 309.301 256.507 310.016C257.552 310.721 258.876 311.073 260.479 311.073Z" fill="black"/>
<path d="M279.207 314.073V287.891H283.094V291.846H283.366C283.844 290.551 284.707 289.499 285.957 288.693C287.207 287.886 288.616 287.482 290.184 287.482C290.48 287.482 290.849 287.488 291.292 287.499C291.736 287.511 292.071 287.528 292.298 287.551V291.641C292.162 291.607 291.849 291.556 291.361 291.488C290.883 291.408 290.378 291.369 289.844 291.369C288.571 291.369 287.434 291.636 286.434 292.17C285.446 292.693 284.662 293.42 284.082 294.352C283.514 295.272 283.23 296.323 283.23 297.505V314.073H279.207Z" fill="black"/>
<path d="M488.488 300.041H488.36L486.632 303.593L482.056 312.041L477.48 303.593L475.752 300.041H475.624V316.073H471.624V293.737H476.392L482.12 304.649H482.248L487.912 293.737H492.488V316.073H488.488V300.041Z" fill="black"/>
<path d="M511.573 316.073L509.781 310.377H501.845L500.085 316.073H495.797L503.285 293.737H508.533L515.957 316.073H511.573ZM505.877 297.577H505.717L502.869 306.761H508.757L505.877 297.577Z" fill="black"/>
<path d="M518.321 316.073V312.681H521.265V297.129H518.321V293.737H528.465V297.129H525.489V312.681H528.465V316.073H518.321Z" fill="black"/>
<path d="M539.18 304.617L536.876 299.977H536.78V316.073H532.78V293.737H537.42L544.14 305.193L546.444 309.833H546.54V293.737H550.54V316.073H545.9L539.18 304.617Z" fill="black"/>
</g>
<path d="M435.381 347.073V337.255H436.838V338.789H436.966C437.17 338.265 437.501 337.858 437.957 337.568C438.413 337.274 438.96 337.127 439.599 337.127C440.247 337.127 440.786 337.274 441.217 337.568C441.651 337.858 441.99 338.265 442.233 338.789H442.335C442.587 338.282 442.964 337.879 443.467 337.581C443.969 337.278 444.572 337.127 445.276 337.127C446.153 337.127 446.871 337.402 447.43 337.952C447.988 338.497 448.267 339.347 448.267 340.502V347.073H446.759V340.502C446.759 339.778 446.56 339.26 446.164 338.949C445.768 338.638 445.301 338.482 444.764 338.482C444.074 338.482 443.539 338.691 443.16 339.109C442.781 339.522 442.591 340.046 442.591 340.681V347.073H441.057V340.349C441.057 339.791 440.876 339.341 440.513 339C440.151 338.655 439.685 338.482 439.114 338.482C438.722 338.482 438.355 338.587 438.014 338.796C437.678 339.004 437.405 339.294 437.196 339.665C436.991 340.031 436.889 340.455 436.889 340.937V347.073H435.381Z" fill="black"/>
<path d="M451.025 347.073V337.255H452.534V347.073H451.025ZM451.792 335.619C451.498 335.619 451.245 335.519 451.032 335.318C450.823 335.118 450.718 334.877 450.718 334.596C450.718 334.315 450.823 334.074 451.032 333.874C451.245 333.673 451.498 333.573 451.792 333.573C452.086 333.573 452.338 333.673 452.547 333.874C452.76 334.074 452.866 334.315 452.866 334.596C452.866 334.877 452.76 335.118 452.547 335.318C452.338 335.519 452.086 335.619 451.792 335.619Z" fill="black"/>
<path d="M456.805 341.167V347.073H455.297V337.255H456.754V338.789H456.882C457.112 338.291 457.461 337.89 457.93 337.587C458.399 337.281 459.004 337.127 459.746 337.127C460.41 337.127 460.992 337.264 461.491 337.536C461.989 337.805 462.377 338.214 462.654 338.764C462.931 339.309 463.069 339.999 463.069 340.835V347.073H461.561V340.937C461.561 340.166 461.361 339.565 460.96 339.134C460.559 338.7 460.01 338.482 459.311 338.482C458.829 338.482 458.399 338.587 458.02 338.796C457.645 339.004 457.349 339.309 457.131 339.71C456.914 340.11 456.805 340.596 456.805 341.167Z" fill="black"/>
<path d="M471.451 340.758V342.164H465.724V340.758H471.451Z" fill="black"/>
<path d="M476.33 347.073L473.338 337.255H474.923L477.046 344.772H477.148L479.244 337.255H480.855L482.926 344.747H483.029L485.151 337.255H486.736L483.744 347.073H482.262L480.114 339.531H479.96L477.813 347.073H476.33Z" fill="black"/>
<path d="M488.73 347.073V337.255H490.239V347.073H488.73ZM489.497 335.619C489.203 335.619 488.95 335.519 488.737 335.318C488.528 335.118 488.423 334.877 488.423 334.596C488.423 334.315 488.528 334.074 488.737 333.874C488.95 333.673 489.203 333.573 489.497 333.573C489.791 333.573 490.043 333.673 490.252 333.874C490.465 334.074 490.571 334.315 490.571 334.596C490.571 334.877 490.465 335.118 490.252 335.318C490.043 335.519 489.791 335.619 489.497 335.619Z" fill="black"/>
<path d="M496.709 347.278C495.891 347.278 495.169 347.071 494.542 346.658C493.916 346.24 493.426 345.652 493.072 344.894C492.718 344.131 492.542 343.229 492.542 342.19C492.542 341.158 492.718 340.264 493.072 339.505C493.426 338.747 493.918 338.161 494.549 337.747C495.179 337.334 495.908 337.127 496.735 337.127C497.374 337.127 497.879 337.234 498.25 337.447C498.625 337.656 498.91 337.894 499.106 338.163C499.306 338.427 499.462 338.644 499.573 338.815H499.701V333.982H501.209V347.073H499.752V345.565H499.573C499.462 345.744 499.304 345.97 499.1 346.242C498.895 346.511 498.603 346.752 498.224 346.965C497.845 347.173 497.34 347.278 496.709 347.278ZM496.914 345.923C497.519 345.923 498.03 345.765 498.448 345.45C498.865 345.13 499.183 344.689 499.4 344.127C499.618 343.56 499.726 342.906 499.726 342.164C499.726 341.431 499.62 340.79 499.407 340.24C499.194 339.686 498.878 339.256 498.461 338.949C498.043 338.638 497.527 338.482 496.914 338.482C496.274 338.482 495.742 338.646 495.316 338.975C494.894 339.298 494.576 339.739 494.363 340.298C494.154 340.852 494.05 341.474 494.05 342.164C494.05 342.863 494.157 343.498 494.37 344.069C494.587 344.636 494.907 345.087 495.328 345.424C495.755 345.756 496.283 345.923 496.914 345.923Z" fill="black"/>
<path d="M508.451 337.255V338.533H503.363V337.255H508.451ZM504.846 334.903H506.355V344.261C506.355 344.687 506.417 345.006 506.54 345.22C506.668 345.428 506.83 345.569 507.026 345.641C507.226 345.71 507.437 345.744 507.659 345.744C507.825 345.744 507.961 345.735 508.068 345.718C508.174 345.697 508.26 345.68 508.324 345.667L508.63 347.022C508.528 347.06 508.385 347.099 508.202 347.137C508.019 347.18 507.787 347.201 507.505 347.201C507.079 347.201 506.662 347.109 506.252 346.926C505.848 346.743 505.511 346.464 505.243 346.089C504.978 345.714 504.846 345.241 504.846 344.67V334.903Z" fill="black"/>
<path d="M512.44 341.167V347.073H510.931V333.982H512.44V338.789H512.568C512.798 338.282 513.143 337.879 513.603 337.581C514.068 337.278 514.686 337.127 515.457 337.127C516.126 337.127 516.712 337.261 517.215 337.53C517.718 337.794 518.108 338.201 518.385 338.751C518.666 339.296 518.806 339.991 518.806 340.835V347.073H517.298V340.937C517.298 340.157 517.096 339.554 516.691 339.128C516.29 338.698 515.734 338.482 515.022 338.482C514.528 338.482 514.085 338.587 513.693 338.796C513.305 339.004 512.998 339.309 512.772 339.71C512.551 340.11 512.44 340.596 512.44 341.167Z" fill="black"/>
<path d="M522.666 347.176C522.35 347.176 522.08 347.063 521.854 346.837C521.628 346.611 521.515 346.34 521.515 346.025C521.515 345.71 521.628 345.439 521.854 345.213C522.08 344.987 522.35 344.874 522.666 344.874C522.981 344.874 523.252 344.987 523.477 345.213C523.703 345.439 523.816 345.71 523.816 346.025C523.816 346.234 523.763 346.426 523.656 346.6C523.554 346.775 523.416 346.916 523.241 347.022C523.07 347.124 522.879 347.176 522.666 347.176ZM522.666 339.889C522.35 339.889 522.08 339.776 521.854 339.55C521.628 339.324 521.515 339.053 521.515 338.738C521.515 338.423 521.628 338.152 521.854 337.926C522.08 337.7 522.35 337.587 522.666 337.587C522.981 337.587 523.252 337.7 523.477 337.926C523.703 338.152 523.816 338.423 523.816 338.738C523.816 338.947 523.763 339.139 523.656 339.313C523.554 339.488 523.416 339.629 523.241 339.735C523.07 339.837 522.879 339.889 522.666 339.889Z" fill="black"/>
<path d="M535.651 347.252C534.901 347.252 534.226 347.103 533.625 346.805C533.024 346.506 532.542 346.097 532.18 345.578C531.818 345.058 531.62 344.465 531.586 343.801H533.12C533.18 344.393 533.448 344.883 533.925 345.271C534.407 345.654 534.982 345.846 535.651 345.846C536.188 345.846 536.665 345.72 537.083 345.469C537.505 345.217 537.835 344.872 538.074 344.433C538.317 343.99 538.438 343.489 538.438 342.931C538.438 342.36 538.312 341.851 538.061 341.403C537.814 340.952 537.473 340.596 537.038 340.336C536.604 340.076 536.107 339.944 535.549 339.94C535.148 339.935 534.737 339.997 534.315 340.125C533.893 340.249 533.546 340.408 533.273 340.604L531.79 340.426L532.583 333.982H539.384V335.389H533.912L533.452 339.249H533.529C533.797 339.036 534.134 338.859 534.539 338.719C534.944 338.578 535.366 338.508 535.805 338.508C536.606 338.508 537.319 338.7 537.946 339.083C538.577 339.462 539.071 339.982 539.429 340.643C539.791 341.303 539.972 342.058 539.972 342.906C539.972 343.741 539.785 344.487 539.41 345.143C539.039 345.795 538.528 346.31 537.876 346.69C537.224 347.065 536.482 347.252 535.651 347.252Z" fill="black"/>
<path d="M546.781 347.252C545.818 347.252 544.998 346.99 544.32 346.466C543.643 345.938 543.125 345.173 542.767 344.171C542.409 343.166 542.23 341.951 542.23 340.528C542.23 339.113 542.409 337.905 542.767 336.903C543.129 335.898 543.649 335.131 544.327 334.602C545.009 334.07 545.827 333.803 546.781 333.803C547.736 333.803 548.552 334.07 549.229 334.602C549.911 335.131 550.431 335.898 550.789 336.903C551.151 337.905 551.332 339.113 551.332 340.528C551.332 341.951 551.153 343.166 550.795 344.171C550.437 345.173 549.92 345.938 549.242 346.466C548.565 346.99 547.744 347.252 546.781 347.252ZM546.781 345.846C547.736 345.846 548.477 345.386 549.006 344.465C549.534 343.545 549.798 342.232 549.798 340.528C549.798 339.394 549.677 338.429 549.434 337.632C549.195 336.835 548.85 336.228 548.398 335.81C547.951 335.393 547.412 335.184 546.781 335.184C545.835 335.184 545.096 335.651 544.563 336.584C544.031 337.513 543.764 338.828 543.764 340.528C543.764 341.661 543.884 342.624 544.122 343.417C544.361 344.21 544.704 344.813 545.151 345.226C545.603 345.639 546.146 345.846 546.781 345.846Z" fill="black"/>
<path d="M560.435 344.619V343.928C560.435 343.451 560.533 343.014 560.729 342.618C560.929 342.217 561.219 341.898 561.598 341.659C561.982 341.416 562.446 341.295 562.991 341.295C563.545 341.295 564.01 341.416 564.385 341.659C564.76 341.898 565.043 342.217 565.235 342.618C565.427 343.014 565.523 343.451 565.523 343.928V344.619C565.523 345.096 565.425 345.535 565.229 345.935C565.037 346.332 564.751 346.651 564.372 346.894C563.997 347.133 563.537 347.252 562.991 347.252C562.437 347.252 561.971 347.133 561.592 346.894C561.212 346.651 560.925 346.332 560.729 345.935C560.533 345.535 560.435 345.096 560.435 344.619ZM561.739 343.928V344.619C561.739 345.015 561.832 345.371 562.02 345.686C562.207 345.997 562.531 346.153 562.991 346.153C563.439 346.153 563.754 345.997 563.938 345.686C564.125 345.371 564.219 345.015 564.219 344.619V343.928C564.219 343.532 564.129 343.178 563.95 342.867C563.771 342.552 563.452 342.394 562.991 342.394C562.544 342.394 562.222 342.552 562.026 342.867C561.835 343.178 561.739 343.532 561.739 343.928ZM553.915 337.127V336.437C553.915 335.96 554.013 335.523 554.209 335.127C554.409 334.726 554.699 334.406 555.078 334.168C555.462 333.925 555.926 333.803 556.472 333.803C557.026 333.803 557.49 333.925 557.865 334.168C558.24 334.406 558.523 334.726 558.715 335.127C558.907 335.523 559.003 335.96 559.003 336.437V337.127C559.003 337.604 558.905 338.043 558.709 338.444C558.517 338.84 558.232 339.16 557.852 339.403C557.477 339.641 557.017 339.761 556.472 339.761C555.918 339.761 555.451 339.641 555.072 339.403C554.692 339.16 554.405 338.84 554.209 338.444C554.013 338.043 553.915 337.604 553.915 337.127ZM555.219 336.437V337.127C555.219 337.524 555.312 337.879 555.5 338.195C555.687 338.506 556.011 338.661 556.472 338.661C556.919 338.661 557.234 338.506 557.418 338.195C557.605 337.879 557.699 337.524 557.699 337.127V336.437C557.699 336.041 557.609 335.687 557.43 335.376C557.251 335.06 556.932 334.903 556.472 334.903C556.024 334.903 555.702 335.06 555.506 335.376C555.315 335.687 555.219 336.041 555.219 336.437ZM554.401 347.073L563.401 333.982H564.858L555.858 347.073H554.401Z" fill="black"/>
<path d="M570.662 345.283L570.56 345.974C570.487 346.46 570.376 346.979 570.227 347.533C570.082 348.087 569.931 348.609 569.773 349.1C569.616 349.59 569.486 349.979 569.384 350.269H568.233C568.288 349.997 568.361 349.636 568.45 349.189C568.54 348.742 568.629 348.241 568.719 347.687C568.812 347.137 568.889 346.575 568.949 345.999L569.026 345.283H570.662ZM569.741 339.889C569.426 339.889 569.156 339.776 568.93 339.55C568.704 339.324 568.591 339.053 568.591 338.738C568.591 338.423 568.704 338.152 568.93 337.926C569.156 337.7 569.426 337.587 569.741 337.587C570.057 337.587 570.327 337.7 570.553 337.926C570.779 338.152 570.892 338.423 570.892 338.738C570.892 338.947 570.839 339.139 570.732 339.313C570.63 339.488 570.491 339.629 570.317 339.735C570.146 339.837 569.955 339.889 569.741 339.889Z" fill="black"/>
<g filter="url(#filter1_d_5_184)">
<path d="M1197.5 90.5733H833.5V515.573H1197.5V90.5733Z" stroke="#979797" stroke-width="5"/>
<path d="M1015.5 90.5V514.647" stroke="#979797" stroke-width="5" stroke-linecap="square"/>
<path d="M898.097 252.164V287.073H894.006L874.983 259.664H874.643V287.073H870.415V252.164H874.506L893.597 279.641H893.938V252.164H898.097ZM916.647 287.619C914.283 287.619 912.209 287.056 910.425 285.931C908.652 284.806 907.266 283.232 906.266 281.21C905.277 279.187 904.783 276.823 904.783 274.119C904.783 271.391 905.277 269.011 906.266 266.977C907.266 264.943 908.652 263.363 910.425 262.238C912.209 261.113 914.283 260.551 916.647 260.551C919.01 260.551 921.079 261.113 922.851 262.238C924.635 263.363 926.022 264.943 927.01 266.977C928.01 269.011 928.51 271.391 928.51 274.119C928.51 276.823 928.01 279.187 927.01 281.21C926.022 283.232 924.635 284.806 922.851 285.931C921.079 287.056 919.01 287.619 916.647 287.619ZM916.647 284.005C918.442 284.005 919.92 283.545 921.079 282.624C922.238 281.704 923.096 280.494 923.652 278.994C924.209 277.494 924.488 275.869 924.488 274.119C924.488 272.369 924.209 270.738 923.652 269.227C923.096 267.715 922.238 266.494 921.079 265.562C919.92 264.63 918.442 264.164 916.647 264.164C914.851 264.164 913.374 264.63 912.215 265.562C911.056 266.494 910.198 267.715 909.641 269.227C909.084 270.738 908.806 272.369 908.806 274.119C908.806 275.869 909.084 277.494 909.641 278.994C910.198 280.494 911.056 281.704 912.215 282.624C913.374 283.545 914.851 284.005 916.647 284.005ZM946.037 260.891V264.301H932.469V260.891H946.037ZM936.424 254.619H940.447V279.573C940.447 280.71 940.611 281.562 940.941 282.13C941.282 282.687 941.714 283.062 942.236 283.255C942.77 283.437 943.333 283.528 943.924 283.528C944.367 283.528 944.731 283.505 945.015 283.46C945.299 283.403 945.526 283.357 945.697 283.323L946.515 286.937C946.242 287.039 945.861 287.141 945.373 287.244C944.884 287.357 944.265 287.414 943.515 287.414C942.378 287.414 941.265 287.17 940.174 286.681C939.094 286.193 938.197 285.448 937.481 284.448C936.776 283.448 936.424 282.187 936.424 280.664V254.619ZM973.293 287.687C971.634 287.687 970.128 287.374 968.776 286.749C967.424 286.113 966.35 285.198 965.554 284.005C964.759 282.801 964.361 281.346 964.361 279.641C964.361 278.141 964.657 276.926 965.248 275.994C965.839 275.051 966.628 274.312 967.617 273.778C968.606 273.244 969.697 272.846 970.89 272.585C972.094 272.312 973.304 272.096 974.52 271.937C976.111 271.732 977.401 271.579 978.39 271.477C979.39 271.363 980.117 271.176 980.572 270.914C981.037 270.653 981.27 270.198 981.27 269.551V269.414C981.27 267.732 980.81 266.426 979.89 265.494C978.981 264.562 977.6 264.096 975.748 264.096C973.827 264.096 972.322 264.516 971.231 265.357C970.14 266.198 969.373 267.096 968.929 268.051L965.111 266.687C965.793 265.096 966.702 263.857 967.839 262.971C968.986 262.073 970.236 261.448 971.589 261.096C972.952 260.732 974.293 260.551 975.611 260.551C976.452 260.551 977.418 260.653 978.509 260.857C979.611 261.051 980.674 261.454 981.697 262.068C982.731 262.681 983.589 263.607 984.27 264.846C984.952 266.085 985.293 267.744 985.293 269.823V287.073H981.27V283.528H981.066C980.793 284.096 980.339 284.704 979.702 285.352C979.066 285.999 978.219 286.551 977.162 287.005C976.106 287.46 974.816 287.687 973.293 287.687ZM973.907 284.073C975.498 284.073 976.839 283.761 977.929 283.136C979.032 282.511 979.861 281.704 980.418 280.715C980.986 279.727 981.27 278.687 981.27 277.596V273.914C981.1 274.119 980.725 274.306 980.145 274.477C979.577 274.636 978.918 274.778 978.168 274.903C977.429 275.016 976.708 275.119 976.003 275.21C975.31 275.289 974.748 275.357 974.316 275.414C973.27 275.551 972.293 275.772 971.384 276.079C970.486 276.374 969.759 276.823 969.202 277.426C968.657 278.016 968.384 278.823 968.384 279.846C968.384 281.244 968.901 282.301 969.935 283.016C970.981 283.721 972.304 284.073 973.907 284.073Z" fill="black"/>
<path d="M864.234 322.891C864.03 321.164 863.2 319.823 861.746 318.869C860.291 317.914 858.507 317.437 856.393 317.437C854.848 317.437 853.496 317.687 852.336 318.187C851.189 318.687 850.291 319.374 849.643 320.249C849.007 321.124 848.689 322.119 848.689 323.232C848.689 324.164 848.91 324.965 849.354 325.636C849.808 326.295 850.388 326.846 851.092 327.289C851.797 327.721 852.535 328.079 853.308 328.363C854.081 328.636 854.791 328.857 855.439 329.028L858.984 329.982C859.893 330.221 860.905 330.551 862.018 330.971C863.143 331.391 864.217 331.965 865.24 332.693C866.274 333.408 867.126 334.329 867.797 335.454C868.467 336.579 868.802 337.96 868.802 339.596C868.802 341.482 868.308 343.187 867.319 344.71C866.342 346.232 864.91 347.443 863.024 348.34C861.149 349.238 858.871 349.687 856.189 349.687C853.689 349.687 851.524 349.283 849.694 348.477C847.876 347.67 846.444 346.545 845.399 345.102C844.365 343.658 843.78 341.982 843.643 340.073H848.007C848.121 341.391 848.564 342.482 849.336 343.346C850.121 344.198 851.109 344.835 852.302 345.255C853.507 345.664 854.802 345.869 856.189 345.869C857.802 345.869 859.251 345.607 860.535 345.085C861.819 344.551 862.836 343.812 863.586 342.869C864.336 341.914 864.711 340.801 864.711 339.528C864.711 338.369 864.388 337.426 863.74 336.698C863.092 335.971 862.24 335.38 861.183 334.926C860.126 334.471 858.984 334.073 857.757 333.732L853.461 332.505C850.734 331.721 848.575 330.602 846.984 329.147C845.393 327.693 844.598 325.789 844.598 323.437C844.598 321.482 845.126 319.778 846.183 318.323C847.251 316.857 848.683 315.721 850.479 314.914C852.285 314.096 854.302 313.687 856.53 313.687C858.78 313.687 860.78 314.09 862.53 314.897C864.28 315.693 865.666 316.783 866.689 318.17C867.723 319.556 868.268 321.13 868.325 322.891H864.234ZM875.207 349.073V322.891H879.23V349.073H875.207ZM877.253 318.528C876.469 318.528 875.792 318.261 875.224 317.727C874.667 317.193 874.389 316.551 874.389 315.801C874.389 315.051 874.667 314.408 875.224 313.874C875.792 313.34 876.469 313.073 877.253 313.073C878.037 313.073 878.707 313.34 879.264 313.874C879.832 314.408 880.116 315.051 880.116 315.801C880.116 316.551 879.832 317.193 879.264 317.727C878.707 318.261 878.037 318.528 877.253 318.528ZM896.484 349.619C894.302 349.619 892.376 349.068 890.706 347.965C889.035 346.852 887.729 345.283 886.785 343.261C885.842 341.227 885.371 338.823 885.371 336.051C885.371 333.301 885.842 330.914 886.785 328.891C887.729 326.869 889.041 325.306 890.723 324.204C892.405 323.102 894.348 322.551 896.552 322.551C898.257 322.551 899.604 322.835 900.592 323.403C901.592 323.96 902.354 324.596 902.876 325.312C903.41 326.016 903.825 326.596 904.121 327.051H904.461V314.164H908.484V349.073H904.598V345.051H904.121C903.825 345.528 903.405 346.13 902.859 346.857C902.314 347.573 901.535 348.215 900.524 348.783C899.513 349.34 898.166 349.619 896.484 349.619ZM897.03 346.005C898.643 346.005 900.007 345.585 901.121 344.744C902.234 343.891 903.081 342.715 903.66 341.215C904.24 339.704 904.53 337.96 904.53 335.982C904.53 334.028 904.246 332.318 903.677 330.852C903.109 329.374 902.268 328.227 901.155 327.408C900.041 326.579 898.666 326.164 897.03 326.164C895.325 326.164 893.905 326.602 892.768 327.477C891.643 328.34 890.797 329.516 890.229 331.005C889.672 332.482 889.393 334.141 889.393 335.982C889.393 337.846 889.677 339.539 890.246 341.062C890.825 342.573 891.677 343.778 892.802 344.676C893.939 345.562 895.348 346.005 897.03 346.005ZM927.388 349.619C924.865 349.619 922.689 349.062 920.859 347.948C919.041 346.823 917.638 345.255 916.649 343.244C915.672 341.221 915.183 338.869 915.183 336.187C915.183 333.505 915.672 331.141 916.649 329.096C917.638 327.039 919.013 325.437 920.774 324.289C922.547 323.13 924.615 322.551 926.979 322.551C928.342 322.551 929.689 322.778 931.018 323.232C932.348 323.687 933.558 324.426 934.649 325.448C935.74 326.46 936.609 327.801 937.257 329.471C937.905 331.141 938.229 333.198 938.229 335.641V337.346H918.047V333.869H934.138C934.138 332.391 933.842 331.073 933.251 329.914C932.672 328.755 931.842 327.84 930.763 327.17C929.694 326.499 928.433 326.164 926.979 326.164C925.376 326.164 923.99 326.562 922.819 327.357C921.66 328.141 920.768 329.164 920.143 330.426C919.518 331.687 919.206 333.039 919.206 334.482V336.801C919.206 338.778 919.547 340.454 920.229 341.829C920.922 343.193 921.882 344.232 923.109 344.948C924.336 345.653 925.763 346.005 927.388 346.005C928.444 346.005 929.399 345.857 930.251 345.562C931.115 345.255 931.859 344.801 932.484 344.198C933.109 343.585 933.592 342.823 933.933 341.914L937.819 343.005C937.41 344.323 936.723 345.482 935.757 346.482C934.791 347.471 933.598 348.244 932.177 348.801C930.757 349.346 929.16 349.619 927.388 349.619ZM944.893 349.073V314.164H948.916V327.051H949.257C949.552 326.596 949.961 326.016 950.484 325.312C951.018 324.596 951.78 323.96 952.768 323.403C953.768 322.835 955.121 322.551 956.825 322.551C959.03 322.551 960.973 323.102 962.655 324.204C964.336 325.306 965.649 326.869 966.592 328.891C967.535 330.914 968.007 333.301 968.007 336.051C968.007 338.823 967.535 341.227 966.592 343.261C965.649 345.283 964.342 346.852 962.672 347.965C961.001 349.068 959.075 349.619 956.893 349.619C955.211 349.619 953.865 349.34 952.854 348.783C951.842 348.215 951.064 347.573 950.518 346.857C949.973 346.13 949.552 345.528 949.257 345.051H948.78V349.073H944.893ZM948.848 335.982C948.848 337.96 949.138 339.704 949.717 341.215C950.297 342.715 951.143 343.891 952.257 344.744C953.371 345.585 954.734 346.005 956.348 346.005C958.03 346.005 959.433 345.562 960.558 344.676C961.694 343.778 962.547 342.573 963.115 341.062C963.694 339.539 963.984 337.846 963.984 335.982C963.984 334.141 963.7 332.482 963.132 331.005C962.575 329.516 961.729 328.34 960.592 327.477C959.467 326.602 958.052 326.164 956.348 326.164C954.711 326.164 953.336 326.579 952.223 327.408C951.109 328.227 950.268 329.374 949.7 330.852C949.132 332.318 948.848 334.028 948.848 335.982ZM981.865 349.687C980.206 349.687 978.7 349.374 977.348 348.749C975.996 348.113 974.922 347.198 974.126 346.005C973.331 344.801 972.933 343.346 972.933 341.641C972.933 340.141 973.229 338.926 973.819 337.994C974.41 337.051 975.2 336.312 976.189 335.778C977.177 335.244 978.268 334.846 979.461 334.585C980.666 334.312 981.876 334.096 983.092 333.937C984.683 333.732 985.973 333.579 986.961 333.477C987.961 333.363 988.689 333.176 989.143 332.914C989.609 332.653 989.842 332.198 989.842 331.551V331.414C989.842 329.732 989.382 328.426 988.461 327.494C987.552 326.562 986.172 326.096 984.319 326.096C982.399 326.096 980.893 326.516 979.802 327.357C978.711 328.198 977.944 329.096 977.501 330.051L973.683 328.687C974.365 327.096 975.274 325.857 976.41 324.971C977.558 324.073 978.808 323.448 980.16 323.096C981.524 322.732 982.865 322.551 984.183 322.551C985.024 322.551 985.99 322.653 987.081 322.857C988.183 323.051 989.246 323.454 990.268 324.068C991.302 324.681 992.16 325.607 992.842 326.846C993.524 328.085 993.865 329.744 993.865 331.823V349.073H989.842V345.528H989.638C989.365 346.096 988.91 346.704 988.274 347.352C987.638 347.999 986.791 348.551 985.734 349.005C984.677 349.46 983.388 349.687 981.865 349.687ZM982.479 346.073C984.069 346.073 985.41 345.761 986.501 345.136C987.604 344.511 988.433 343.704 988.99 342.715C989.558 341.727 989.842 340.687 989.842 339.596V335.914C989.672 336.119 989.297 336.306 988.717 336.477C988.149 336.636 987.49 336.778 986.74 336.903C986.001 337.016 985.28 337.119 984.575 337.21C983.882 337.289 983.319 337.357 982.888 337.414C981.842 337.551 980.865 337.772 979.956 338.079C979.058 338.374 978.331 338.823 977.774 339.426C977.229 340.016 976.956 340.823 976.956 341.846C976.956 343.244 977.473 344.301 978.507 345.016C979.552 345.721 980.876 346.073 982.479 346.073ZM1001.21 349.073V322.891H1005.09V326.846H1005.37C1005.84 325.551 1006.71 324.499 1007.96 323.693C1009.21 322.886 1010.62 322.482 1012.18 322.482C1012.48 322.482 1012.85 322.488 1013.29 322.499C1013.74 322.511 1014.07 322.528 1014.3 322.551V326.641C1014.16 326.607 1013.85 326.556 1013.36 326.488C1012.88 326.408 1012.38 326.369 1011.84 326.369C1010.57 326.369 1009.43 326.636 1008.43 327.17C1007.45 327.693 1006.66 328.42 1006.08 329.352C1005.51 330.272 1005.23 331.323 1005.23 332.505V349.073H1001.21Z" fill="black"/>
<path d="M1015.5 90.5V514.647" stroke="#979797" stroke-width="5" stroke-linecap="square"/>
<path d="M898.097 252.164V287.073H894.006L874.983 259.664H874.642V287.073H870.415V252.164H874.506L893.597 279.641H893.938V252.164H898.097Z" fill="black"/>
<path d="M916.647 287.619C914.283 287.619 912.209 287.056 910.425 285.931C908.652 284.806 907.266 283.232 906.266 281.21C905.277 279.187 904.783 276.823 904.783 274.119C904.783 271.391 905.277 269.011 906.266 266.977C907.266 264.943 908.652 263.363 910.425 262.238C912.209 261.113 914.283 260.551 916.647 260.551C919.01 260.551 921.079 261.113 922.851 262.238C924.635 263.363 926.022 264.943 927.01 266.977C928.01 269.011 928.51 271.391 928.51 274.119C928.51 276.823 928.01 279.187 927.01 281.21C926.022 283.232 924.635 284.806 922.851 285.931C921.079 287.056 919.01 287.619 916.647 287.619ZM916.647 284.005C918.442 284.005 919.919 283.545 921.079 282.624C922.238 281.704 923.096 280.494 923.652 278.994C924.209 277.494 924.488 275.869 924.488 274.119C924.488 272.369 924.209 270.738 923.652 269.227C923.096 267.715 922.238 266.494 921.079 265.562C919.919 264.63 918.442 264.164 916.647 264.164C914.851 264.164 913.374 264.63 912.215 265.562C911.056 266.494 910.198 267.715 909.641 269.227C909.084 270.738 908.806 272.369 908.806 274.119C908.806 275.869 909.084 277.494 909.641 278.994C910.198 280.494 911.056 281.704 912.215 282.624C913.374 283.545 914.851 284.005 916.647 284.005Z" fill="black"/>
<path d="M946.037 260.891V264.301H932.469V260.891H946.037ZM936.424 254.619H940.446V279.573C940.446 280.71 940.611 281.562 940.941 282.13C941.282 282.687 941.714 283.062 942.236 283.255C942.77 283.437 943.333 283.528 943.924 283.528C944.367 283.528 944.731 283.505 945.015 283.46C945.299 283.403 945.526 283.357 945.696 283.323L946.515 286.937C946.242 287.039 945.861 287.141 945.373 287.244C944.884 287.357 944.265 287.414 943.515 287.414C942.378 287.414 941.265 287.17 940.174 286.681C939.094 286.193 938.196 285.448 937.481 284.448C936.776 283.448 936.424 282.187 936.424 280.664V254.619Z" fill="black"/>
<path d="M973.293 287.687C971.634 287.687 970.128 287.374 968.776 286.749C967.424 286.113 966.35 285.198 965.554 284.005C964.759 282.801 964.361 281.346 964.361 279.641C964.361 278.141 964.657 276.926 965.248 275.994C965.839 275.051 966.628 274.312 967.617 273.778C968.606 273.244 969.696 272.846 970.89 272.585C972.094 272.312 973.304 272.096 974.52 271.937C976.111 271.732 977.401 271.579 978.39 271.477C979.39 271.363 980.117 271.176 980.571 270.914C981.037 270.653 981.27 270.198 981.27 269.551V269.414C981.27 267.732 980.81 266.426 979.89 265.494C978.981 264.562 977.6 264.096 975.748 264.096C973.827 264.096 972.321 264.516 971.231 265.357C970.14 266.198 969.373 267.096 968.929 268.051L965.111 266.687C965.793 265.096 966.702 263.857 967.839 262.971C968.986 262.073 970.236 261.448 971.589 261.096C972.952 260.732 974.293 260.551 975.611 260.551C976.452 260.551 977.418 260.653 978.509 260.857C979.611 261.051 980.674 261.454 981.696 262.068C982.731 262.681 983.589 263.607 984.27 264.846C984.952 266.085 985.293 267.744 985.293 269.823V287.073H981.27V283.528H981.066C980.793 284.096 980.339 284.704 979.702 285.352C979.066 285.999 978.219 286.551 977.162 287.005C976.106 287.46 974.816 287.687 973.293 287.687ZM973.907 284.073C975.498 284.073 976.839 283.761 977.929 283.136C979.032 282.511 979.861 281.704 980.418 280.715C980.986 279.727 981.27 278.687 981.27 277.596V273.914C981.1 274.119 980.725 274.306 980.145 274.477C979.577 274.636 978.918 274.778 978.168 274.903C977.429 275.016 976.708 275.119 976.003 275.21C975.31 275.289 974.748 275.357 974.316 275.414C973.27 275.551 972.293 275.772 971.384 276.079C970.486 276.374 969.759 276.823 969.202 277.426C968.657 278.016 968.384 278.823 968.384 279.846C968.384 281.244 968.901 282.301 969.935 283.016C970.981 283.721 972.304 284.073 973.907 284.073Z" fill="black"/>
<path d="M864.234 322.891C864.03 321.164 863.2 319.823 861.746 318.869C860.291 317.914 858.507 317.437 856.393 317.437C854.848 317.437 853.496 317.687 852.336 318.187C851.189 318.687 850.291 319.374 849.643 320.249C849.007 321.124 848.689 322.119 848.689 323.232C848.689 324.164 848.91 324.965 849.353 325.636C849.808 326.295 850.388 326.846 851.092 327.289C851.797 327.721 852.535 328.079 853.308 328.363C854.081 328.636 854.791 328.857 855.439 329.028L858.984 329.982C859.893 330.221 860.905 330.551 862.018 330.971C863.143 331.391 864.217 331.965 865.24 332.693C866.274 333.408 867.126 334.329 867.797 335.454C868.467 336.579 868.802 337.96 868.802 339.596C868.802 341.482 868.308 343.187 867.319 344.71C866.342 346.232 864.91 347.443 863.024 348.34C861.149 349.238 858.871 349.687 856.189 349.687C853.689 349.687 851.524 349.283 849.694 348.477C847.876 347.67 846.444 346.545 845.399 345.102C844.365 343.658 843.78 341.982 843.643 340.073H848.007C848.121 341.391 848.564 342.482 849.336 343.346C850.121 344.198 851.109 344.835 852.302 345.255C853.507 345.664 854.802 345.869 856.189 345.869C857.802 345.869 859.251 345.607 860.535 345.085C861.819 344.551 862.836 343.812 863.586 342.869C864.336 341.914 864.711 340.801 864.711 339.528C864.711 338.369 864.388 337.426 863.74 336.698C863.092 335.971 862.24 335.38 861.183 334.926C860.126 334.471 858.984 334.073 857.757 333.732L853.461 332.505C850.734 331.721 848.575 330.602 846.984 329.147C845.393 327.693 844.598 325.789 844.598 323.437C844.598 321.482 845.126 319.778 846.183 318.323C847.251 316.857 848.683 315.721 850.478 314.914C852.285 314.096 854.302 313.687 856.53 313.687C858.78 313.687 860.78 314.09 862.53 314.897C864.28 315.693 865.666 316.783 866.689 318.17C867.723 319.556 868.268 321.13 868.325 322.891H864.234Z" fill="black"/>
<path d="M875.207 349.073V322.891H879.23V349.073H875.207ZM877.253 318.528C876.469 318.528 875.792 318.261 875.224 317.727C874.667 317.193 874.389 316.551 874.389 315.801C874.389 315.051 874.667 314.408 875.224 313.874C875.792 313.34 876.469 313.073 877.253 313.073C878.037 313.073 878.707 313.34 879.264 313.874C879.832 314.408 880.116 315.051 880.116 315.801C880.116 316.551 879.832 317.193 879.264 317.727C878.707 318.261 878.037 318.528 877.253 318.528Z" fill="black"/>
<path d="M896.484 349.619C894.302 349.619 892.376 349.068 890.706 347.965C889.035 346.852 887.728 345.283 886.785 343.261C885.842 341.227 885.371 338.823 885.371 336.051C885.371 333.301 885.842 330.914 886.785 328.891C887.728 326.869 889.041 325.306 890.723 324.204C892.405 323.102 894.348 322.551 896.552 322.551C898.257 322.551 899.603 322.835 900.592 323.403C901.592 323.96 902.353 324.596 902.876 325.312C903.41 326.016 903.825 326.596 904.121 327.051H904.461V314.164H908.484V349.073H904.598V345.051H904.121C903.825 345.528 903.405 346.13 902.859 346.857C902.314 347.573 901.535 348.215 900.524 348.783C899.513 349.34 898.166 349.619 896.484 349.619ZM897.03 346.005C898.643 346.005 900.007 345.585 901.121 344.744C902.234 343.891 903.081 342.715 903.66 341.215C904.24 339.704 904.53 337.96 904.53 335.982C904.53 334.028 904.246 332.318 903.677 330.852C903.109 329.374 902.268 328.227 901.155 327.408C900.041 326.579 898.666 326.164 897.03 326.164C895.325 326.164 893.905 326.602 892.768 327.477C891.643 328.34 890.797 329.516 890.228 331.005C889.672 332.482 889.393 334.141 889.393 335.982C889.393 337.846 889.677 339.539 890.246 341.062C890.825 342.573 891.677 343.778 892.802 344.676C893.939 345.562 895.348 346.005 897.03 346.005Z" fill="black"/>
<path d="M927.388 349.619C924.865 349.619 922.689 349.062 920.859 347.948C919.041 346.823 917.638 345.255 916.649 343.244C915.672 341.221 915.183 338.869 915.183 336.187C915.183 333.505 915.672 331.141 916.649 329.096C917.638 327.039 919.013 325.437 920.774 324.289C922.547 323.13 924.615 322.551 926.978 322.551C928.342 322.551 929.689 322.778 931.018 323.232C932.348 323.687 933.558 324.426 934.649 325.448C935.74 326.46 936.609 327.801 937.257 329.471C937.905 331.141 938.228 333.198 938.228 335.641V337.346H918.047V333.869H934.138C934.138 332.391 933.842 331.073 933.251 329.914C932.672 328.755 931.842 327.84 930.763 327.17C929.694 326.499 928.433 326.164 926.978 326.164C925.376 326.164 923.99 326.562 922.819 327.357C921.66 328.141 920.768 329.164 920.143 330.426C919.518 331.687 919.206 333.039 919.206 334.482V336.801C919.206 338.778 919.547 340.454 920.228 341.829C920.922 343.193 921.882 344.232 923.109 344.948C924.336 345.653 925.763 346.005 927.388 346.005C928.444 346.005 929.399 345.857 930.251 345.562C931.115 345.255 931.859 344.801 932.484 344.198C933.109 343.585 933.592 342.823 933.933 341.914L937.819 343.005C937.41 344.323 936.723 345.482 935.757 346.482C934.791 347.471 933.598 348.244 932.177 348.801C930.757 349.346 929.16 349.619 927.388 349.619Z" fill="black"/>
<path d="M944.893 349.073V314.164H948.916V327.051H949.257C949.552 326.596 949.961 326.016 950.484 325.312C951.018 324.596 951.78 323.96 952.768 323.403C953.768 322.835 955.121 322.551 956.825 322.551C959.03 322.551 960.973 323.102 962.655 324.204C964.336 325.306 965.649 326.869 966.592 328.891C967.535 330.914 968.007 333.301 968.007 336.051C968.007 338.823 967.535 341.227 966.592 343.261C965.649 345.283 964.342 346.852 962.672 347.965C961.001 349.068 959.075 349.619 956.893 349.619C955.211 349.619 953.865 349.34 952.853 348.783C951.842 348.215 951.064 347.573 950.518 346.857C949.973 346.13 949.552 345.528 949.257 345.051H948.78V349.073H944.893ZM948.848 335.982C948.848 337.96 949.138 339.704 949.717 341.215C950.297 342.715 951.143 343.891 952.257 344.744C953.371 345.585 954.734 346.005 956.348 346.005C958.03 346.005 959.433 345.562 960.558 344.676C961.694 343.778 962.547 342.573 963.115 341.062C963.694 339.539 963.984 337.846 963.984 335.982C963.984 334.141 963.7 332.482 963.132 331.005C962.575 329.516 961.728 328.34 960.592 327.477C959.467 326.602 958.052 326.164 956.348 326.164C954.711 326.164 953.336 326.579 952.223 327.408C951.109 328.227 950.268 329.374 949.7 330.852C949.132 332.318 948.848 334.028 948.848 335.982Z" fill="black"/>
<path d="M981.865 349.687C980.206 349.687 978.7 349.374 977.348 348.749C975.996 348.113 974.922 347.198 974.126 346.005C973.331 344.801 972.933 343.346 972.933 341.641C972.933 340.141 973.228 338.926 973.819 337.994C974.41 337.051 975.2 336.312 976.189 335.778C977.177 335.244 978.268 334.846 979.461 334.585C980.666 334.312 981.876 334.096 983.092 333.937C984.683 333.732 985.973 333.579 986.961 333.477C987.961 333.363 988.689 333.176 989.143 332.914C989.609 332.653 989.842 332.198 989.842 331.551V331.414C989.842 329.732 989.382 328.426 988.461 327.494C987.552 326.562 986.172 326.096 984.319 326.096C982.399 326.096 980.893 326.516 979.802 327.357C978.711 328.198 977.944 329.096 977.501 330.051L973.683 328.687C974.365 327.096 975.274 325.857 976.41 324.971C977.558 324.073 978.808 323.448 980.16 323.096C981.524 322.732 982.865 322.551 984.183 322.551C985.024 322.551 985.99 322.653 987.081 322.857C988.183 323.051 989.246 323.454 990.268 324.068C991.302 324.681 992.16 325.607 992.842 326.846C993.524 328.085 993.865 329.744 993.865 331.823V349.073H989.842V345.528H989.638C989.365 346.096 988.91 346.704 988.274 347.352C987.638 347.999 986.791 348.551 985.734 349.005C984.677 349.46 983.388 349.687 981.865 349.687ZM982.478 346.073C984.069 346.073 985.41 345.761 986.501 345.136C987.603 344.511 988.433 343.704 988.99 342.715C989.558 341.727 989.842 340.687 989.842 339.596V335.914C989.672 336.119 989.297 336.306 988.717 336.477C988.149 336.636 987.49 336.778 986.74 336.903C986.001 337.016 985.28 337.119 984.575 337.21C983.882 337.289 983.319 337.357 982.888 337.414C981.842 337.551 980.865 337.772 979.956 338.079C979.058 338.374 978.331 338.823 977.774 339.426C977.228 340.016 976.956 340.823 976.956 341.846C976.956 343.244 977.473 344.301 978.507 345.016C979.552 345.721 980.876 346.073 982.478 346.073Z" fill="black"/>
<path d="M1001.21 349.073V322.891H1005.09V326.846H1005.37C1005.84 325.551 1006.71 324.499 1007.96 323.693C1009.21 322.886 1010.62 322.482 1012.18 322.482C1012.48 322.482 1012.85 322.488 1013.29 322.499C1013.74 322.511 1014.07 322.528 1014.3 322.551V326.641C1014.16 326.607 1013.85 326.556 1013.36 326.488C1012.88 326.408 1012.38 326.369 1011.84 326.369C1010.57 326.369 1009.43 326.636 1008.43 327.17C1007.45 327.693 1006.66 328.42 1006.08 329.352C1005.51 330.272 1005.23 331.323 1005.23 332.505V349.073H1001.21Z" fill="black"/>
<path d="M1088.49 299.041H1088.36L1086.63 302.593L1082.06 311.041L1077.48 302.593L1075.75 299.041H1075.62V315.073H1071.62V292.737H1076.39L1082.12 303.649H1082.25L1087.91 292.737H1092.49V315.073H1088.49V299.041Z" fill="black"/>
<path d="M1111.57 315.073L1109.78 309.377H1101.85L1100.09 315.073H1095.8L1103.29 292.737H1108.53L1115.96 315.073H1111.57ZM1105.88 296.577H1105.72L1102.87 305.761H1108.76L1105.88 296.577Z" fill="black"/>
<path d="M1118.32 315.073V311.681H1121.27V296.129H1118.32V292.737H1128.47V296.129H1125.49V311.681H1128.47V315.073H1118.32Z" fill="black"/>
<path d="M1139.18 303.617L1136.88 298.977H1136.78V315.073H1132.78V292.737H1137.42L1144.14 304.193L1146.44 308.833H1146.54V292.737H1150.54V315.073H1145.9L1139.18 303.617Z" fill="black"/>
</g>
<g filter="url(#filter2_d_5_184)">
<path d="M393.5 586.5V946.5H892.5V586.5H393.5Z" stroke="#979797" stroke-width="5"/>
<path d="M393.5 831.5H890.5" stroke="#979797" stroke-width="5" stroke-linecap="square"/>
<path d="M596.829 883.02C596.625 881.293 595.795 879.952 594.341 878.997C592.886 878.043 591.102 877.566 588.988 877.566C587.443 877.566 586.091 877.816 584.932 878.316C583.784 878.816 582.886 879.503 582.238 880.378C581.602 881.253 581.284 882.247 581.284 883.361C581.284 884.293 581.505 885.094 581.949 885.764C582.403 886.423 582.983 886.975 583.687 887.418C584.392 887.85 585.13 888.208 585.903 888.492C586.676 888.764 587.386 888.986 588.034 889.156L591.579 890.111C592.488 890.35 593.5 890.679 594.613 891.1C595.738 891.52 596.812 892.094 597.835 892.821C598.869 893.537 599.721 894.458 600.392 895.583C601.062 896.708 601.397 898.088 601.397 899.725C601.397 901.611 600.903 903.316 599.915 904.838C598.937 906.361 597.505 907.571 595.619 908.469C593.744 909.367 591.466 909.816 588.784 909.816C586.284 909.816 584.119 909.412 582.29 908.605C580.471 907.798 579.04 906.673 577.994 905.23C576.96 903.787 576.375 902.111 576.238 900.202H580.602C580.716 901.52 581.159 902.611 581.932 903.475C582.716 904.327 583.704 904.963 584.897 905.384C586.102 905.793 587.397 905.997 588.784 905.997C590.397 905.997 591.846 905.736 593.13 905.213C594.415 904.679 595.432 903.941 596.182 902.997C596.932 902.043 597.307 900.929 597.307 899.656C597.307 898.497 596.983 897.554 596.335 896.827C595.687 896.1 594.835 895.509 593.778 895.054C592.721 894.6 591.579 894.202 590.352 893.861L586.057 892.634C583.329 891.85 581.17 890.73 579.579 889.276C577.988 887.821 577.193 885.918 577.193 883.566C577.193 881.611 577.721 879.906 578.778 878.452C579.846 876.986 581.278 875.85 583.074 875.043C584.88 874.225 586.897 873.816 589.125 873.816C591.375 873.816 593.375 874.219 595.125 875.026C596.875 875.821 598.261 876.912 599.284 878.298C600.318 879.685 600.863 881.259 600.92 883.02H596.829Z" fill="black"/>
<path d="M607.802 909.202V883.02H611.825V909.202H607.802ZM609.848 878.656C609.064 878.656 608.388 878.389 607.819 877.855C607.263 877.321 606.984 876.679 606.984 875.929C606.984 875.179 607.263 874.537 607.819 874.003C608.388 873.469 609.064 873.202 609.848 873.202C610.632 873.202 611.302 873.469 611.859 874.003C612.427 874.537 612.711 875.179 612.711 875.929C612.711 876.679 612.427 877.321 611.859 877.855C611.302 878.389 610.632 878.656 609.848 878.656Z" fill="black"/>
<path d="M629.079 909.747C626.897 909.747 624.971 909.196 623.301 908.094C621.63 906.98 620.324 905.412 619.38 903.389C618.437 901.355 617.966 898.952 617.966 896.179C617.966 893.429 618.437 891.043 619.38 889.02C620.324 886.997 621.636 885.435 623.318 884.333C625 883.23 626.943 882.679 629.147 882.679C630.852 882.679 632.199 882.963 633.187 883.531C634.187 884.088 634.949 884.725 635.471 885.441C636.005 886.145 636.42 886.725 636.716 887.179H637.057V874.293H641.079V909.202H637.193V905.179H636.716C636.42 905.656 636 906.259 635.454 906.986C634.909 907.702 634.13 908.344 633.119 908.912C632.108 909.469 630.761 909.747 629.079 909.747ZM629.625 906.134C631.238 906.134 632.602 905.713 633.716 904.872C634.829 904.02 635.676 902.844 636.255 901.344C636.835 899.833 637.125 898.088 637.125 896.111C637.125 894.156 636.841 892.446 636.272 890.98C635.704 889.503 634.863 888.355 633.75 887.537C632.636 886.708 631.261 886.293 629.625 886.293C627.92 886.293 626.5 886.73 625.363 887.605C624.238 888.469 623.392 889.645 622.824 891.134C622.267 892.611 621.988 894.27 621.988 896.111C621.988 897.975 622.272 899.668 622.841 901.191C623.42 902.702 624.272 903.906 625.397 904.804C626.534 905.691 627.943 906.134 629.625 906.134Z" fill="black"/>
<path d="M659.983 909.747C657.46 909.747 655.284 909.191 653.454 908.077C651.636 906.952 650.233 905.384 649.244 903.372C648.267 901.35 647.778 898.997 647.778 896.316C647.778 893.634 648.267 891.27 649.244 889.225C650.233 887.168 651.608 885.566 653.369 884.418C655.142 883.259 657.21 882.679 659.574 882.679C660.937 882.679 662.284 882.906 663.613 883.361C664.943 883.816 666.153 884.554 667.244 885.577C668.335 886.588 669.204 887.929 669.852 889.6C670.5 891.27 670.824 893.327 670.824 895.77V897.475H650.642V893.997H666.733C666.733 892.52 666.437 891.202 665.846 890.043C665.267 888.884 664.437 887.969 663.358 887.298C662.29 886.628 661.028 886.293 659.574 886.293C657.971 886.293 656.585 886.691 655.415 887.486C654.255 888.27 653.363 889.293 652.738 890.554C652.113 891.816 651.801 893.168 651.801 894.611V896.929C651.801 898.906 652.142 900.583 652.824 901.958C653.517 903.321 654.477 904.361 655.704 905.077C656.932 905.781 658.358 906.134 659.983 906.134C661.04 906.134 661.994 905.986 662.846 905.691C663.71 905.384 664.454 904.929 665.079 904.327C665.704 903.713 666.187 902.952 666.528 902.043L670.415 903.134C670.005 904.452 669.318 905.611 668.352 906.611C667.386 907.6 666.193 908.372 664.772 908.929C663.352 909.475 661.755 909.747 659.983 909.747Z" fill="black"/>
<path d="M677.488 909.202V874.293H681.511V887.179H681.852C682.147 886.725 682.557 886.145 683.079 885.441C683.613 884.725 684.375 884.088 685.363 883.531C686.363 882.963 687.716 882.679 689.42 882.679C691.625 882.679 693.568 883.23 695.25 884.333C696.932 885.435 698.244 886.997 699.187 889.02C700.13 891.043 700.602 893.429 700.602 896.179C700.602 898.952 700.13 901.355 699.187 903.389C698.244 905.412 696.937 906.98 695.267 908.094C693.596 909.196 691.67 909.747 689.488 909.747C687.807 909.747 686.46 909.469 685.449 908.912C684.437 908.344 683.659 907.702 683.113 906.986C682.568 906.259 682.147 905.656 681.852 905.179H681.375V909.202H677.488ZM681.443 896.111C681.443 898.088 681.733 899.833 682.312 901.344C682.892 902.844 683.738 904.02 684.852 904.872C685.966 905.713 687.329 906.134 688.943 906.134C690.625 906.134 692.028 905.691 693.153 904.804C694.29 903.906 695.142 902.702 695.71 901.191C696.29 899.668 696.579 897.975 696.579 896.111C696.579 894.27 696.295 892.611 695.727 891.134C695.17 889.645 694.324 888.469 693.187 887.605C692.062 886.73 690.647 886.293 688.943 886.293C687.307 886.293 685.932 886.708 684.818 887.537C683.704 888.355 682.863 889.503 682.295 890.98C681.727 892.446 681.443 894.156 681.443 896.111Z" fill="black"/>
<path d="M714.46 909.816C712.801 909.816 711.295 909.503 709.943 908.878C708.591 908.242 707.517 907.327 706.721 906.134C705.926 904.929 705.528 903.475 705.528 901.77C705.528 900.27 705.824 899.054 706.415 898.122C707.005 897.179 707.795 896.441 708.784 895.906C709.772 895.372 710.863 894.975 712.057 894.713C713.261 894.441 714.471 894.225 715.687 894.066C717.278 893.861 718.568 893.708 719.557 893.605C720.557 893.492 721.284 893.304 721.738 893.043C722.204 892.781 722.437 892.327 722.437 891.679V891.543C722.437 889.861 721.977 888.554 721.057 887.622C720.147 886.691 718.767 886.225 716.915 886.225C714.994 886.225 713.488 886.645 712.397 887.486C711.307 888.327 710.54 889.225 710.096 890.179L706.278 888.816C706.96 887.225 707.869 885.986 709.005 885.1C710.153 884.202 711.403 883.577 712.755 883.225C714.119 882.861 715.46 882.679 716.778 882.679C717.619 882.679 718.585 882.781 719.676 882.986C720.778 883.179 721.841 883.583 722.863 884.196C723.897 884.81 724.755 885.736 725.437 886.975C726.119 888.213 726.46 889.872 726.46 891.952V909.202H722.437V905.656H722.233C721.96 906.225 721.505 906.833 720.869 907.48C720.233 908.128 719.386 908.679 718.329 909.134C717.272 909.588 715.983 909.816 714.46 909.816ZM715.074 906.202C716.665 906.202 718.005 905.889 719.096 905.264C720.199 904.639 721.028 903.833 721.585 902.844C722.153 901.855 722.437 900.816 722.437 899.725V896.043C722.267 896.247 721.892 896.435 721.312 896.605C720.744 896.764 720.085 896.906 719.335 897.031C718.596 897.145 717.875 897.247 717.17 897.338C716.477 897.418 715.915 897.486 715.483 897.543C714.437 897.679 713.46 897.901 712.551 898.208C711.653 898.503 710.926 898.952 710.369 899.554C709.824 900.145 709.551 900.952 709.551 901.975C709.551 903.372 710.068 904.429 711.102 905.145C712.147 905.85 713.471 906.202 715.074 906.202Z" fill="black"/>
<path d="M733.802 909.202V883.02H737.689V886.975H737.961C738.439 885.679 739.302 884.628 740.552 883.821C741.802 883.014 743.211 882.611 744.78 882.611C745.075 882.611 745.444 882.617 745.888 882.628C746.331 882.639 746.666 882.656 746.893 882.679V886.77C746.757 886.736 746.444 886.685 745.956 886.617C745.478 886.537 744.973 886.497 744.439 886.497C743.166 886.497 742.03 886.764 741.03 887.298C740.041 887.821 739.257 888.548 738.677 889.48C738.109 890.401 737.825 891.452 737.825 892.634V909.202H733.802Z" fill="black"/>
<path d="M618.703 706.111H618.575L616.847 709.663L612.271 718.111L607.695 709.663L605.967 706.111H605.839V722.143H601.839V699.807H606.607L612.335 710.719H612.463L618.127 699.807H622.703V722.143H618.703V706.111Z" fill="black"/>
<path d="M641.788 722.143L639.996 716.447H632.06L630.3 722.143H626.012L633.5 699.807H638.748L646.172 722.143H641.788ZM636.092 703.647H635.932L633.084 712.831H638.972L636.092 703.647Z" fill="black"/>
<path d="M648.536 722.143V718.751H651.48V703.199H648.536V699.807H658.68V703.199H655.704V718.751H658.68V722.143H648.536Z" fill="black"/>
<path d="M669.395 710.687L667.091 706.047H666.995V722.143H662.995V699.807H667.635L674.355 711.263L676.659 715.903H676.755V699.807H680.755V722.143H676.115L669.395 710.687Z" fill="black"/>
</g>
<defs>
<filter id="filter0_d_5_184" x="82" y="87" width="652" height="438.073" filterUnits="userSpaceOnUse" color-interpolation-filters="sRGB">
<feFlood flood-opacity="0" result="BackgroundImageFix"/>
<feColorMatrix in="SourceAlpha" type="matrix" values="0 0 0 0 0 0 0 0 0 0 0 0 0 0 0 0 0 0 127 0" result="hardAlpha"/>
<feOffset dy="2"/>
<feGaussianBlur stdDeviation="2"/>
<feColorMatrix type="matrix" values="0 0 0 0 0.203922 0 0 0 0 0.737255 0 0 0 0 0.431373 0 0 0 1 0"/>
<feBlend mode="normal" in2="BackgroundImageFix" result="effect1_dropShadow_5_184"/>
<feBlend mode="normal" in="SourceGraphic" in2="effect1_dropShadow_5_184" result="shape"/>
</filter>
<filter id="filter1_d_5_184" x="827" y="86" width="377" height="438.073" filterUnits="userSpaceOnUse" color-interpolation-filters="sRGB">
<feFlood flood-opacity="0" result="BackgroundImageFix"/>
<feColorMatrix in="SourceAlpha" type="matrix" values="0 0 0 0 0 0 0 0 0 0 0 0 0 0 0 0 0 0 127 0" result="hardAlpha"/>
<feOffset dy="2"/>
<feGaussianBlur stdDeviation="2"/>
<feColorMatrix type="matrix" values="0 0 0 0 0.901961 0 0 0 0 0.137255 0 0 0 0 0.145098 0 0 0 1 0"/>
<feBlend mode="normal" in2="BackgroundImageFix" result="effect1_dropShadow_5_184"/>
<feBlend mode="normal" in="SourceGraphic" in2="effect1_dropShadow_5_184" result="shape"/>
</filter>
<filter id="filter2_d_5_184" x="387" y="582" width="512" height="373" filterUnits="userSpaceOnUse" color-interpolation-filters="sRGB">
<feFlood flood-opacity="0" result="BackgroundImageFix"/>
<feColorMatrix in="SourceAlpha" type="matrix" values="0 0 0 0 0 0 0 0 0 0 0 0 0 0 0 0 0 0 127 0" result="hardAlpha"/>
<feOffset dy="2"/>
<feGaussianBlur stdDeviation="2"/>
<feColorMatrix type="matrix" values="0 0 0 0 0 0 0 0 0 0.666667 0 0 0 0 0.368627 0 0 0 1 0"/>
<feBlend mode="normal" in2="BackgroundImageFix" result="effect1_dropShadow_5_184"/>
<feBlend mode="normal" in="SourceGraphic" in2="effect1_dropShadow_5_184" result="shape"/>
</filter>
</defs>
</svg>
